<svg xmlns="http://www.w3.org/2000/svg" xmlns:xlink="http://www.w3.org/1999/xlink" version="1.1" data-diagram-type="ACTIVITY" style="width:1645px;height:1520px;background:#FFFFFF;" width="1645px" height="1520px" viewBox="0 0 1645 1520" zoomAndPan="magnify" preserveAspectRatio="none" contentStyleType="text/css"><?plantuml 1.2026.7?><defs/><g font-family="sans-serif" lengthAdjust="spacing"><g class="title" data-source-line="2"><text x="598.511" y="35.107" fill="#000" font-size="14" textLength="446.558" font-weight="700" font-family="'Segoe UI'">--abs - a book fetched from Audiobookshelf, marked, and sent back</text></g><ellipse cx="811.789" cy="64.621" rx="10" ry="10" fill="#2D3748" style="stroke:#222;stroke-width:1;"/><rect x="703.363" y="84.621" width="490.454" height="166.78" fill="none" style="stroke:#A0AEC0;stroke-width:1.5;" rx="3" ry="3"/><path d="M865.32,84.621 L865.32,93.582 L855.32,103.582 L703.363,103.582" style="stroke:#A0AEC0;stroke-width:1.5;" fill="none"/><text x="706.363" y="98.57" fill="#2D3748" font-size="12" textLength="151.957" font-weight="700" font-family="'Segoe UI'">on the server, once per run</text><path d="M930.216,120.582 L930.216,143.528 L910.216,147.528 L930.216,151.528 L930.216,174.475 A0,0 0 0 0 930.216,174.475 L1179.079,174.475 A0,0 0 0 0 1179.079,174.475 L1179.079,130.582 L1169.079,120.582 L930.216,120.582 A0,0 0 0 0 930.216,120.582" style="stroke:#D69E2E;stroke-width:0.5;" fill="#FFFAF0"/><path d="M1169.079,120.582 L1169.079,130.582 L1179.079,130.582 L1169.079,120.582" style="stroke:#D69E2E;stroke-width:0.5;" fill="#FFFAF0"/><text x="936.216" y="137.452" fill="#000" font-size="11" textLength="227.863" font-family="'Segoe UI'">Download for --abs alone, update for the three</text><text x="936.216" y="152.083" fill="#000" font-size="11" textLength="225.897" font-family="'Segoe UI'">modes that write. So --abs-pull-only runs from</text><text x="936.216" y="166.714" fill="#000" font-size="11" textLength="187.269" font-family="'Segoe UI'">an account that may not update items.</text><rect x="713.363" y="121.567" width="196.854" height="51.922" fill="#F7FAFC" style="stroke:#4A5568;stroke-width:0.5;" rx="3" ry="3"/><text x="723.363" y="144.517" fill="#1A202C" font-size="12" textLength="176.854" font-family="'Segoe UI'">sign in, requesting only the rights</text><text x="723.363" y="160.478" fill="#1A202C" font-size="12" textLength="109.951" font-family="'Segoe UI'">this run actually uses</text><path d="M920.542,185.509 L920.542,208.455 L900.542,212.455 L920.542,216.455 L920.542,239.401 A0,0 0 0 0 920.542,239.401 L1183.816,239.401 A0,0 0 0 0 1183.816,239.401 L1183.816,195.509 L1173.816,185.509 L920.542,185.509 A0,0 0 0 0 920.542,185.509" style="stroke:#D69E2E;stroke-width:0.5;" fill="#FFFAF0"/><path d="M1173.816,185.509 L1173.816,195.509 L1183.816,195.509 L1173.816,185.509" style="stroke:#D69E2E;stroke-width:0.5;" fill="#FFFAF0"/><text x="926.542" y="202.379" fill="#000" font-size="11" textLength="105.816" font-family="'Segoe UI'">Audiobookshelf reads</text><text x="1035.371" y="202.379" fill="#000" font-size="11" textLength="34.998" font-style="italic" font-family="'Segoe UI'">limit=0</text><text x="1073.383" y="202.379" fill="#000" font-size="11" textLength="95.434" font-family="'Segoe UI'">two ways - the item</text><text x="926.542" y="217.01" fill="#000" font-size="11" textLength="235.243" font-family="'Segoe UI'">endpoint as "all", the series endpoint as "none" -</text><text x="926.542" y="231.641" fill="#000" font-size="11" textLength="148.521" font-family="'Segoe UI'">so both listings page explicitly.</text><rect x="723.036" y="194.475" width="177.506" height="35.961" fill="#F7FAFC" style="stroke:#4A5568;stroke-width:0.5;" rx="3" ry="3"/><text x="733.036" y="217.424" fill="#1A202C" font-size="12" textLength="157.506" font-family="'Segoe UI'">resolve the selectors to books</text><polygon points="37,327.362,161.609,327.362,173.609,339.362,161.609,351.362,37,351.362,25,339.362,37,327.362" fill="#FFF" style="stroke:#4A5568;stroke-width:0.5;stroke-linejoin:miter;stroke-miterlimit:10;"/><text x="103.305" y="363.232" fill="#4A5568" font-size="11" textLength="19.266" font-family="'Segoe UI'">skip</text><text x="37" y="343.917" fill="#1A202C" font-size="11" textLength="124.609" font-family="'Segoe UI'">more than one audio file?</text><path d="M149.019,385.993 L149.019,416.255 L129.019,420.255 L149.019,424.255 L149.019,454.517 A0,0 0 0 0 149.019,454.517 L382.456,454.517 A0,0 0 0 0 382.456,454.517 L382.456,395.993 L372.456,385.993 L149.019,385.993 A0,0 0 0 0 149.019,385.993" style="stroke:#D69E2E;stroke-width:0.5;" fill="#FFFAF0"/><path d="M372.456,385.993 L372.456,395.993 L382.456,395.993 L372.456,385.993" style="stroke:#D69E2E;stroke-width:0.5;" fill="#FFFAF0"/><text x="155.019" y="402.863" fill="#000" font-size="11" textLength="203.795" font-family="'Segoe UI'">By decision. The chapter list addresses the</text><text x="155.019" y="417.494" fill="#000" font-size="11" textLength="212.438" font-family="'Segoe UI'">concatenated timeline of the whole item, so</text><text x="155.019" y="432.125" fill="#000" font-size="11" textLength="209.145" font-family="'Segoe UI'">per-file detection would restart the chapter</text><text x="155.019" y="446.756" fill="#000" font-size="11" textLength="180.168" font-family="'Segoe UI'">number sequence at every boundary.</text><rect x="69.591" y="402.274" width="59.428" height="35.961" fill="#F7FAFC" style="stroke:#4A5568;stroke-width:0.5;" rx="3" ry="3"/><text x="79.591" y="425.224" fill="#1A202C" font-size="12" textLength="39.428" font-family="'Segoe UI'">refused</text><polygon points="414.456,327.362,607.708,327.362,619.708,339.362,607.708,351.362,414.456,351.362,402.456,339.362,414.456,327.362" fill="#FFF" style="stroke:#4A5568;stroke-width:0.5;stroke-linejoin:miter;stroke-miterlimit:10;"/><text x="515.082" y="363.232" fill="#4A5568" font-size="11" textLength="19.266" font-family="'Segoe UI'">skip</text><text x="414.456" y="343.917" fill="#1A202C" font-size="11" textLength="193.252" font-family="'Segoe UI'">already marked, and nothing says redo?</text><text x="619.708" y="336.602" fill="#4A5568" font-size="11" textLength="48.775" font-family="'Segoe UI'">work on it</text><path d="M629.254,385.993 L629.254,423.57 L609.254,427.57 L629.254,431.57 L629.254,469.147 A0,0 0 0 0 629.254,469.147 L877.124,469.147 A0,0 0 0 0 877.124,469.147 L877.124,395.993 L867.124,385.993 L629.254,385.993 A0,0 0 0 0 629.254,385.993" style="stroke:#D69E2E;stroke-width:0.5;" fill="#FFFAF0"/><path d="M867.124,385.993 L867.124,395.993 L877.124,395.993 L867.124,385.993" style="stroke:#D69E2E;stroke-width:0.5;" fill="#FFFAF0"/><text x="635.254" y="402.863" fill="#000" font-size="11" textLength="226.87" font-family="'Segoe UI'">A library of already-marked books must not be</text><text x="635.254" y="417.494" fill="#000" font-size="11" textLength="212.271" font-family="'Segoe UI'">fetched in full just to be passed over one by</text><text x="635.254" y="432.125" fill="#000" font-size="11" textLength="204.354" font-family="'Segoe UI'">one. This pre-download skip can only ever</text><text x="635.254" y="446.756" fill="#000" font-size="11" textLength="193.3" font-family="'Segoe UI'">refuse a book the file-level policy would</text><text x="635.254" y="461.387" fill="#000" font-size="11" textLength="51.681" font-family="'Segoe UI'">refuse too.</text><rect x="412.91" y="409.59" width="196.344" height="35.961" fill="#F7FAFC" style="stroke:#4A5568;stroke-width:0.5;" rx="3" ry="3"/><text x="422.91" y="432.539" fill="#1A202C" font-size="12" textLength="63.199" font-family="'Segoe UI'">passed over</text><text x="489.396" y="432.539" fill="#1A202C" font-size="12" textLength="37.137" font-weight="700" font-family="'Segoe UI'">before</text><text x="529.82" y="432.539" fill="#1A202C" font-size="12" textLength="69.434" font-family="'Segoe UI'">downloading</text><path d="M1312.826,367.02 L1312.826,397.282 L1292.826,401.282 L1312.826,405.282 L1312.826,435.543 A0,0 0 0 0 1312.826,435.543 L1559.321,435.543 A0,0 0 0 0 1559.321,435.543 L1559.321,377.02 L1549.321,367.02 L1312.826,367.02 A0,0 0 0 0 1312.826,367.02" style="stroke:#D69E2E;stroke-width:0.5;" fill="#FFFAF0"/><path d="M1549.321,367.02 L1549.321,377.02 L1559.321,377.02 L1549.321,367.02" style="stroke:#D69E2E;stroke-width:0.5;" fill="#FFFAF0"/><text x="1318.826" y="383.89" fill="#000" font-size="11" textLength="141.072" font-family="'Segoe UI'">A broken transfer is restarted</text><text x="1462.911" y="383.89" fill="#000" font-size="11" textLength="24.61" font-weight="700" font-family="'Segoe UI'">once</text><text x="1487.522" y="383.89" fill="#000" font-size="11" textLength="49.495" font-family="'Segoe UI'">, whatever</text><text x="1318.826" y="398.521" fill="#000" font-size="11" textLength="225.495" font-family="'Segoe UI'">budget is left. There is no byte-range resume -</text><text x="1318.826" y="413.152" fill="#000" font-size="11" textLength="211.712" font-family="'Segoe UI'">a file stitched from two fetches is the failure</text><text x="1318.826" y="427.783" fill="#000" font-size="11" textLength="220.22" font-family="'Segoe UI'">the partial-download delete exists to prevent.</text><rect x="1166.549" y="383.301" width="126.277" height="35.961" fill="#F7FAFC" style="stroke:#4A5568;stroke-width:0.5;" rx="3" ry="3"/><text x="1176.549" y="406.25" fill="#1A202C" font-size="12" textLength="106.277" font-family="'Segoe UI'">download the audio</text><rect x="1161.677" y="470.543" width="136.021" height="35.961" fill="#F7FAFC" style="stroke:#4A5568;stroke-width:0.5;" rx="3" ry="3"/><text x="1171.677" y="493.493" fill="#1A202C" font-size="12" textLength="116.021" font-family="'Segoe UI'">ffprobe the local copy</text><path d="M1345.665,517.539 L1345.665,540.485 L1325.665,544.485 L1345.665,548.485 L1345.665,571.431 A0,0 0 0 0 1345.665,571.431 L1566.357,571.431 A0,0 0 0 0 1566.357,571.431 L1566.357,527.539 L1556.357,517.539 L1345.665,517.539 A0,0 0 0 0 1345.665,517.539" style="stroke:#D69E2E;stroke-width:0.5;" fill="#FFFAF0"/><path d="M1556.357,517.539 L1556.357,527.539 L1566.357,527.539 L1556.357,517.539" style="stroke:#D69E2E;stroke-width:0.5;" fill="#FFFAF0"/><text x="1351.665" y="534.409" fill="#000" font-size="11" textLength="114.603" font-weight="700" font-family="'Segoe UI'">server wins, file fills in</text><text x="1469.281" y="534.409" fill="#000" font-size="11" textLength="62.101" font-family="'Segoe UI'">- skipped for</text><text x="1351.665" y="549.04" fill="#000" font-size="11" textLength="199.692" font-family="'Segoe UI'">--abs-push-only, which exists to send the</text><text x="1351.665" y="563.67" fill="#000" font-size="11" textLength="137.838" font-family="'Segoe UI'">server what the *file* carries.</text><rect x="1133.71" y="526.504" width="191.955" height="35.961" fill="#F7FAFC" style="stroke:#4A5568;stroke-width:0.5;" rx="3" ry="3"/><text x="1143.71" y="549.454" fill="#1A202C" font-size="12" textLength="171.955" font-family="'Segoe UI'">merge the server's chapter list in</text><rect x="1149.694" y="581.431" width="421.687" height="153.377" fill="none" style="stroke:#A0AEC0;stroke-width:1.5;" rx="3" ry="3"/><path d="M1347.094,581.431 L1347.094,590.392 L1337.094,600.392 L1149.694,600.392" style="stroke:#A0AEC0;stroke-width:1.5;" fill="none"/><text x="1152.694" y="595.38" fill="#2D3748" font-size="12" textLength="187.4" font-weight="700" font-family="'Segoe UI'">the ordinary pipeline, unchanged</text><path d="M1319.682,610.392 L1319.682,662.6 L1299.682,666.6 L1319.682,670.6 L1319.682,722.808 A0,0 0 0 0 1319.682,722.808 L1561.38,722.808 A0,0 0 0 0 1561.38,722.808 L1561.38,620.392 L1551.38,610.392 L1319.682,610.392 A0,0 0 0 0 1319.682,610.392" style="stroke:#D69E2E;stroke-width:0.5;" fill="#FFFAF0"/><path d="M1551.38,610.392 L1551.38,620.392 L1561.38,620.392 L1551.38,610.392" style="stroke:#D69E2E;stroke-width:0.5;" fill="#FFFAF0"/><text x="1325.682" y="627.262" fill="#000" font-size="11" textLength="111.912" font-family="'Segoe UI'">ABS mode is bracketed</text><text x="1440.607" y="627.262" fill="#000" font-size="11" textLength="37.141" font-weight="700" font-family="'Segoe UI'">around</text><text x="1480.761" y="627.262" fill="#000" font-size="11" textLength="53.684" font-family="'Segoe UI'">the per-file</text><text x="1325.682" y="641.893" fill="#000" font-size="11" textLength="213.028" font-family="'Segoe UI'">pipeline, never woven into it. A downloaded</text><text x="1325.682" y="656.524" fill="#000" font-size="11" textLength="191.694" font-family="'Segoe UI'">book is a file on disk like any other, and</text><text x="1325.682" y="671.155" fill="#000" font-size="11" textLength="210.488" font-family="'Segoe UI'">detection neither knows nor needs to know</text><text x="1325.682" y="685.786" fill="#000" font-size="11" textLength="220.698" font-family="'Segoe UI'">where it came from - which is what stops ABS</text><text x="1325.682" y="700.417" fill="#000" font-size="11" textLength="209.897" font-family="'Segoe UI'">mode becoming a second pipeline that can</text><text x="1325.682" y="715.047" fill="#000" font-size="11" textLength="88.779" font-family="'Segoe UI'">drift from the first.</text><rect x="1159.694" y="648.62" width="139.988" height="35.961" fill="#F7FAFC" style="stroke:#4A5568;stroke-width:0.5;" rx="3" ry="3"/><text x="1169.694" y="671.569" fill="#1A202C" font-size="12" textLength="119.988" font-family="'Segoe UI'">Analyze, Probe, Scan ...</text><path d="M1350.924,744.808 L1350.924,782.385 L1330.924,786.385 L1350.924,790.385 L1350.924,827.962 A0,0 0 0 0 1350.924,827.962 L1598.579,827.962 A0,0 0 0 0 1598.579,827.962 L1598.579,754.808 L1588.579,744.808 L1350.924,744.808 A0,0 0 0 0 1350.924,744.808" style="stroke:#D69E2E;stroke-width:0.5;" fill="#FFFAF0"/><path d="M1588.579,744.808 L1588.579,754.808 L1598.579,754.808 L1588.579,744.808" style="stroke:#D69E2E;stroke-width:0.5;" fill="#FFFAF0"/><text x="1356.924" y="761.678" fill="#000" font-size="11" textLength="57.293" font-family="'Segoe UI'">Formats are</text><text x="1417.231" y="761.678" fill="#000" font-size="11" textLength="17.66" font-weight="700" font-family="'Segoe UI'">not</text><text x="1437.904" y="761.678" fill="#000" font-size="11" textLength="139.149" font-family="'Segoe UI'">restricted here: the marks go</text><text x="1356.924" y="776.309" fill="#000" font-size="11" textLength="200.68" font-family="'Segoe UI'">into the server's database and the copy is</text><text x="1356.924" y="790.94" fill="#000" font-size="11" textLength="214.554" font-family="'Segoe UI'">deleted, so the only limit is what ffmpeg can</text><text x="1356.924" y="805.571" fill="#000" font-size="11" textLength="226.655" font-family="'Segoe UI'">decode. A container that cannot carry chapters</text><text x="1356.924" y="820.202" fill="#000" font-size="11" textLength="156.025" font-family="'Segoe UI'">simply says nothing was written.</text><rect x="1128.451" y="768.405" width="202.473" height="35.961" fill="#F7FAFC" style="stroke:#4A5568;stroke-width:0.5;" rx="3" ry="3"/><text x="1138.451" y="791.354" fill="#1A202C" font-size="12" textLength="182.473" font-family="'Segoe UI'">write the marks into the local copy</text><rect x="897.124" y="856.429" width="654.104" height="423.3" fill="none" style="stroke:#A0AEC0;stroke-width:1.5;" rx="3" ry="3"/><path d="M1008.133,856.429 L1008.133,865.39 L998.133,875.39 L897.124,875.39" style="stroke:#A0AEC0;stroke-width:1.5;" fill="none"/><text x="900.124" y="870.378" fill="#2D3748" font-size="12" textLength="101.01" font-weight="700" font-family="'Segoe UI'">back to the server</text><polygon points="1150.467,892.39,1308.909,892.39,1320.909,907.021,1308.909,921.652,1150.467,921.652,1138.467,907.021,1150.467,892.39" fill="#FFF" style="stroke:#4A5568;stroke-width:0.5;stroke-linejoin:miter;stroke-miterlimit:10;"/><text x="1150.467" y="904.26" fill="#1A202C" font-size="11" textLength="158.442" font-family="'Segoe UI'">chapter set complete, or allowed</text><text x="1150.467" y="918.891" fill="#1A202C" font-size="11" textLength="104.838" font-family="'Segoe UI'">to send a partial one?</text><text x="1115.344" y="904.26" fill="#4A5568" font-size="11" textLength="23.123" font-family="'Segoe UI'">send</text><text x="1320.909" y="904.26" fill="#4A5568" font-size="11" textLength="41.685" font-family="'Segoe UI'">withheld</text><path d="M1117.515,931.652 L1117.515,961.914 L1097.515,965.914 L1117.515,969.914 L1117.515,1000.175 A0,0 0 0 0 1117.515,1000.175 L1349.97,1000.175 A0,0 0 0 0 1349.97,1000.175 L1349.97,941.652 L1339.97,931.652 L1117.515,931.652 A0,0 0 0 0 1117.515,931.652" style="stroke:#D69E2E;stroke-width:0.5;" fill="#FFFAF0"/><path d="M1339.97,931.652 L1339.97,941.652 L1349.97,941.652 L1339.97,931.652" style="stroke:#D69E2E;stroke-width:0.5;" fill="#FFFAF0"/><text x="1123.515" y="948.522" fill="#000" font-size="11" textLength="17.741" font-family="'Segoe UI'">The</text><text x="1144.269" y="948.522" fill="#000" font-size="11" textLength="22.424" font-weight="700" font-family="'Segoe UI'">only</text><text x="1169.707" y="948.522" fill="#000" font-size="11" textLength="150.579" font-family="'Segoe UI'">write this codebase makes. The</text><text x="1123.515" y="963.153" fill="#000" font-size="11" textLength="211.455" font-family="'Segoe UI'">general media-update endpoint would let a</text><text x="1123.515" y="977.784" fill="#000" font-size="11" textLength="196.287" font-family="'Segoe UI'">bug here overwrite a title, an author or a</text><text x="1123.515" y="992.415" fill="#000" font-size="11" textLength="189.798" font-family="'Segoe UI'">cover. An empty list is refused outright.</text><rect x="920.039" y="947.933" width="177.477" height="35.961" fill="#F7FAFC" style="stroke:#4A5568;stroke-width:0.5;" rx="3" ry="3"/><text x="930.039" y="970.882" fill="#1A202C" font-size="12" textLength="157.477" font-family="'Segoe UI'">POST /api/items/{id}/chapters</text><rect x="917.124" y="1020.175" width="183.307" height="35.961" fill="#F7FAFC" style="stroke:#4A5568;stroke-width:0.5;" rx="3" ry="3"/><text x="927.124" y="1043.125" fill="#1A202C" font-size="12" textLength="163.307" font-family="'Segoe UI'">read the list back and compare</text><path d="M1106.687,1125.206 L1106.687,1155.467 L1086.687,1159.467 L1106.687,1163.467 L1106.687,1193.729 A0,0 0 0 0 1106.687,1193.729 L1308.87,1193.729 A0,0 0 0 0 1308.87,1193.729 L1308.87,1135.206 L1298.87,1125.206 L1106.687,1125.206 A0,0 0 0 0 1106.687,1125.206" style="stroke:#D69E2E;stroke-width:0.5;" fill="#FFFAF0"/><path d="M1298.87,1125.206 L1298.87,1135.206 L1308.87,1135.206 L1298.87,1125.206" style="stroke:#D69E2E;stroke-width:0.5;" fill="#FFFAF0"/><text x="1112.687" y="1142.076" fill="#000" font-size="11" textLength="174.099" font-family="'Segoe UI'">The server accepted the write and is</text><text x="1112.687" y="1156.707" fill="#000" font-size="11" textLength="181" font-family="'Segoe UI'">certain to store the same thing again.</text><text x="1112.687" y="1171.337" fill="#000" font-size="11" textLength="167.03" font-family="'Segoe UI'">Starts and titles are compared, not</text><text x="1112.687" y="1185.968" fill="#000" font-size="11" textLength="181.183" font-family="'Segoe UI'">ends - an end is the next mark's start.</text><rect x="930.867" y="1133.506" width="155.82" height="51.922" fill="#F7FAFC" style="stroke:#4A5568;stroke-width:0.5;" rx="3" ry="3"/><text x="940.867" y="1156.456" fill="#1A202C" font-size="12" textLength="28.061" font-weight="700" font-family="'Segoe UI'">warn</text><text x="972.214" y="1156.456" fill="#1A202C" font-size="12" textLength="104.473" font-family="'Segoe UI'">- do not fail the file,</text><text x="940.867" y="1172.417" fill="#1A202C" font-size="12" textLength="79.031" font-family="'Segoe UI'">do not re-send</text><polygon points="982.856,1076.136,1034.698,1076.136,1046.698,1088.136,1034.698,1100.136,982.856,1100.136,970.856,1088.136,982.856,1076.136" fill="#FFF" style="stroke:#4A5568;stroke-width:0.5;stroke-linejoin:miter;stroke-miterlimit:10;"/><text x="1012.777" y="1112.006" fill="#4A5568" font-size="11" textLength="15.743" font-family="'Segoe UI'">yes</text><text x="982.856" y="1092.691" fill="#1A202C" font-size="11" textLength="51.842" font-family="'Segoe UI'">mismatch?</text><polygon points="1008.777,1213.729,1020.777,1225.729,1008.777,1237.729,996.777,1225.729,1008.777,1213.729" fill="#FFF" style="stroke:#4A5568;stroke-width:0.5;stroke-linejoin:miter;stroke-miterlimit:10;"/><rect x="1369.97" y="931.652" width="161.258" height="35.961" fill="#F7FAFC" style="stroke:#4A5568;stroke-width:0.5;" rx="3" ry="3"/><text x="1379.97" y="954.601" fill="#1A202C" font-size="12" textLength="141.258" font-family="'Segoe UI'">leave the server's list alone</text><polygon points="1229.688,1243.729,1241.688,1255.729,1229.688,1267.729,1217.688,1255.729,1229.688,1243.729" fill="#FFF" style="stroke:#4A5568;stroke-width:0.5;stroke-linejoin:miter;stroke-miterlimit:10;"/><rect x="1141.491" y="1299.729" width="176.393" height="35.961" fill="#F7FAFC" style="stroke:#4A5568;stroke-width:0.5;" rx="3" ry="3"/><text x="1151.491" y="1322.678" fill="#1A202C" font-size="12" textLength="156.393" font-family="'Segoe UI'">discard the downloaded copy</text><rect x="775.285" y="271.401" width="73.01" height="35.961" fill="#FFF" style="stroke:#4A5568;stroke-width:0.5;" rx="3" ry="3"/><text x="785.285" y="294.351" fill="#1A202C" font-size="12" textLength="53.01" font-family="'Segoe UI'">next book</text><polygon points="780.323,1375.69,843.256,1375.69,855.256,1387.69,843.256,1399.69,780.323,1399.69,768.323,1387.69,780.323,1375.69" fill="#FFF" style="stroke:#4A5568;stroke-width:0.5;stroke-linejoin:miter;stroke-miterlimit:10;"/><text x="780.323" y="1392.245" fill="#1A202C" font-size="11" textLength="62.933" font-family="'Segoe UI'">more books?</text><text x="855.256" y="1384.929" fill="#4A5568" font-size="11" textLength="15.743" font-family="'Segoe UI'">yes</text><path d="M842.789,1431.451 L842.789,1499.974 L1114.92,1499.974 L1114.92,1441.451 L1104.92,1431.451 L842.789,1431.451" style="stroke:#D69E2E;stroke-width:0.5;" fill="#FFFAF0"/><path d="M1104.92,1431.451 L1104.92,1441.451 L1114.92,1441.451 L1104.92,1431.451" style="stroke:#D69E2E;stroke-width:0.5;" fill="#FFFAF0"/><text x="848.789" y="1448.321" fill="#000" font-size="11" textLength="233.976" font-weight="700" font-family="'Segoe UI'">A push that never happens never fails the file</text><text x="1085.778" y="1448.321" fill="#000" font-size="11" font-family="'Segoe UI'">-</text><text x="848.789" y="1462.952" fill="#000" font-size="11" textLength="251.131" font-family="'Segoe UI'">an unmatched book, a server gone away. The marks</text><text x="848.789" y="1477.583" fill="#000" font-size="11" textLength="225.677" font-family="'Segoe UI'">are in the file by then, which is what was asked</text><text x="848.789" y="1492.213" fill="#000" font-size="11" textLength="37.437" font-family="'Segoe UI'">for first.</text><ellipse cx="811.789" cy="1465.712" rx="11" ry="11" fill="none" style="stroke:#222;stroke-width:1;"/><ellipse cx="811.789" cy="1465.712" rx="6" ry="6" fill="#222" style="stroke:#222;stroke-width:1;"/><line x1="811.789" y1="173.489" x2="811.789" y2="194.475" style="stroke:#4A5568;stroke-width:1;"/><polygon points="807.789,184.475,811.789,194.475,815.789,184.475,811.789,188.475" fill="#4A5568" style="stroke:#4A5568;stroke-width:1;stroke-linejoin:miter;stroke-miterlimit:10;"/><line x1="811.789" y1="74.621" x2="811.789" y2="121.567" style="stroke:#4A5568;stroke-width:1;"/><polygon points="807.789,111.567,811.789,121.567,815.789,111.567,811.789,115.567" fill="#4A5568" style="stroke:#4A5568;stroke-width:1;stroke-linejoin:miter;stroke-miterlimit:10;"/><line x1="1229.688" y1="419.262" x2="1229.688" y2="470.543" style="stroke:#4A5568;stroke-width:1;"/><polygon points="1225.688,460.543,1229.688,470.543,1233.688,460.543,1229.688,464.543" fill="#4A5568" style="stroke:#4A5568;stroke-width:1;stroke-linejoin:miter;stroke-miterlimit:10;"/><line x1="1229.688" y1="506.504" x2="1229.688" y2="526.504" style="stroke:#4A5568;stroke-width:1;"/><polygon points="1225.688,516.504,1229.688,526.504,1233.688,516.504,1229.688,520.504" fill="#4A5568" style="stroke:#4A5568;stroke-width:1;stroke-linejoin:miter;stroke-miterlimit:10;"/><line x1="1229.688" y1="562.465" x2="1229.688" y2="648.62" style="stroke:#4A5568;stroke-width:1;"/><polygon points="1225.688,638.62,1229.688,648.62,1233.688,638.62,1229.688,642.62" fill="#4A5568" style="stroke:#4A5568;stroke-width:1;stroke-linejoin:miter;stroke-miterlimit:10;"/><line x1="1229.688" y1="684.581" x2="1229.688" y2="768.405" style="stroke:#4A5568;stroke-width:1;"/><polygon points="1225.688,758.405,1229.688,768.405,1233.688,758.405,1229.688,762.405" fill="#4A5568" style="stroke:#4A5568;stroke-width:1;stroke-linejoin:miter;stroke-miterlimit:10;"/><line x1="1008.777" y1="983.894" x2="1008.777" y2="1020.175" style="stroke:#4A5568;stroke-width:1;"/><polygon points="1004.777,1010.175,1008.777,1020.175,1012.777,1010.175,1008.777,1014.175" fill="#4A5568" style="stroke:#4A5568;stroke-width:1;stroke-linejoin:miter;stroke-miterlimit:10;"/><line x1="1008.777" y1="1100.136" x2="1008.777" y2="1133.506" style="stroke:#4A5568;stroke-width:1;"/><polygon points="1004.777,1123.506,1008.777,1133.506,1012.777,1123.506,1008.777,1127.506" fill="#4A5568" style="stroke:#4A5568;stroke-width:1;stroke-linejoin:miter;stroke-miterlimit:10;"/><line x1="1046.698" y1="1088.136" x2="1318.87" y2="1088.136" style="stroke:#4A5568;stroke-width:1;"/><polygon points="1314.87,1149.467,1318.87,1159.467,1322.87,1149.467,1318.87,1153.467" fill="#4A5568" style="stroke:#4A5568;stroke-width:1;stroke-linejoin:miter;stroke-miterlimit:10;"/><line x1="1318.87" y1="1088.136" x2="1318.87" y2="1225.729" style="stroke:#4A5568;stroke-width:1;"/><line x1="1318.87" y1="1225.729" x2="1020.777" y2="1225.729" style="stroke:#4A5568;stroke-width:1;"/><polygon points="1030.777,1221.729,1020.777,1225.729,1030.777,1229.729,1026.777,1225.729" fill="#4A5568" style="stroke:#4A5568;stroke-width:1;stroke-linejoin:miter;stroke-miterlimit:10;"/><line x1="1008.777" y1="1185.428" x2="1008.777" y2="1213.729" style="stroke:#4A5568;stroke-width:1;"/><polygon points="1004.777,1203.729,1008.777,1213.729,1012.777,1203.729,1008.777,1207.729" fill="#4A5568" style="stroke:#4A5568;stroke-width:1;stroke-linejoin:miter;stroke-miterlimit:10;"/><line x1="1008.777" y1="1056.136" x2="1008.777" y2="1076.136" style="stroke:#4A5568;stroke-width:1;"/><polygon points="1004.777,1066.136,1008.777,1076.136,1012.777,1066.136,1008.777,1070.136" fill="#4A5568" style="stroke:#4A5568;stroke-width:1;stroke-linejoin:miter;stroke-miterlimit:10;"/><line x1="1138.467" y1="907.021" x2="1008.777" y2="907.021" style="stroke:#4A5568;stroke-width:1;"/><line x1="1008.777" y1="907.021" x2="1008.777" y2="947.933" style="stroke:#4A5568;stroke-width:1;"/><polygon points="1004.777,937.933,1008.777,947.933,1012.777,937.933,1008.777,941.933" fill="#4A5568" style="stroke:#4A5568;stroke-width:1;stroke-linejoin:miter;stroke-miterlimit:10;"/><line x1="1320.909" y1="907.021" x2="1450.599" y2="907.021" style="stroke:#4A5568;stroke-width:1;"/><line x1="1450.599" y1="907.021" x2="1450.599" y2="931.652" style="stroke:#4A5568;stroke-width:1;"/><polygon points="1446.599,921.652,1450.599,931.652,1454.599,921.652,1450.599,925.652" fill="#4A5568" style="stroke:#4A5568;stroke-width:1;stroke-linejoin:miter;stroke-miterlimit:10;"/><line x1="1008.777" y1="1237.729" x2="1008.777" y2="1255.729" style="stroke:#4A5568;stroke-width:1;"/><line x1="1008.777" y1="1255.729" x2="1217.688" y2="1255.729" style="stroke:#4A5568;stroke-width:1;"/><polygon points="1207.688,1251.729,1217.688,1255.729,1207.688,1259.729,1211.688,1255.729" fill="#4A5568" style="stroke:#4A5568;stroke-width:1;stroke-linejoin:miter;stroke-miterlimit:10;"/><line x1="1450.599" y1="967.613" x2="1450.599" y2="1255.729" style="stroke:#4A5568;stroke-width:1;"/><line x1="1450.599" y1="1255.729" x2="1241.688" y2="1255.729" style="stroke:#4A5568;stroke-width:1;"/><polygon points="1251.688,1251.729,1241.688,1255.729,1251.688,1259.729,1247.688,1255.729" fill="#4A5568" style="stroke:#4A5568;stroke-width:1;stroke-linejoin:miter;stroke-miterlimit:10;"/><line x1="1229.688" y1="804.366" x2="1229.688" y2="892.39" style="stroke:#4A5568;stroke-width:1;"/><polygon points="1225.688,882.39,1229.688,892.39,1233.688,882.39,1229.688,886.39" fill="#4A5568" style="stroke:#4A5568;stroke-width:1;stroke-linejoin:miter;stroke-miterlimit:10;"/><line x1="1229.688" y1="1267.729" x2="1229.688" y2="1299.729" style="stroke:#4A5568;stroke-width:1;"/><polygon points="1225.688,1289.729,1229.688,1299.729,1233.688,1289.729,1229.688,1293.729" fill="#4A5568" style="stroke:#4A5568;stroke-width:1;stroke-linejoin:miter;stroke-miterlimit:10;"/><line x1="99.305" y1="351.362" x2="99.305" y2="402.274" style="stroke:#4A5568;stroke-width:1;"/><polygon points="95.305,392.274,99.305,402.274,103.305,392.274,99.305,396.274" fill="#4A5568" style="stroke:#4A5568;stroke-width:1;stroke-linejoin:miter;stroke-miterlimit:10;"/><line x1="99.305" y1="438.235" x2="99.305" y2="1355.69" style="stroke:#4A5568;stroke-width:1;"/><polygon points="95.305,1345.69,99.305,1355.69,103.305,1345.69,99.305,1349.69" fill="#4A5568" style="stroke:#4A5568;stroke-width:1;stroke-linejoin:miter;stroke-miterlimit:10;"/><line x1="511.082" y1="351.362" x2="511.082" y2="409.59" style="stroke:#4A5568;stroke-width:1;"/><polygon points="507.082,399.59,511.082,409.59,515.082,399.59,511.082,403.59" fill="#4A5568" style="stroke:#4A5568;stroke-width:1;stroke-linejoin:miter;stroke-miterlimit:10;"/><line x1="511.082" y1="445.551" x2="511.082" y2="1355.69" style="stroke:#4A5568;stroke-width:1;"/><polygon points="507.082,1345.69,511.082,1355.69,515.082,1345.69,511.082,1349.69" fill="#4A5568" style="stroke:#4A5568;stroke-width:1;stroke-linejoin:miter;stroke-miterlimit:10;"/><line x1="173.609" y1="339.362" x2="402.456" y2="339.362" style="stroke:#4A5568;stroke-width:1;"/><polygon points="392.456,335.362,402.456,339.362,392.456,343.362,396.456,339.362" fill="#4A5568" style="stroke:#4A5568;stroke-width:1;stroke-linejoin:miter;stroke-miterlimit:10;"/><line x1="811.789" y1="307.362" x2="811.789" y2="312.362" style="stroke:#4A5568;stroke-width:1;"/><line x1="811.789" y1="312.362" x2="99.305" y2="312.362" style="stroke:#4A5568;stroke-width:1;"/><line x1="99.305" y1="312.362" x2="99.305" y2="327.362" style="stroke:#4A5568;stroke-width:1;"/><polygon points="95.305,317.362,99.305,327.362,103.305,317.362,99.305,321.362" fill="#4A5568" style="stroke:#4A5568;stroke-width:1;stroke-linejoin:miter;stroke-miterlimit:10;"/><line x1="619.708" y1="339.362" x2="1229.688" y2="339.362" style="stroke:#4A5568;stroke-width:1;"/><line x1="1229.688" y1="339.362" x2="1229.688" y2="383.301" style="stroke:#4A5568;stroke-width:1;"/><polygon points="1225.688,373.301,1229.688,383.301,1233.688,373.301,1229.688,377.301" fill="#4A5568" style="stroke:#4A5568;stroke-width:1;stroke-linejoin:miter;stroke-miterlimit:10;"/><line x1="1229.688" y1="1335.69" x2="1229.688" y2="1355.69" style="stroke:#4A5568;stroke-width:1;"/><polygon points="1225.688,1345.69,1229.688,1355.69,1233.688,1345.69,1229.688,1349.69" fill="#4A5568" style="stroke:#4A5568;stroke-width:1;stroke-linejoin:miter;stroke-miterlimit:10;"/><line x1="99.305" y1="1355.69" x2="1229.688" y2="1355.69" style="stroke:#4A5568;stroke-width:1;"/><line x1="855.256" y1="1387.69" x2="1610.579" y2="1387.69" style="stroke:#4A5568;stroke-width:1;"/><polygon points="1606.579,846.429,1610.579,836.429,1614.579,846.429,1610.579,842.429" fill="#4A5568" style="stroke:#4A5568;stroke-width:1;stroke-linejoin:miter;stroke-miterlimit:10;"/><line x1="1610.579" y1="289.382" x2="1610.579" y2="1387.69" style="stroke:#4A5568;stroke-width:1;"/><line x1="1610.579" y1="289.382" x2="848.294" y2="289.382" style="stroke:#4A5568;stroke-width:1;"/><polygon points="858.294,285.382,848.294,289.382,858.294,293.382,854.294,289.382" fill="#4A5568" style="stroke:#4A5568;stroke-width:1;stroke-linejoin:miter;stroke-miterlimit:10;"/><line x1="811.789" y1="1355.69" x2="811.789" y2="1375.69" style="stroke:#4A5568;stroke-width:1;"/><polygon points="807.789,1365.69,811.789,1375.69,815.789,1365.69,811.789,1369.69" fill="#4A5568" style="stroke:#4A5568;stroke-width:1;stroke-linejoin:miter;stroke-miterlimit:10;"/><line x1="811.789" y1="230.436" x2="811.789" y2="271.401" style="stroke:#4A5568;stroke-width:1;"/><polygon points="807.789,261.401,811.789,271.401,815.789,261.401,811.789,265.401" fill="#4A5568" style="stroke:#4A5568;stroke-width:1;stroke-linejoin:miter;stroke-miterlimit:10;"/><line x1="811.789" y1="1399.69" x2="811.789" y2="1454.712" style="stroke:#4A5568;stroke-width:1;"/><polygon points="807.789,1444.712,811.789,1454.712,815.789,1444.712,811.789,1448.712" fill="#4A5568" style="stroke:#4A5568;stroke-width:1;stroke-linejoin:miter;stroke-miterlimit:10;"/><text x="815.789" y="1422.821" fill="#4A5568" font-size="11" textLength="12.67" font-family="'Segoe UI'">no</text><?plantuml-src XLV1RkCs4BtxAwQvT5Umd9wJD4KMHQzT87jSeA0aocPDaIf9nQiMss_lco4bszaiUaW0MHpEp9itRqO_6DVQgTFqHqoprJip3NQJJBAQ_grhrKIgIL7Z_P5wdTg3xgWFVg2dgJEUVuu7RVij3IeSTRSbvJgAsYLgL7lSR69I8Mr6_3F9U4St-4i7ZIFXHOSjUTTg6dMWCBaR-cT3T1VDtf5nMmhwhqd7PDmUn-miTi7i3ob-TkbW8jkGQjEaBDvEKSTxs3kVoZ4y4FtgJyvwXQXzM39IrZkzfMdi5Cxo2xuw7OBMOZFuJaSygqIdO9BUqRCljlKuMLjBEF0U1GknKHnAwoTaBeQ3cZcKnGbk6U8E9pNmuH0vqw2Zjo-w069rcto0NozmlvNCDUW0I7MH7ioZDOD9F__qS6iUAPqydTJCTUDxsR7Oml7e3S9JaMw0sCrsAOH1ibTl7U2veLhC8aUJ3cIDL2BIgFQQz9VHcXOicQzo-hhP13rgf7_dz9SaUN0QfgTtWm-SAN32xQGu4-gDrR-yvpWSlOj7CxuNdm2cHpcxUtbwXG7HXvawtPe8Fkte4t9e3sfCu137IAhhW6kK0kfYqO9cg8B3NqV93DeQnE1xGU1qy3RZj4MsnGAKh3awU4ge2rFtv2VR0NEXj5WMlyN4JKE382ApbbaD53GuFWE5oNKg25HN1D0sQeP6MQxaVDL3E79WvaSkPT2TVmkdKI7HZZpSK5Kr6bJMLKLTuJpilmFX4x1g0c9Y48hxEhlFvADX0fPCu6O1SMb_uwX74z2VV8B9YWQ-Y8Ehsyp51WzS8lJg67Izn4MS0hL21JGIerJEvy8lWiCOSn5gYoEMHW_EpRaEr-UJzs-2I-zEFXpX1UKjaAqnyEN2mkz2r0H_1E0fA1TxPCQAawkFNAkAfQkgjk0FQ7LEePcwlKvysEe-2K51V3mwG3KdNUCwT11kcWPTcWpo8OaIUkn2OxcLC-gHBn0ubB5JM4h2luYsAdi6juEI96vHT8Ee2Q1_WI9_Wn3GwFin-2OhaFMjicYLSSw8t0qwxFM5MlyOhplDkEz0LrNPW4x6nMtE3Fyiid2WPotr7xLeSZ5PrJKUH5qPLjCUBhA87FcvfHSFhBKSOiLUAf0gi9wzobMUBeOG6_Y0_k0E6CqeUe21u90VYjFbIIGWF3bbvx_nyYC3jQLdfkrkjxjVklvryc3EXsSP8LmpD5bxr9amAh0G000fMn6OrUeSXjEI6Rg9vo1IDw3HqzhLkbjjf4lWfR07gNKc7b6T8xZjqDpm54HFLfEpdZbj-3KTdJynEmD-qPrWpJ-j5gTCu0HiGLWXPbsg0zTIW9Zy63dlrKZoRtJh1nOnXN91WxiroJmZ0UKvhc3wL6WlRHzYOUmhpdxDrRoJoIndMRTYHkej7dzJeTzy61H8fP1MLU4rIiAD7KpBXU9qxouktYypOVMmjWD6kseK2rRcfdW5Afi5Q-x4ZiUAl1Mrarcz8jVtmwZt5qXWiW4whZS0ImfOXHKibcCc-BpquU8ecc74rJ8hbi5nmYHdZ33s_gSRU5EZgzJE_EVnj3HzXAoXe2CdXSqjO71OVzBTPxUqfrhKY8N_FB3mwlrQwBkFlpz_ebircbjPYcx_CTtNsoMX-_NS6ur5CkrPUUsCcYqC09QCcHHYK4TqFv-xiDfhe8YW1jqPLPUDRDruybn7KgGkR9ffBqoGePOzAPAzU2kxtfGEG811k31g-J1gvqWFOvgBJCOofZ0WfoGPxLQRAsgNtQSC9p6MsZ2x67WGzeoFx5GcWidjOOLwrl7zHJntLNLI8MjkvsMSym1P1-lsioi_OpfpcUulZDyiG2v14Lyil7gKbOhNg8mHGbtvNq3HWNai6fxo4eWRM4ioKTKURtTN9iyyP6FkAeOyzsg10Fs4qAxE8tBvJd62PncLie5o2wDHPMfV-lW6T_nW-aLlyke0USIQVKbTgzNBgucOTqx-eBZVlBvfaIg8CjesmtHMyLMYia5Pd26iKFAyBSicXjeYeLpP-j5XNM6rtMnwt2BVHbTrUcWUduYdQ1QDF4hGMwF6nqf-OWR4bG8FjysZR240RtB2fh83RaMsfT1xMTdnLP7tRT55Dk6vuDQhiDu83RUlfWChaOf7cLlyiLMqVId1Vm00?></g></svg>