<svg xmlns="http://www.w3.org/2000/svg" xmlns:xlink="http://www.w3.org/1999/xlink" version="1.1" data-diagram-type="ACTIVITY" style="width:854px;height:1805px;background:#FFFFFF;" width="854px" height="1805px" viewBox="0 0 854 1805" zoomAndPan="magnify" preserveAspectRatio="none" contentStyleType="text/css"><?plantuml 1.2026.7?><defs/><g font-family="sans-serif" lengthAdjust="spacing"><g class="title" data-source-line="2"><text x="199.258" y="35.107" fill="#000" font-size="14" textLength="453.688" font-weight="700" font-family="'Segoe UI'">Scan and Re-scan - full transcription where the numbering has a hole</text></g><ellipse cx="279.563" cy="64.621" rx="10" ry="10" fill="#2D3748" style="stroke:#222;stroke-width:1;"/><path d="M409.383,84.621 L409.383,129.514 L389.383,133.514 L409.383,137.514 L409.383,182.406 A0,0 0 0 0 409.383,182.406 L664.498,182.406 A0,0 0 0 0 664.498,182.406 L664.498,94.621 L654.498,84.621 L409.383,84.621 A0,0 0 0 0 409.383,84.621" style="stroke:#D69E2E;stroke-width:0.5;" fill="#FFFAF0"/><path d="M654.498,84.621 L654.498,94.621 L664.498,94.621 L654.498,84.621" style="stroke:#D69E2E;stroke-width:0.5;" fill="#FFFAF0"/><text x="415.383" y="101.491" fill="#000" font-size="11" textLength="234.115" font-family="'Segoe UI'">Between mismatched marks, and before the first</text><text x="415.383" y="116.122" fill="#000" font-size="11" textLength="200.557" font-family="'Segoe UI'">mark when it is not chapter 1 (or is below</text><text x="415.383" y="130.753" fill="#000" font-size="11" textLength="233.009" font-family="'Segoe UI'">--expected-start-chapter). The same mechanism</text><text x="415.383" y="145.384" fill="#000" font-size="11" textLength="222.583" font-family="'Segoe UI'">however the chapters were seeded - a --verify</text><text x="415.383" y="160.015" fill="#000" font-size="11" textLength="228.921" font-family="'Segoe UI'">recovery's confirmed marks are covered exactly</text><text x="415.383" y="174.646" fill="#000" font-size="11" textLength="104.586" font-family="'Segoe UI'">like a fresh run's own.</text><rect x="169.742" y="115.533" width="219.641" height="35.961" fill="#F7FAFC" style="stroke:#4A5568;stroke-width:0.5;" rx="3" ry="3"/><text x="179.742" y="138.482" fill="#1A202C" font-size="12" textLength="199.641" font-family="'Segoe UI'">find the gaps in the chapter sequence</text><rect x="160.454" y="249.776" width="262.217" height="295.805" fill="none" style="stroke:#A0AEC0;stroke-width:1.5;" rx="3" ry="3"/><path d="M196.657,249.776 L196.657,258.737 L186.657,268.737 L160.454,268.737" style="stroke:#A0AEC0;stroke-width:1.5;" fill="none"/><text x="163.454" y="263.726" fill="#2D3748" font-size="12" textLength="26.203" font-weight="700" font-family="'Segoe UI'">Scan</text><rect x="187.877" y="341.698" width="183.371" height="35.961" fill="#F7FAFC" style="stroke:#4A5568;stroke-width:0.5;" rx="3" ry="3"/><text x="197.877" y="364.647" fill="#1A202C" font-size="12" textLength="163.371" font-family="'Segoe UI'">transcribe the region in chunks</text><rect x="170.454" y="397.659" width="218.217" height="35.961" fill="#F7FAFC" style="stroke:#4A5568;stroke-width:0.5;" rx="3" ry="3"/><text x="180.454" y="420.608" fill="#1A202C" font-size="12" textLength="198.217" font-family="'Segoe UI'">match the missing numbers against it</text><rect x="172.778" y="453.62" width="213.57" height="35.961" fill="#F7FAFC" style="stroke:#4A5568;stroke-width:0.5;" rx="3" ry="3"/><text x="182.778" y="476.569" fill="#1A202C" font-size="12" textLength="193.57" font-family="'Segoe UI'">place whatever is found, renormalize</text><rect x="246.486" y="285.737" width="66.154" height="35.961" fill="#FFF" style="stroke:#4A5568;stroke-width:0.5;" rx="3" ry="3"/><text x="256.486" y="308.687" fill="#1A202C" font-size="12" textLength="46.154" font-family="'Segoe UI'">next gap</text><polygon points="251.238,509.581,307.887,509.581,319.887,521.581,307.887,533.581,251.238,533.581,239.238,521.581,251.238,509.581" fill="#FFF" style="stroke:#4A5568;stroke-width:0.5;stroke-linejoin:miter;stroke-miterlimit:10;"/><text x="251.238" y="526.136" fill="#1A202C" font-size="11" textLength="56.649" font-family="'Segoe UI'">more gaps?</text><text x="319.887" y="518.82" fill="#4A5568" font-size="11" textLength="15.743" font-family="'Segoe UI'">yes</text><polygon points="255.414,202.406,303.711,202.406,315.711,214.406,303.711,226.406,255.414,226.406,243.414,214.406,255.414,202.406" fill="#FFF" style="stroke:#4A5568;stroke-width:0.5;stroke-linejoin:miter;stroke-miterlimit:10;"/><text x="283.563" y="238.276" fill="#4A5568" font-size="11" textLength="15.743" font-family="'Segoe UI'">yes</text><text x="255.414" y="218.961" fill="#1A202C" font-size="11" textLength="48.297" font-family="'Segoe UI'">any gaps?</text><polygon points="279.563,571.473,291.563,583.473,279.563,595.473,267.563,583.473,279.563,571.473" fill="#FFF" style="stroke:#4A5568;stroke-width:0.5;stroke-linejoin:miter;stroke-miterlimit:10;"/><text x="285.563" y="568.712" fill="#4A5568" font-size="11" textLength="12.67" font-family="'Segoe UI'">no</text><polygon points="170.24,615.473,388.886,615.473,400.886,627.473,388.886,639.473,170.24,639.473,158.24,627.473,170.24,615.473" fill="#FFF" style="stroke:#4A5568;stroke-width:0.5;stroke-linejoin:miter;stroke-miterlimit:10;"/><text x="170.24" y="632.027" fill="#1A202C" font-size="11" textLength="218.646" font-family="'Segoe UI'">--upgrade-model is a deliberate downgrade?</text><text x="142.497" y="624.712" fill="#4A5568" font-size="11" textLength="15.743" font-family="'Segoe UI'">yes</text><text x="400.886" y="624.712" fill="#4A5568" font-size="11" textLength="12.67" font-family="'Segoe UI'">no</text><path d="M111.887,649.473 L111.887,687.05 L91.887,691.05 L111.887,695.05 L111.887,732.627 A0,0 0 0 0 111.887,732.627 L372.196,732.627 A0,0 0 0 0 372.196,732.627 L372.196,659.473 L362.196,649.473 L111.887,649.473 A0,0 0 0 0 111.887,649.473" style="stroke:#D69E2E;stroke-width:0.5;" fill="#FFFAF0"/><path d="M362.196,649.473 L362.196,659.473 L372.196,659.473 L362.196,649.473" style="stroke:#D69E2E;stroke-width:0.5;" fill="#FFFAF0"/><text x="117.887" y="666.343" fill="#000" font-size="11" textLength="239.309" font-family="'Segoe UI'">A lighter upgrade model is the one unambiguous</text><text x="117.887" y="680.974" fill="#000" font-size="11" textLength="204.263" font-family="'Segoe UI'">statement that this file's stragglers are not</text><text x="117.887" y="695.604" fill="#000" font-size="11" textLength="224.941" font-family="'Segoe UI'">worth more time, and doubling the cost of the</text><text x="117.887" y="710.235" fill="#000" font-size="11" textLength="196.469" font-family="'Segoe UI'">gap it just failed on would be exactly the</text><text x="117.887" y="724.866" fill="#000" font-size="11" textLength="45.021" font-family="'Segoe UI'">opposite.</text><rect x="16" y="673.069" width="75.887" height="35.961" fill="#F7FAFC" style="stroke:#4A5568;stroke-width:0.5;" rx="3" ry="3"/><text x="26" y="696.019" fill="#1A202C" font-size="12" textLength="55.887" font-family="'Segoe UI'">no re-scan</text><rect x="392.196" y="649.473" width="442.008" height="396.313" fill="none" style="stroke:#A0AEC0;stroke-width:1.5;" rx="3" ry="3"/><path d="M446.129,649.473 L446.129,658.434 L436.129,668.434 L392.196,668.434" style="stroke:#A0AEC0;stroke-width:1.5;" fill="none"/><text x="395.196" y="663.422" fill="#2D3748" font-size="12" textLength="43.934" font-weight="700" font-family="'Segoe UI'">Re-scan</text><path d="M588.467,685.434 L588.467,723.011 L568.467,727.011 L588.467,731.011 L588.467,768.588 A0,0 0 0 0 588.467,768.588 L824.204,768.588 A0,0 0 0 0 824.204,768.588 L824.204,695.434 L814.204,685.434 L588.467,685.434 A0,0 0 0 0 588.467,685.434" style="stroke:#D69E2E;stroke-width:0.5;" fill="#FFFAF0"/><path d="M814.204,685.434 L814.204,695.434 L824.204,695.434 L814.204,685.434" style="stroke:#D69E2E;stroke-width:0.5;" fill="#FFFAF0"/><text x="594.467" y="702.304" fill="#000" font-size="11" textLength="213.984" font-family="'Segoe UI'">Not carried over from the loop above: a gap</text><text x="594.467" y="716.935" fill="#000" font-size="11" textLength="211.256" font-family="'Segoe UI'">Scan closed only in part has become one or</text><text x="594.467" y="731.565" fill="#000" font-size="11" textLength="214.736" font-family="'Segoe UI'">more narrower gaps around what it did find,</text><text x="594.467" y="746.196" fill="#000" font-size="11" textLength="190.518" font-family="'Segoe UI'">and those remainders - not the original</text><text x="594.467" y="760.827" fill="#000" font-size="11" textLength="173.819" font-family="'Segoe UI'">span - are what is left to read again.</text><rect x="441.897" y="709.03" width="126.57" height="35.961" fill="#F7FAFC" style="stroke:#4A5568;stroke-width:0.5;" rx="3" ry="3"/><text x="451.897" y="731.979" fill="#1A202C" font-size="12" textLength="106.57" font-family="'Segoe UI'">recompute the gaps</text><rect x="412.196" y="893.864" width="185.973" height="51.922" fill="#F7FAFC" style="stroke:#4A5568;stroke-width:0.5;" rx="3" ry="3"/><text x="422.196" y="916.813" fill="#1A202C" font-size="12" textLength="165.973" font-family="'Segoe UI'">read it again with every decode</text><text x="422.196" y="932.774" fill="#1A202C" font-size="12" textLength="142.828" font-family="'Segoe UI'">displaced by half a window</text><polygon points="450.73,844.549,559.634,844.549,571.634,856.549,559.634,868.549,450.73,868.549,438.73,856.549,450.73,844.549" fill="#FFF" style="stroke:#4A5568;stroke-width:0.5;stroke-linejoin:miter;stroke-miterlimit:10;"/><text x="509.182" y="880.419" fill="#4A5568" font-size="11" textLength="15.743" font-family="'Segoe UI'">yes</text><text x="450.73" y="861.104" fill="#1A202C" font-size="11" textLength="108.904" font-family="'Segoe UI'">room left for the shift?</text><polygon points="505.182,965.786,517.182,977.786,505.182,989.786,493.182,977.786,505.182,965.786" fill="#FFF" style="stroke:#4A5568;stroke-width:0.5;stroke-linejoin:miter;stroke-miterlimit:10;"/><rect x="445.547" y="788.588" width="119.27" height="35.961" fill="#FFF" style="stroke:#4A5568;stroke-width:0.5;" rx="3" ry="3"/><text x="455.547" y="811.537" fill="#1A202C" font-size="12" textLength="99.27" font-family="'Segoe UI'">next still-open gap</text><polygon points="489.969,1009.786,520.396,1009.786,532.396,1021.786,520.396,1033.786,489.969,1033.786,477.969,1021.786,489.969,1009.786" fill="#FFF" style="stroke:#4A5568;stroke-width:0.5;stroke-linejoin:miter;stroke-miterlimit:10;"/><text x="489.969" y="1026.341" fill="#1A202C" font-size="11" textLength="30.427" font-family="'Segoe UI'">more?</text><text x="532.396" y="1019.025" fill="#4A5568" font-size="11" textLength="15.743" font-family="'Segoe UI'">yes</text><polygon points="279.563,1059.678,291.563,1071.678,279.563,1083.678,267.563,1071.678,279.563,1059.678" fill="#FFF" style="stroke:#4A5568;stroke-width:0.5;stroke-linejoin:miter;stroke-miterlimit:10;"/><text x="291.563" y="1068.917" fill="#4A5568" font-size="11" textLength="12.67" font-family="'Segoe UI'">no</text><rect x="58.68" y="1151.048" width="708.499" height="320.531" fill="none" style="stroke:#A0AEC0;stroke-width:1.5;" rx="3" ry="3"/><path d="M147.875,1151.048 L147.875,1160.009 L137.875,1170.009 L58.68,1170.009" style="stroke:#A0AEC0;stroke-width:1.5;" fill="none"/><text x="61.68" y="1164.997" fill="#2D3748" font-size="12" textLength="79.195" font-weight="700" font-family="'Segoe UI'">Scan (trailing)</text><path d="M414.926,1180.009 L414.926,1217.586 L394.926,1221.586 L414.926,1225.586 L414.926,1263.163 A0,0 0 0 0 414.926,1263.163 L656.442,1263.163 A0,0 0 0 0 656.442,1263.163 L656.442,1190.009 L646.442,1180.009 L414.926,1180.009 A0,0 0 0 0 414.926,1180.009" style="stroke:#D69E2E;stroke-width:0.5;" fill="#FFFAF0"/><path d="M646.442,1180.009 L646.442,1190.009 L656.442,1190.009 L646.442,1180.009" style="stroke:#D69E2E;stroke-width:0.5;" fill="#FFFAF0"/><text x="420.926" y="1196.879" fill="#000" font-size="11" textLength="220.516" font-family="'Segoe UI'">The one thing gap-finding structurally cannot</text><text x="420.926" y="1211.51" fill="#000" font-size="11" textLength="190.008" font-family="'Segoe UI'">flag: nothing bounds a still-missing last</text><text x="420.926" y="1226.141" fill="#000" font-size="11" textLength="217.782" font-family="'Segoe UI'">chapter from above to compare against. Two</text><text x="420.926" y="1240.771" fill="#000" font-size="11" textLength="208.28" font-family="'Segoe UI'">independent things ask for it and both end</text><text x="420.926" y="1255.402" fill="#000" font-size="11" textLength="39.644" font-family="'Segoe UI'">up here.</text><rect x="164.199" y="1203.605" width="230.727" height="35.961" fill="#F7FAFC" style="stroke:#4A5568;stroke-width:0.5;" rx="3" ry="3"/><text x="174.199" y="1226.555" fill="#1A202C" font-size="12" textLength="210.727" font-family="'Segoe UI'">transcribe from the last mark to the end</text><polygon points="184.991,1283.163,374.134,1283.163,386.134,1295.163,374.134,1307.163,184.991,1307.163,172.991,1295.163,184.991,1283.163" fill="#FFF" style="stroke:#4A5568;stroke-width:0.5;stroke-linejoin:miter;stroke-miterlimit:10;"/><text x="184.991" y="1299.718" fill="#1A202C" font-size="11" font-family="'Segoe UI'">a</text><text x="193.601" y="1299.718" fill="#1A202C" font-size="11" textLength="44.381" font-weight="700" font-family="'Segoe UI'">targeted</text><text x="240.996" y="1299.718" fill="#1A202C" font-size="11" textLength="133.139" font-family="'Segoe UI'">sweep, and no downgrade?</text><text x="157.249" y="1292.402" fill="#4A5568" font-size="11" textLength="15.743" font-family="'Segoe UI'">yes</text><text x="386.134" y="1292.402" fill="#4A5568" font-size="11" textLength="59.974" font-family="'Segoe UI'">open-ended</text><rect x="78.68" y="1317.163" width="168.623" height="35.961" fill="#F7FAFC" style="stroke:#4A5568;stroke-width:0.5;" rx="3" ry="3"/><text x="88.68" y="1340.112" fill="#1A202C" font-size="12" textLength="148.623" font-family="'Segoe UI'">a shifted re-read may follow</text><path d="M502.371,1317.163 L502.371,1369.371 L482.371,1373.371 L502.371,1377.371 L502.371,1429.579 A0,0 0 0 0 502.371,1429.579 L747.179,1429.579 A0,0 0 0 0 747.179,1429.579 L747.179,1327.163 L737.179,1317.163 L502.371,1317.163 A0,0 0 0 0 502.371,1317.163" style="stroke:#D69E2E;stroke-width:0.5;" fill="#FFFAF0"/><path d="M737.179,1317.163 L737.179,1327.163 L747.179,1327.163 L737.179,1317.163" style="stroke:#D69E2E;stroke-width:0.5;" fill="#FFFAF0"/><text x="508.371" y="1334.033" fill="#000" font-size="11" textLength="206.223" font-family="'Segoe UI'">The open-ended scan runs on every file by</text><text x="508.371" y="1348.664" fill="#000" font-size="11" textLength="187.209" font-family="'Segoe UI'">default, and a second reading of audio</text><text x="508.371" y="1363.295" fill="#000" font-size="11" textLength="219.441" font-family="'Segoe UI'">nothing suspects would double that standing</text><text x="508.371" y="1377.926" fill="#000" font-size="11" textLength="181.199" font-family="'Segoe UI'">cost for the whole library. It is not left</text><text x="508.371" y="1392.557" fill="#000" font-size="11" textLength="217.626" font-family="'Segoe UI'">unprotected: snapping its own seams is what</text><text x="508.371" y="1407.188" fill="#000" font-size="11" textLength="223.808" font-family="'Segoe UI'">keeps an announcement off a chunk border in</text><text x="508.371" y="1421.818" fill="#000" font-size="11" textLength="68.003" font-family="'Segoe UI'">the first place.</text><rect x="309.898" y="1347.41" width="172.473" height="51.922" fill="#F7FAFC" style="stroke:#4A5568;stroke-width:0.5;" rx="3" ry="3"/><text x="319.898" y="1370.359" fill="#1A202C" font-size="12" textLength="152.473" font-family="'Segoe UI'">one pass only, its own seams</text><text x="319.898" y="1386.32" fill="#1A202C" font-size="12" textLength="103.992" font-family="'Segoe UI'">snapped to silences</text><polygon points="279.563,1435.579,291.563,1447.579,279.563,1459.579,267.563,1447.579,279.563,1435.579" fill="#FFF" style="stroke:#4A5568;stroke-width:0.5;stroke-linejoin:miter;stroke-miterlimit:10;"/><polygon points="219.745,1103.678,339.381,1103.678,351.381,1115.678,339.381,1127.678,219.745,1127.678,207.745,1115.678,219.745,1103.678" fill="#FFF" style="stroke:#4A5568;stroke-width:0.5;stroke-linejoin:miter;stroke-miterlimit:10;"/><text x="283.563" y="1139.548" fill="#4A5568" font-size="11" textLength="15.743" font-family="'Segoe UI'">yes</text><text x="219.745" y="1120.232" fill="#1A202C" font-size="11" textLength="119.636" font-family="'Segoe UI'">a trailing region to read?</text><polygon points="279.563,1491.579,291.563,1503.579,279.563,1515.579,267.563,1503.579,279.563,1491.579" fill="#FFF" style="stroke:#4A5568;stroke-width:0.5;stroke-linejoin:miter;stroke-miterlimit:10;"/><path d="M310.563,1525.579 L310.563,1784.304 L590.734,1784.304 L590.734,1535.579 L580.734,1525.579 L310.563,1525.579" style="stroke:#D69E2E;stroke-width:0.5;" fill="#FFFAF0"/><path d="M580.734,1525.579 L580.734,1535.579 L590.734,1535.579 L580.734,1525.579" style="stroke:#D69E2E;stroke-width:0.5;" fill="#FFFAF0"/><text x="316.563" y="1542.449" fill="#000" font-size="11" textLength="106.482" font-weight="700" font-family="'Segoe UI'">Why the shift works.</text><text x="426.058" y="1542.449" fill="#000" font-size="11" textLength="146.749" font-family="'Segoe UI'">An announcement sitting on a</text><text x="316.563" y="1557.08" fill="#000" font-size="11" textLength="226.134" font-family="'Segoe UI'">chunk boundary can vanish from the transcript</text><text x="316.563" y="1571.711" fill="#000" font-size="11" textLength="225.559" font-family="'Segoe UI'">entirely while the timeline stays contiguous, so</text><text x="316.563" y="1586.342" fill="#000" font-size="11" textLength="229.373" font-family="'Segoe UI'">the text reads as if nothing were missing. Half a</text><text x="316.563" y="1600.973" fill="#000" font-size="11" textLength="255.363" font-family="'Segoe UI'">window is the displacement that moves whatever sat</text><text x="316.563" y="1615.604" fill="#000" font-size="11" textLength="211.621" font-family="'Segoe UI'">on a boundary as far from one as it can get.</text><text x="316.563" y="1630.234" fill="#000" font-size="11" font-family="'Segoe UI'"> </text><text x="316.563" y="1644.865" fill="#000" font-size="11" textLength="97.587" font-family="'Segoe UI'">Shifting the region's</text><text x="417.163" y="1644.865" fill="#000" font-size="11" textLength="23.697" font-weight="700" font-family="'Segoe UI'">start</text><text x="443.874" y="1644.865" fill="#000" font-size="11" textLength="113.271" font-family="'Segoe UI'">rather than re-planning</text><text x="316.563" y="1659.496" fill="#000" font-size="11" textLength="242.193" font-family="'Segoe UI'">its chunks is what makes this cheap and hole-free:</text><text x="316.563" y="1674.127" fill="#000" font-size="11" textLength="241.5" font-family="'Segoe UI'">the first attempt already covered every second, so</text><text x="316.563" y="1688.758" fill="#000" font-size="11" textLength="214.484" font-family="'Segoe UI'">the head this skips is not unread, merely not</text><text x="316.563" y="1703.389" fill="#000" font-size="11" textLength="38.011" font-family="'Segoe UI'">re-read.</text><text x="316.563" y="1718.02" fill="#000" font-size="11" font-family="'Segoe UI'"> </text><text x="316.563" y="1732.65" fill="#000" font-size="11" textLength="259.171" font-family="'Segoe UI'">Neither attempt snaps its seams where the other may</text><text x="316.563" y="1747.281" fill="#000" font-size="11" textLength="237.085" font-family="'Segoe UI'">run - otherwise seam snapping could land a later</text><text x="316.563" y="1761.912" fill="#000" font-size="11" textLength="227.552" font-family="'Segoe UI'">chunk back on its original border and hand the</text><text x="316.563" y="1776.543" fill="#000" font-size="11" textLength="208.909" font-family="'Segoe UI'">re-read the framing that had already failed.</text><ellipse cx="279.563" cy="1654.941" rx="11" ry="11" fill="none" style="stroke:#222;stroke-width:1;"/><ellipse cx="279.563" cy="1654.941" rx="6" ry="6" fill="#222" style="stroke:#222;stroke-width:1;"/><line x1="279.563" y1="74.621" x2="279.563" y2="115.533" style="stroke:#4A5568;stroke-width:1;"/><polygon points="275.563,105.533,279.563,115.533,283.563,105.533,279.563,109.533" fill="#4A5568" style="stroke:#4A5568;stroke-width:1;stroke-linejoin:miter;stroke-miterlimit:10;"/><line x1="279.563" y1="377.659" x2="279.563" y2="397.659" style="stroke:#4A5568;stroke-width:1;"/><polygon points="275.563,387.659,279.563,397.659,283.563,387.659,279.563,391.659" fill="#4A5568" style="stroke:#4A5568;stroke-width:1;stroke-linejoin:miter;stroke-miterlimit:10;"/><line x1="279.563" y1="433.62" x2="279.563" y2="453.62" style="stroke:#4A5568;stroke-width:1;"/><polygon points="275.563,443.62,279.563,453.62,283.563,443.62,279.563,447.62" fill="#4A5568" style="stroke:#4A5568;stroke-width:1;stroke-linejoin:miter;stroke-miterlimit:10;"/><line x1="279.563" y1="321.698" x2="279.563" y2="341.698" style="stroke:#4A5568;stroke-width:1;"/><polygon points="275.563,331.698,279.563,341.698,283.563,331.698,279.563,335.698" fill="#4A5568" style="stroke:#4A5568;stroke-width:1;stroke-linejoin:miter;stroke-miterlimit:10;"/><line x1="319.887" y1="521.581" x2="400.671" y2="521.581" style="stroke:#4A5568;stroke-width:1;"/><polygon points="396.671,422.649,400.671,412.649,404.671,422.649,400.671,418.649" fill="#4A5568" style="stroke:#4A5568;stroke-width:1;stroke-linejoin:miter;stroke-miterlimit:10;"/><line x1="400.671" y1="303.718" x2="400.671" y2="521.581" style="stroke:#4A5568;stroke-width:1;"/><line x1="400.671" y1="303.718" x2="312.64" y2="303.718" style="stroke:#4A5568;stroke-width:1;"/><polygon points="322.64,299.718,312.64,303.718,322.64,307.718,318.64,303.718" fill="#4A5568" style="stroke:#4A5568;stroke-width:1;stroke-linejoin:miter;stroke-miterlimit:10;"/><line x1="279.563" y1="489.581" x2="279.563" y2="509.581" style="stroke:#4A5568;stroke-width:1;"/><polygon points="275.563,499.581,279.563,509.581,283.563,499.581,279.563,503.581" fill="#4A5568" style="stroke:#4A5568;stroke-width:1;stroke-linejoin:miter;stroke-miterlimit:10;"/><line x1="279.563" y1="226.406" x2="279.563" y2="285.737" style="stroke:#4A5568;stroke-width:1;"/><polygon points="275.563,275.737,279.563,285.737,283.563,275.737,279.563,279.737" fill="#4A5568" style="stroke:#4A5568;stroke-width:1;stroke-linejoin:miter;stroke-miterlimit:10;"/><line x1="315.711" y1="214.406" x2="432.671" y2="214.406" style="stroke:#4A5568;stroke-width:1;"/><polygon points="428.671,398.994,432.671,408.994,436.671,398.994,432.671,402.994" fill="#4A5568" style="stroke:#4A5568;stroke-width:1;stroke-linejoin:miter;stroke-miterlimit:10;"/><line x1="432.671" y1="214.406" x2="432.671" y2="583.473" style="stroke:#4A5568;stroke-width:1;"/><line x1="432.671" y1="583.473" x2="291.563" y2="583.473" style="stroke:#4A5568;stroke-width:1;"/><polygon points="301.563,579.473,291.563,583.473,301.563,587.473,297.563,583.473" fill="#4A5568" style="stroke:#4A5568;stroke-width:1;stroke-linejoin:miter;stroke-miterlimit:10;"/><line x1="279.563" y1="533.581" x2="279.563" y2="571.473" style="stroke:#4A5568;stroke-width:1;"/><polygon points="275.563,561.473,279.563,571.473,283.563,561.473,279.563,565.473" fill="#4A5568" style="stroke:#4A5568;stroke-width:1;stroke-linejoin:miter;stroke-miterlimit:10;"/><line x1="279.563" y1="151.494" x2="279.563" y2="202.406" style="stroke:#4A5568;stroke-width:1;"/><polygon points="275.563,192.406,279.563,202.406,283.563,192.406,279.563,196.406" fill="#4A5568" style="stroke:#4A5568;stroke-width:1;stroke-linejoin:miter;stroke-miterlimit:10;"/><line x1="505.182" y1="868.549" x2="505.182" y2="893.864" style="stroke:#4A5568;stroke-width:1;"/><polygon points="501.182,883.864,505.182,893.864,509.182,883.864,505.182,887.864" fill="#4A5568" style="stroke:#4A5568;stroke-width:1;stroke-linejoin:miter;stroke-miterlimit:10;"/><line x1="571.634" y1="856.549" x2="608.168" y2="856.549" style="stroke:#4A5568;stroke-width:1;"/><polygon points="604.168,909.825,608.168,919.825,612.168,909.825,608.168,913.825" fill="#4A5568" style="stroke:#4A5568;stroke-width:1;stroke-linejoin:miter;stroke-miterlimit:10;"/><line x1="608.168" y1="856.549" x2="608.168" y2="977.786" style="stroke:#4A5568;stroke-width:1;"/><line x1="608.168" y1="977.786" x2="517.182" y2="977.786" style="stroke:#4A5568;stroke-width:1;"/><polygon points="527.182,973.786,517.182,977.786,527.182,981.786,523.182,977.786" fill="#4A5568" style="stroke:#4A5568;stroke-width:1;stroke-linejoin:miter;stroke-miterlimit:10;"/><line x1="505.182" y1="945.786" x2="505.182" y2="965.786" style="stroke:#4A5568;stroke-width:1;"/><polygon points="501.182,955.786,505.182,965.786,509.182,955.786,505.182,959.786" fill="#4A5568" style="stroke:#4A5568;stroke-width:1;stroke-linejoin:miter;stroke-miterlimit:10;"/><line x1="505.182" y1="824.549" x2="505.182" y2="844.549" style="stroke:#4A5568;stroke-width:1;"/><polygon points="501.182,834.549,505.182,844.549,509.182,834.549,505.182,838.549" fill="#4A5568" style="stroke:#4A5568;stroke-width:1;stroke-linejoin:miter;stroke-miterlimit:10;"/><line x1="532.396" y1="1021.786" x2="632.168" y2="1021.786" style="stroke:#4A5568;stroke-width:1;"/><polygon points="628.168,926.835,632.168,916.835,636.168,926.835,632.168,922.835" fill="#4A5568" style="stroke:#4A5568;stroke-width:1;stroke-linejoin:miter;stroke-miterlimit:10;"/><line x1="632.168" y1="806.568" x2="632.168" y2="1021.786" style="stroke:#4A5568;stroke-width:1;"/><line x1="632.168" y1="806.568" x2="564.817" y2="806.568" style="stroke:#4A5568;stroke-width:1;"/><polygon points="574.817,802.568,564.817,806.568,574.817,810.568,570.817,806.568" fill="#4A5568" style="stroke:#4A5568;stroke-width:1;stroke-linejoin:miter;stroke-miterlimit:10;"/><line x1="505.182" y1="989.786" x2="505.182" y2="1009.786" style="stroke:#4A5568;stroke-width:1;"/><polygon points="501.182,999.786,505.182,1009.786,509.182,999.786,505.182,1003.786" fill="#4A5568" style="stroke:#4A5568;stroke-width:1;stroke-linejoin:miter;stroke-miterlimit:10;"/><line x1="505.182" y1="744.991" x2="505.182" y2="788.588" style="stroke:#4A5568;stroke-width:1;"/><polygon points="501.182,778.588,505.182,788.588,509.182,778.588,505.182,782.588" fill="#4A5568" style="stroke:#4A5568;stroke-width:1;stroke-linejoin:miter;stroke-miterlimit:10;"/><line x1="158.24" y1="627.473" x2="53.943" y2="627.473" style="stroke:#4A5568;stroke-width:1;"/><line x1="53.943" y1="627.473" x2="53.943" y2="673.069" style="stroke:#4A5568;stroke-width:1;"/><polygon points="49.943,663.069,53.943,673.069,57.943,663.069,53.943,667.069" fill="#4A5568" style="stroke:#4A5568;stroke-width:1;stroke-linejoin:miter;stroke-miterlimit:10;"/><line x1="400.886" y1="627.473" x2="505.182" y2="627.473" style="stroke:#4A5568;stroke-width:1;"/><line x1="505.182" y1="627.473" x2="505.182" y2="709.03" style="stroke:#4A5568;stroke-width:1;"/><polygon points="501.182,699.03,505.182,709.03,509.182,699.03,505.182,703.03" fill="#4A5568" style="stroke:#4A5568;stroke-width:1;stroke-linejoin:miter;stroke-miterlimit:10;"/><line x1="53.943" y1="709.03" x2="53.943" y2="1071.678" style="stroke:#4A5568;stroke-width:1;"/><line x1="53.943" y1="1071.678" x2="267.563" y2="1071.678" style="stroke:#4A5568;stroke-width:1;"/><polygon points="257.563,1067.678,267.563,1071.678,257.563,1075.678,261.563,1071.678" fill="#4A5568" style="stroke:#4A5568;stroke-width:1;stroke-linejoin:miter;stroke-miterlimit:10;"/><line x1="505.182" y1="1033.786" x2="505.182" y2="1071.678" style="stroke:#4A5568;stroke-width:1;"/><line x1="505.182" y1="1071.678" x2="291.563" y2="1071.678" style="stroke:#4A5568;stroke-width:1;"/><polygon points="301.563,1067.678,291.563,1071.678,301.563,1075.678,297.563,1071.678" fill="#4A5568" style="stroke:#4A5568;stroke-width:1;stroke-linejoin:miter;stroke-miterlimit:10;"/><line x1="279.563" y1="595.473" x2="279.563" y2="615.473" style="stroke:#4A5568;stroke-width:1;"/><polygon points="275.563,605.473,279.563,615.473,283.563,605.473,279.563,609.473" fill="#4A5568" style="stroke:#4A5568;stroke-width:1;stroke-linejoin:miter;stroke-miterlimit:10;"/><line x1="172.991" y1="1295.163" x2="162.991" y2="1295.163" style="stroke:#4A5568;stroke-width:1;"/><line x1="162.991" y1="1295.163" x2="162.991" y2="1317.163" style="stroke:#4A5568;stroke-width:1;"/><polygon points="158.991,1307.163,162.991,1317.163,166.991,1307.163,162.991,1311.163" fill="#4A5568" style="stroke:#4A5568;stroke-width:1;stroke-linejoin:miter;stroke-miterlimit:10;"/><line x1="386.134" y1="1295.163" x2="396.134" y2="1295.163" style="stroke:#4A5568;stroke-width:1;"/><line x1="396.134" y1="1295.163" x2="396.134" y2="1347.41" style="stroke:#4A5568;stroke-width:1;"/><polygon points="392.134,1337.41,396.134,1347.41,400.134,1337.41,396.134,1341.41" fill="#4A5568" style="stroke:#4A5568;stroke-width:1;stroke-linejoin:miter;stroke-miterlimit:10;"/><line x1="162.991" y1="1353.124" x2="162.991" y2="1447.579" style="stroke:#4A5568;stroke-width:1;"/><line x1="162.991" y1="1447.579" x2="267.563" y2="1447.579" style="stroke:#4A5568;stroke-width:1;"/><polygon points="257.563,1443.579,267.563,1447.579,257.563,1451.579,261.563,1447.579" fill="#4A5568" style="stroke:#4A5568;stroke-width:1;stroke-linejoin:miter;stroke-miterlimit:10;"/><line x1="396.134" y1="1399.332" x2="396.134" y2="1447.579" style="stroke:#4A5568;stroke-width:1;"/><line x1="396.134" y1="1447.579" x2="291.563" y2="1447.579" style="stroke:#4A5568;stroke-width:1;"/><polygon points="301.563,1443.579,291.563,1447.579,301.563,1451.579,297.563,1447.579" fill="#4A5568" style="stroke:#4A5568;stroke-width:1;stroke-linejoin:miter;stroke-miterlimit:10;"/><line x1="279.563" y1="1239.566" x2="279.563" y2="1283.163" style="stroke:#4A5568;stroke-width:1;"/><polygon points="275.563,1273.163,279.563,1283.163,283.563,1273.163,279.563,1277.163" fill="#4A5568" style="stroke:#4A5568;stroke-width:1;stroke-linejoin:miter;stroke-miterlimit:10;"/><line x1="279.563" y1="1127.678" x2="279.563" y2="1203.605" style="stroke:#4A5568;stroke-width:1;"/><polygon points="275.563,1193.605,279.563,1203.605,283.563,1193.605,279.563,1197.605" fill="#4A5568" style="stroke:#4A5568;stroke-width:1;stroke-linejoin:miter;stroke-miterlimit:10;"/><line x1="351.381" y1="1115.678" x2="777.179" y2="1115.678" style="stroke:#4A5568;stroke-width:1;"/><polygon points="773.179,1294.313,777.179,1304.313,781.179,1294.313,777.179,1298.313" fill="#4A5568" style="stroke:#4A5568;stroke-width:1;stroke-linejoin:miter;stroke-miterlimit:10;"/><line x1="777.179" y1="1115.678" x2="777.179" y2="1503.579" style="stroke:#4A5568;stroke-width:1;"/><line x1="777.179" y1="1503.579" x2="291.563" y2="1503.579" style="stroke:#4A5568;stroke-width:1;"/><polygon points="301.563,1499.579,291.563,1503.579,301.563,1507.579,297.563,1503.579" fill="#4A5568" style="stroke:#4A5568;stroke-width:1;stroke-linejoin:miter;stroke-miterlimit:10;"/><line x1="279.563" y1="1459.579" x2="279.563" y2="1491.579" style="stroke:#4A5568;stroke-width:1;"/><polygon points="275.563,1481.579,279.563,1491.579,283.563,1481.579,279.563,1485.579" fill="#4A5568" style="stroke:#4A5568;stroke-width:1;stroke-linejoin:miter;stroke-miterlimit:10;"/><line x1="279.563" y1="1083.678" x2="279.563" y2="1103.678" style="stroke:#4A5568;stroke-width:1;"/><polygon points="275.563,1093.678,279.563,1103.678,283.563,1093.678,279.563,1097.678" fill="#4A5568" style="stroke:#4A5568;stroke-width:1;stroke-linejoin:miter;stroke-miterlimit:10;"/><line x1="279.563" y1="1515.579" x2="279.563" y2="1643.941" style="stroke:#4A5568;stroke-width:1;"/><polygon points="275.563,1633.941,279.563,1643.941,283.563,1633.941,279.563,1637.941" fill="#4A5568" style="stroke:#4A5568;stroke-width:1;stroke-linejoin:miter;stroke-miterlimit:10;"/><?plantuml-src ZLPDZzms3BtxLx2vT7UndgBNIR15UcelEJG1UWbGQ6nwh8uikP8SPrgqlxsFb3yccmJj9V5gH8fyV8_aDzOtRcgPValvwlXWfy5LsMR7zBOndenlwHUkatpNr4tEKOx6foRQCTlWQUuvCkMUoK_3YQFrP-fD8aDzS5nLAPkOgsDduKXkdSsOo7hzRdepPewK-8-9VSClAnyoKxJdFbT4FtAUcJqDDWqcDpstD9XuIOyQrOcxiBpSsPZ4G7wLW3pPJ3OHl6rlV4zt8ShXYLsOSVcVkkQF8pUPsrg3h9UhzmTw1wV934m3uz3ZVHZqOUOFy7GJUQ9Pia_CBOAhaJIyuexjhZ28t0JySVqsKHCyWXpM3CZ0Id_42NyqJNPYuEo5uQEBd7gAauTXcFsXOgGho5ILxUZE-AkY-CEzXEBfxihf7jOZSh1QanTIkXVq5mubYf5DfgFdZrdiNkefqN6juwc06FaijYXDqq_-ahPxYhrUGI6IrBTK6bcSZVK9KEVjykXCmwY1oOeLyEx2vDj7kFSX3iRPF_dbRLnpRy6rkq5gkMG5epKdelh91p7uMr2mNO40A4_ZEPgMwo6qxCJ443wGJCJJr08t_VqvI4SVyBBoMRn-mZUYroW1lX7uufuszv9_y4oJDyF9dgSm9JK1TJ8Fx3Dk6Fb7KaPAg5q2mkUpKwIG7TvIYpd4t9CcdEt0XSrjc4vEi5Ls1O0QElbM2-0YZFvzmd5duBmbKLwOdCXW9T1sFOnZI3Rp0Nzjr66N0BCFpvYoQ7ibor4uEunJvasifLhFW29w8zeoCLe9HahTnJ2eaGjX97F2uH55WOl5Glj9uqBIy14lg2QHQBiuoRi5uH0N0uN8umq8BvR6OQAmIVabYBIs9UaiZuk5qIQ35r3Z0Tni1VjQ-u3M3mbORznoEutQrAGsnM4Ynnsk2aLCM-XzqCiRZ9yfAcNhN1r6SEn6N4BI6028EaIZqlTJRxlyd96BSFH5fAIFqcn14L7G5QnkmC7t87zISQ7aLq3cEe0x8yKmhuyMWNnPM_zBLaPwkrKQBjrWWU8_MWtThNRt6v5kkilE30C2QvE6Npd0sr-Xrxj5Rj0JeW6ojTHPlg6ggSbJD0uKmkEhh8WwPyv7SQKs9s6Aj8LIeRLtIGpB_NKqQ7nAM8bB-2-KM9eRXi4Srgg2K2XqMzGERt2VBbfUgPmCfI1ry-rYC8qau_4B72fmFpnWy9mP8-ZXWHA6tLYw0PhKLpkOeciAbq06D3Ebpc2k2CIvbGv5xyBBMY9kDrD1TJGfgGOV4RWE6SmmCwJtFdapZd0B81B8Ww6y3OBFQhHKQNk2T4l0t1BV2tkb5OAmcqNBdPbSBcaY2v3RjyenAGvwdfbQ6xRhQp7Jb6HKfwNfQRVaqd7HW9KOcursprLoismXwEgdQEBrG3zlUu48SpEP_1YHdUm2Hr88vD5Fe14xwHARpGNLGlrbHVAWMbE6GEX4bpf1GOROoWpqcyssh91A-R0BTsV6gk9LcIc7iQew5qpMsNjRXLUdfr_xwzvRPBPSqk7LTwSdUlqiCam4TO3Ic8gs424I82D2eW-owVIxNFT5JmT9jf4XkT9Kz7TCBuYUfGHNtN5o6OoFbAI4UaTwf9HNf2AiNokgYzCYoWFzfFqCDgMZhGDtxNdxV1sWqhJl5qaB8YdjgU2TpYog5hBBkraJXD8E5Uw_5QpMOLiw7SRrmuEkWL0YLeXU5psXCzS8mVl2CA54MOzMFa1u5qvbxcD5nQGMPWlhQknnVAnkgsuoTeKH_pk1vBglWAgL8eORy7eHjdfE5pkcbRgJ5-j7BATQaD80bpwW-RrXgmcipmcZayPUgBplx47leNU8XqccePxCDh7UtSNGgF1SaQq3_74daMakKWFLop9YL_8h66KiynvbWIIQeHJ1o0xGRgYK5MTVU_y5?></g></svg>