<svg xmlns="http://www.w3.org/2000/svg" xmlns:xlink="http://www.w3.org/1999/xlink" version="1.1" data-diagram-type="CLASS" style="width:2204px;height:1066px;background:#FFFFFF;" width="2204px" height="1066px" viewBox="0 0 2204 1066" zoomAndPan="magnify" preserveAspectRatio="none" contentStyleType="text/css"><?plantuml 1.2026.7?><defs/><g font-family="sans-serif" lengthAdjust="spacing"><g class="title" data-source-line="2"><text x="926.852" y="25.107" fill="#000" font-size="14" textLength="343.438" font-weight="700" font-family="'Segoe UI'">Detection engine - the passes and what they borrow</text></g><!--class ChapterDetector--><g class="entity" data-qualified-name="ChapterDetector" id="ent0001" data-source-line="4"><rect x="1211.01" y="46.621" width="286.819" height="210.9" fill="#F7FAFC" style="stroke:#4A5568;stroke-width:0.5;" rx="3" ry="3"/><ellipse cx="1310.206" cy="66.917" rx="10" ry="10" fill="#ADD1B2" style="stroke:#181818;stroke-width:1;"/><path d="M1311.691,64.12 Q1311.8,63.964 1311.925,63.886 Q1312.066,63.808 1312.222,63.808 Q1312.488,63.808 1312.644,63.995 Q1312.816,64.183 1312.816,64.604 L1312.816,65.636 Q1312.816,66.058 1312.644,66.245 Q1312.488,66.433 1312.222,66.433 Q1311.972,66.433 1311.831,66.292 Q1311.691,66.167 1311.613,65.792 Q1311.581,65.542 1311.456,65.417 Q1311.206,65.151 1310.769,64.995 Q1310.347,64.839 1309.909,64.839 Q1309.378,64.839 1308.925,65.073 Q1308.472,65.308 1308.128,65.839 Q1307.784,66.354 1307.784,67.089 L1307.784,67.87 Q1307.784,68.729 1308.409,69.308 Q1309.05,69.886 1310.159,69.886 Q1310.831,69.886 1311.3,69.714 Q1311.566,69.604 1311.863,69.292 Q1312.05,69.104 1312.159,69.058 Q1312.269,68.995 1312.394,68.995 Q1312.644,68.995 1312.816,69.183 Q1313.003,69.354 1313.003,69.604 Q1313.003,69.854 1312.753,70.136 Q1312.394,70.542 1311.831,70.776 Q1311.081,71.089 1310.175,71.089 Q1309.097,71.089 1308.253,70.651 Q1307.55,70.308 1307.066,69.542 Q1306.581,68.776 1306.581,67.886 L1306.581,67.073 Q1306.581,66.136 1307.019,65.323 Q1307.456,64.511 1308.222,64.073 Q1309.003,63.636 1309.863,63.636 Q1310.394,63.636 1310.847,63.761 Q1311.3,63.87 1311.691,64.12 Z " fill="#000"/><text x="1346.981" y="64.57" fill="#718096" font-size="12" textLength="44.877" font-style="italic" font-family="Segoe UI">«sealed»</text><text x="1329.206" y="79.452" fill="#2D3748" font-size="11" textLength="80.427" font-family="'Segoe UI'">ChapterDetector</text><line x1="1212.01" y1="87.213" x2="1496.829" y2="87.213" style="stroke:#4A5568;stroke-width:0.5;"/><g data-visibility-modifier="PUBLIC_FIELD"><ellipse cx="1222.01" cy="100.028" rx="3" ry="3" fill="none" style="stroke:#038048;stroke-width:1;"/></g><text x="1230.01" y="103.083" fill="#2D3748" font-size="11" textLength="97.528" font-family="'Segoe UI'">Options : CliOptions</text><line x1="1212.01" y1="109.844" x2="1496.829" y2="109.844" style="stroke:#4A5568;stroke-width:1;"/><g data-visibility-modifier="PUBLIC_METHOD"><ellipse cx="1222.01" cy="122.659" rx="3" ry="3" fill="#84BE84" style="stroke:#038048;stroke-width:1;"/></g><text x="1230.01" y="125.714" fill="#2D3748" font-size="11" textLength="188.445" font-family="'Segoe UI'">DetectAsync() : Task&lt;DetectionResult></text><g data-visibility-modifier="PUBLIC_METHOD"><ellipse cx="1222.01" cy="137.29" rx="3" ry="3" fill="#84BE84" style="stroke:#038048;stroke-width:1;"/></g><text x="1230.01" y="140.345" fill="#2D3748" font-size="11" textLength="261.819" font-family="'Segoe UI'">ResumeMissingMarksAsync() : Task&lt;DetectionResult></text><g data-visibility-modifier="PUBLIC_METHOD"><ellipse cx="1222.01" cy="151.921" rx="3" ry="3" fill="#84BE84" style="stroke:#038048;stroke-width:1;"/></g><text x="1230.01" y="154.976" fill="#2D3748" font-size="11" textLength="245.389" font-family="'Segoe UI'">VerifyExistingChaptersAsync() : Task&lt;VerifyResult></text><g data-visibility-modifier="PACKAGE_PRIVATE_METHOD"><polygon points="1222.01,162.552,1218.01,168.552,1226.01,168.552" fill="#FFF" style="stroke:#A0AEC0;stroke-width:1;stroke-linejoin:miter;stroke-miterlimit:10;"/></g><text x="1230.01" y="169.606" fill="#2D3748" font-size="11" textLength="212.722" font-family="'Segoe UI'">DetectGapsAsync() : Task&lt;DetectionResult></text><line x1="1212.01" y1="176.367" x2="1496.829" y2="176.367" style="stroke:#4A5568;stroke-width:1;"/><text x="1230.01" y="192.237" fill="#2D3748" font-size="11" textLength="109.227" font-style="italic" font-family="'Segoe UI'">sequence repair (static)</text><g data-visibility-modifier="PACKAGE_PRIVATE_METHOD"><polygon points="1222.01,199.813,1218.01,205.813,1226.01,205.813" fill="#FFF" style="stroke:#A0AEC0;stroke-width:1;stroke-linejoin:miter;stroke-miterlimit:10;"/></g><text x="1230.01" y="206.868" fill="#2D3748" font-size="11" textLength="135.024" font-family="'Segoe UI'">SettleCollidingMarksAsync()</text><g data-visibility-modifier="PACKAGE_PRIVATE_METHOD"><polygon points="1222.01,214.444,1218.01,220.444,1226.01,220.444" fill="#FFF" style="stroke:#A0AEC0;stroke-width:1;stroke-linejoin:miter;stroke-miterlimit:10;"/></g><text x="1230.01" y="221.499" fill="#2D3748" font-size="11" textLength="150.842" font-family="'Segoe UI'">RepairSequenceOutliersAsync()</text><g data-visibility-modifier="PACKAGE_PRIVATE_METHOD"><polygon points="1222.01,229.075,1218.01,235.075,1226.01,235.075" fill="#FFF" style="stroke:#A0AEC0;stroke-width:1;stroke-linejoin:miter;stroke-miterlimit:10;"/></g><text x="1230.01" y="236.13" fill="#2D3748" font-size="11" textLength="125.12" font-family="'Segoe UI'">DropNamedMarkEchoes()</text><g data-visibility-modifier="PACKAGE_PRIVATE_METHOD"><polygon points="1222.01,243.706,1218.01,249.706,1226.01,249.706" fill="#FFF" style="stroke:#A0AEC0;stroke-width:1;stroke-linejoin:miter;stroke-miterlimit:10;"/></g><text x="1230.01" y="250.761" fill="#2D3748" font-size="11" textLength="136.463" font-family="'Segoe UI'">ResolveEpiloguePlacement()</text></g><g class="entity" data-qualified-name="GMN2" id="ent0003" data-source-line="19"><path d="M1532.68,106.181 L1532.68,148.071 L1498.19,152.071 L1532.68,156.071 L1532.68,197.966 A3,3 0 0 0 1535.68,200.966 L1823.166,200.966 A3,3 0 0 0 1826.166,197.966 L1826.166,113.181 L1816.166,103.181 L1535.68,103.181 A3,3 0 0 0 1532.68,106.181" style="stroke:#D69E2E;stroke-width:0.5;" fill="#FFFAF0"/><path d="M1816.166,103.181 L1816.166,111.681 A1.5,1.5 0 0 0 1817.666,113.181 L1826.166,113.181 L1816.166,103.181" style="stroke:#D69E2E;stroke-width:0.5;" fill="#FFFAF0"/><text x="1538.68" y="120.051" fill="#000" font-size="11" textLength="58.964" font-family="'Segoe UI'">Constructed</text><text x="1600.657" y="120.051" fill="#000" font-size="11" textLength="36.604" font-weight="700" font-family="'Segoe UI'">per file</text><text x="1637.261" y="120.051" fill="#000" font-size="11" textLength="133.584" font-family="'Segoe UI'">, not per run: a folder's own</text><text x="1538.68" y="134.682" fill="#000" font-size="11" textLength="106.579" font-weight="700" font-family="'Segoe UI'">.abchapterize-config</text><text x="1648.272" y="134.682" fill="#000" font-size="11" textLength="138.698" font-family="'Segoe UI'">may hand this file a different</text><text x="1538.68" y="149.313" fill="#000" font-size="11" textLength="264.354" font-family="'Segoe UI'">phrase, language or mark placement than the last one.</text><text x="1538.68" y="163.944" fill="#000" font-size="11" textLength="230.876" font-family="'Segoe UI'">That is what makes "no per-file state survives" a</text><text x="1538.68" y="178.575" fill="#000" font-size="11" textLength="272.486" font-family="'Segoe UI'">structural property rather than a matter of remembering</text><text x="1538.68" y="193.206" fill="#000" font-size="11" textLength="47.894" font-family="'Segoe UI'">to clear it.</text></g><!--class RegionProber--><g class="entity" data-qualified-name="RegionProber" id="ent0005" data-source-line="27"><rect x="1010.17" y="348.521" width="202.504" height="159.008" fill="#F7FAFC" style="stroke:#4A5568;stroke-width:0.5;" rx="3" ry="3"/><ellipse cx="1074.113" cy="368.817" rx="10" ry="10" fill="#ADD1B2" style="stroke:#181818;stroke-width:1;"/><path d="M1075.597,366.02 Q1075.707,365.864 1075.832,365.786 Q1075.972,365.708 1076.129,365.708 Q1076.394,365.708 1076.551,365.895 Q1076.722,366.083 1076.722,366.504 L1076.722,367.536 Q1076.722,367.958 1076.551,368.145 Q1076.394,368.333 1076.129,368.333 Q1075.879,368.333 1075.738,368.192 Q1075.597,368.067 1075.519,367.692 Q1075.488,367.442 1075.363,367.317 Q1075.113,367.051 1074.676,366.895 Q1074.254,366.739 1073.816,366.739 Q1073.285,366.739 1072.832,366.973 Q1072.379,367.208 1072.035,367.739 Q1071.691,368.254 1071.691,368.989 L1071.691,369.77 Q1071.691,370.629 1072.316,371.208 Q1072.957,371.786 1074.066,371.786 Q1074.738,371.786 1075.207,371.614 Q1075.472,371.504 1075.769,371.192 Q1075.957,371.004 1076.066,370.958 Q1076.176,370.895 1076.301,370.895 Q1076.551,370.895 1076.722,371.083 Q1076.91,371.254 1076.91,371.504 Q1076.91,371.754 1076.66,372.036 Q1076.301,372.442 1075.738,372.676 Q1074.988,372.989 1074.082,372.989 Q1073.004,372.989 1072.16,372.551 Q1071.457,372.208 1070.972,371.442 Q1070.488,370.676 1070.488,369.786 L1070.488,368.973 Q1070.488,368.036 1070.926,367.223 Q1071.363,366.411 1072.129,365.973 Q1072.91,365.536 1073.769,365.536 Q1074.301,365.536 1074.754,365.661 Q1075.207,365.77 1075.597,366.02 Z " fill="#000"/><text x="1103.983" y="366.47" fill="#718096" font-size="12" textLength="44.877" font-style="italic" font-family="Segoe UI">«sealed»</text><text x="1093.113" y="381.352" fill="#2D3748" font-size="11" textLength="66.618" font-family="'Segoe UI'">RegionProber</text><line x1="1011.17" y1="389.113" x2="1211.674" y2="389.113" style="stroke:#4A5568;stroke-width:0.5;"/><g data-visibility-modifier="PACKAGE_PRIVATE_FIELD"><polygon points="1021.17,397.928,1017.17,403.928,1025.17,403.928" fill="none" style="stroke:#A0AEC0;stroke-width:1;stroke-linejoin:miter;stroke-miterlimit:10;"/></g><text x="1029.17" y="404.983" fill="#2D3748" font-size="11" textLength="84.906" font-family="'Segoe UI'">ExpectAt : double</text><g data-visibility-modifier="PACKAGE_PRIVATE_FIELD"><polygon points="1021.17,412.559,1017.17,418.559,1025.17,418.559" fill="none" style="stroke:#A0AEC0;stroke-width:1;stroke-linejoin:miter;stroke-miterlimit:10;"/></g><text x="1029.17" y="419.614" fill="#2D3748" font-size="11" textLength="93.194" font-family="'Segoe UI'">EarlyAborted : bool</text><g data-visibility-modifier="PACKAGE_PRIVATE_FIELD"><polygon points="1021.17,427.19,1017.17,433.19,1025.17,433.19" fill="none" style="stroke:#A0AEC0;stroke-width:1;stroke-linejoin:miter;stroke-miterlimit:10;"/></g><text x="1029.17" y="434.245" fill="#2D3748" font-size="11" textLength="161.638" font-family="'Segoe UI'">BelowExpectedStartNumber : int?</text><g data-visibility-modifier="PACKAGE_PRIVATE_FIELD"><polygon points="1021.17,441.821,1017.17,447.821,1025.17,447.821" fill="none" style="stroke:#A0AEC0;stroke-width:1;stroke-linejoin:miter;stroke-miterlimit:10;"/></g><text x="1029.17" y="448.876" fill="#2D3748" font-size="11" textLength="177.504" font-family="'Segoe UI'">AdaptedThresholdSeconds : double?</text><g data-visibility-modifier="PACKAGE_PRIVATE_FIELD"><polygon points="1021.17,456.452,1017.17,462.452,1025.17,462.452" fill="none" style="stroke:#A0AEC0;stroke-width:1;stroke-linejoin:miter;stroke-miterlimit:10;"/></g><text x="1029.17" y="463.506" fill="#2D3748" font-size="11" textLength="105.692" font-family="'Segoe UI'">CustomLimitHit : bool</text><line x1="1011.17" y1="470.267" x2="1211.674" y2="470.267" style="stroke:#4A5568;stroke-width:1;"/><g data-visibility-modifier="PACKAGE_PRIVATE_METHOD"><polygon points="1021.17,479.083,1017.17,485.083,1025.17,485.083" fill="#FFF" style="stroke:#A0AEC0;stroke-width:1;stroke-linejoin:miter;stroke-miterlimit:10;"/></g><text x="1029.17" y="486.137" fill="#2D3748" font-size="11" textLength="83.966" font-family="'Segoe UI'">RunAsync() : Task</text><g data-visibility-modifier="PACKAGE_PRIVATE_METHOD"><polygon points="1021.17,493.713,1017.17,499.713,1025.17,499.713" fill="#FFF" style="stroke:#A0AEC0;stroke-width:1;stroke-linejoin:miter;stroke-miterlimit:10;"/></g><text x="1029.17" y="500.768" fill="#2D3748" font-size="11" textLength="174.824" font-family="'Segoe UI'">SequenceBounds() : NumberBounds</text></g><g class="entity" data-qualified-name="GMN6" id="ent0007" data-source-line="38"><path d="M990.57,624.451 L990.57,686.975 A3,3 0 0 0 993.57,689.975 L1229.268,689.975 A3,3 0 0 0 1232.268,686.975 L1232.268,631.451 L1222.268,621.451 L1115.42,621.451 L1111.42,507.961 L1107.42,621.451 L993.57,621.451 A3,3 0 0 0 990.57,624.451" style="stroke:#D69E2E;stroke-width:0.5;" fill="#FFFAF0"/><path d="M1222.268,621.451 L1222.268,629.951 A1.5,1.5 0 0 0 1223.768,631.451 L1232.268,631.451 L1222.268,621.451" style="stroke:#D69E2E;stroke-width:0.5;" fill="#FFFAF0"/><text x="996.57" y="638.321" fill="#000" font-size="11" textLength="58.964" font-family="'Segoe UI'">Constructed</text><text x="1058.547" y="638.321" fill="#000" font-size="11" textLength="53.829" font-weight="700" font-family="'Segoe UI'">per region</text><text x="1112.376" y="638.321" fill="#000" font-size="11" textLength="97.539" font-family="'Segoe UI'">. That is what makes</text><text x="996.57" y="652.952" fill="#000" font-size="11" textLength="214.387" font-family="'Segoe UI'">"every piece of per-region probe state starts</text><text x="996.57" y="667.583" fill="#000" font-size="11" textLength="220.698" font-family="'Segoe UI'">fresh" structural, not a reset somebody has to</text><text x="996.57" y="682.214" fill="#000" font-size="11" textLength="92.823" font-family="'Segoe UI'">remember to write.</text></g><!--class RegionScanner--><g class="entity" data-qualified-name="RegionScanner" id="ent0009" data-source-line="44"><rect x="263.58" y="392.411" width="237.69" height="71.223" fill="#F7FAFC" style="stroke:#4A5568;stroke-width:0.5;" rx="3" ry="3"/><ellipse cx="342.079" cy="412.707" rx="10" ry="10" fill="#ADD1B2" style="stroke:#181818;stroke-width:1;"/><path d="M343.563,409.91 Q343.673,409.754 343.798,409.676 Q343.938,409.598 344.094,409.598 Q344.36,409.598 344.516,409.785 Q344.688,409.973 344.688,410.394 L344.688,411.426 Q344.688,411.848 344.516,412.035 Q344.36,412.223 344.094,412.223 Q343.844,412.223 343.704,412.082 Q343.563,411.957 343.485,411.582 Q343.454,411.332 343.329,411.207 Q343.079,410.941 342.641,410.785 Q342.219,410.629 341.782,410.629 Q341.251,410.629 340.798,410.863 Q340.344,411.098 340.001,411.629 Q339.657,412.144 339.657,412.879 L339.657,413.66 Q339.657,414.519 340.282,415.098 Q340.923,415.676 342.032,415.676 Q342.704,415.676 343.173,415.504 Q343.438,415.394 343.735,415.082 Q343.923,414.894 344.032,414.848 Q344.141,414.785 344.266,414.785 Q344.516,414.785 344.688,414.973 Q344.876,415.144 344.876,415.394 Q344.876,415.644 344.626,415.926 Q344.266,416.332 343.704,416.566 Q342.954,416.879 342.048,416.879 Q340.969,416.879 340.126,416.441 Q339.423,416.098 338.938,415.332 Q338.454,414.566 338.454,413.676 L338.454,412.863 Q338.454,411.926 338.891,411.113 Q339.329,410.301 340.094,409.863 Q340.876,409.426 341.735,409.426 Q342.266,409.426 342.719,409.551 Q343.173,409.66 343.563,409.91 Z " fill="#000"/><text x="374.986" y="410.36" fill="#718096" font-size="12" textLength="44.877" font-style="italic" font-family="Segoe UI">«sealed»</text><text x="361.079" y="425.242" fill="#2D3748" font-size="11" textLength="72.692" font-family="'Segoe UI'">RegionScanner</text><line x1="264.58" y1="433.003" x2="500.27" y2="433.003" style="stroke:#4A5568;stroke-width:0.5;"/><line x1="264.58" y1="441.003" x2="500.27" y2="441.003" style="stroke:#4A5568;stroke-width:0.5;"/><g data-visibility-modifier="PACKAGE_PRIVATE_METHOD"><polygon points="274.58,449.818,270.58,455.818,278.58,455.818" fill="#FFF" style="stroke:#A0AEC0;stroke-width:1;stroke-linejoin:miter;stroke-miterlimit:10;"/></g><text x="282.58" y="456.873" fill="#2D3748" font-size="11" textLength="212.69" font-family="'Segoe UI'">RunAsync() : Task&lt;List&lt;DetectedChapter>></text></g><g class="entity" data-qualified-name="GMN10" id="ent0011" data-source-line="48"><path d="M536.06,411.391 L536.06,424.021 L501.62,428.021 L536.06,432.021 L536.06,444.653 A3,3 0 0 0 539.06,447.653 L809.772,447.653 A3,3 0 0 0 812.772,444.653 L812.772,418.391 L802.772,408.391 L539.06,408.391 A3,3 0 0 0 536.06,411.391" style="stroke:#D69E2E;stroke-width:0.5;" fill="#FFFAF0"/><path d="M802.772,408.391 L802.772,416.891 A1.5,1.5 0 0 0 804.272,418.391 L812.772,418.391 L802.772,408.391" style="stroke:#D69E2E;stroke-width:0.5;" fill="#FFFAF0"/><text x="542.06" y="425.261" fill="#000" font-size="11" textLength="58.964" font-family="'Segoe UI'">Constructed</text><text x="604.037" y="425.261" fill="#000" font-size="11" textLength="53.829" font-weight="700" font-family="'Segoe UI'">per region</text><text x="657.866" y="425.261" fill="#000" font-size="11" textLength="139.906" font-family="'Segoe UI'">, the same shape Probe has -</text><text x="542.06" y="439.892" fill="#000" font-size="11" textLength="161.96" font-family="'Segoe UI'">one region read straight through.</text></g><!--class MarkPlacer--><g class="entity" data-qualified-name="MarkPlacer" id="ent0013" data-source-line="52"><rect x="547.23" y="590.841" width="210.373" height="129.746" fill="#F7FAFC" style="stroke:#4A5568;stroke-width:0.5;" rx="3" ry="3"/><ellipse cx="621.494" cy="611.137" rx="10" ry="10" fill="#ADD1B2" style="stroke:#181818;stroke-width:1;"/><path d="M622.978,608.34 Q623.087,608.184 623.212,608.106 Q623.353,608.028 623.509,608.028 Q623.775,608.028 623.931,608.215 Q624.103,608.403 624.103,608.824 L624.103,609.856 Q624.103,610.278 623.931,610.465 Q623.775,610.653 623.509,610.653 Q623.259,610.653 623.119,610.512 Q622.978,610.387 622.9,610.012 Q622.869,609.762 622.744,609.637 Q622.494,609.371 622.056,609.215 Q621.634,609.059 621.197,609.059 Q620.666,609.059 620.212,609.293 Q619.759,609.528 619.416,610.059 Q619.072,610.574 619.072,611.309 L619.072,612.09 Q619.072,612.949 619.697,613.528 Q620.337,614.106 621.447,614.106 Q622.119,614.106 622.587,613.934 Q622.853,613.824 623.15,613.512 Q623.337,613.324 623.447,613.278 Q623.556,613.215 623.681,613.215 Q623.931,613.215 624.103,613.403 Q624.291,613.574 624.291,613.824 Q624.291,614.074 624.041,614.356 Q623.681,614.762 623.119,614.996 Q622.369,615.309 621.462,615.309 Q620.384,615.309 619.541,614.871 Q618.837,614.528 618.353,613.762 Q617.869,612.996 617.869,612.106 L617.869,611.293 Q617.869,610.356 618.306,609.543 Q618.744,608.731 619.509,608.293 Q620.291,607.856 621.15,607.856 Q621.681,607.856 622.134,607.981 Q622.587,608.09 622.978,608.34 Z " fill="#000"/><text x="644.978" y="608.79" fill="#718096" font-size="12" textLength="44.877" font-style="italic" font-family="Segoe UI">«sealed»</text><text x="640.494" y="623.672" fill="#2D3748" font-size="11" textLength="53.845" font-family="'Segoe UI'">MarkPlacer</text><line x1="548.23" y1="631.433" x2="756.603" y2="631.433" style="stroke:#4A5568;stroke-width:0.5;"/><g data-visibility-modifier="PACKAGE_PRIVATE_FIELD"><polygon points="558.23,640.248,554.23,646.248,562.23,646.248" fill="none" style="stroke:#A0AEC0;stroke-width:1;stroke-linejoin:miter;stroke-miterlimit:10;"/></g><text x="566.23" y="647.303" fill="#2D3748" font-size="11" textLength="135.561" font-family="'Segoe UI'">Refiner : PreciseMarkRefiner</text><g data-visibility-modifier="PACKAGE_PRIVATE_FIELD"><polygon points="558.23,654.879,554.23,660.879,562.23,660.879" fill="none" style="stroke:#A0AEC0;stroke-width:1;stroke-linejoin:miter;stroke-miterlimit:10;"/></g><text x="566.23" y="661.934" fill="#2D3748" font-size="11" textLength="139.879" font-family="'Segoe UI'">JingleReachSeconds : double</text><line x1="548.23" y1="668.695" x2="756.603" y2="668.695" style="stroke:#4A5568;stroke-width:1;"/><g data-visibility-modifier="PACKAGE_PRIVATE_METHOD"><polygon points="558.23,677.51,554.23,683.51,562.23,683.51" fill="#FFF" style="stroke:#A0AEC0;stroke-width:1;stroke-linejoin:miter;stroke-miterlimit:10;"/></g><text x="566.23" y="684.565" fill="#2D3748" font-size="11" textLength="185.373" font-family="'Segoe UI'">PlaceAsync() : Task&lt;MarkPlacement?></text><g data-visibility-modifier="PACKAGE_PRIVATE_METHOD"><polygon points="558.23,692.141,554.23,698.141,562.23,698.141" fill="#FFF" style="stroke:#A0AEC0;stroke-width:1;stroke-linejoin:miter;stroke-miterlimit:10;"/></g><text x="566.23" y="699.196" fill="#2D3748" font-size="11" textLength="157.395" font-family="'Segoe UI'">AdmitsAsAnnouncement() : bool</text><g data-visibility-modifier="PACKAGE_PRIVATE_METHOD"><polygon points="558.23,706.772,554.23,712.772,562.23,712.772" fill="#FFF" style="stroke:#A0AEC0;stroke-width:1;stroke-linejoin:miter;stroke-miterlimit:10;"/></g><text x="566.23" y="713.826" fill="#2D3748" font-size="11" textLength="177.364" font-family="'Segoe UI'">LoudnessNoteAsync() : Task&lt;string></text></g><g class="entity" data-qualified-name="GMN14" id="ent0015" data-source-line="61"><path d="M228.74,631.771 L228.74,679.664 A3,3 0 0 0 231.74,682.664 L509.091,682.664 A3,3 0 0 0 512.091,679.664 L512.091,659.711 L546.95,655.711 L512.091,651.711 L512.091,638.771 L502.091,628.771 L231.74,628.771 A3,3 0 0 0 228.74,631.771" style="stroke:#D69E2E;stroke-width:0.5;" fill="#FFFAF0"/><path d="M502.091,628.771 L502.091,637.271 A1.5,1.5 0 0 0 503.591,638.771 L512.091,638.771 L502.091,628.771" style="stroke:#D69E2E;stroke-width:0.5;" fill="#FFFAF0"/><text x="234.74" y="645.641" fill="#000" font-size="11" textLength="51.052" font-family="'Segoe UI'">Everything</text><text x="288.805" y="645.641" fill="#000" font-size="11" textLength="24.449" font-weight="700" font-family="'Segoe UI'">both</text><text x="316.268" y="645.641" fill="#000" font-size="11" textLength="137.516" font-family="'Segoe UI'">passes do to a mark once its</text><text x="234.74" y="660.272" fill="#000" font-size="11" textLength="262.351" font-family="'Segoe UI'">default-mode position is known. One implementation,</text><text x="234.74" y="674.903" fill="#000" font-size="11" textLength="241.474" font-family="'Segoe UI'">so Probe and Scan cannot place marks differently.</text></g><!--class PreciseMarkRefiner--><g class="entity" data-qualified-name="PreciseMarkRefiner" id="ent0017" data-source-line="66"><rect x="192.24" y="818.901" width="282.356" height="115.115" fill="#F7FAFC" style="stroke:#4A5568;stroke-width:0.5;" rx="3" ry="3"/><ellipse cx="282.963" cy="839.197" rx="10" ry="10" fill="#ADD1B2" style="stroke:#181818;stroke-width:1;"/><path d="M284.448,836.4 Q284.557,836.244 284.682,836.166 Q284.823,836.088 284.979,836.088 Q285.245,836.088 285.401,836.275 Q285.573,836.463 285.573,836.884 L285.573,837.916 Q285.573,838.338 285.401,838.525 Q285.245,838.713 284.979,838.713 Q284.729,838.713 284.588,838.572 Q284.448,838.447 284.37,838.072 Q284.338,837.822 284.213,837.697 Q283.963,837.431 283.526,837.275 Q283.104,837.119 282.667,837.119 Q282.135,837.119 281.682,837.353 Q281.229,837.588 280.885,838.119 Q280.542,838.634 280.542,839.369 L280.542,840.15 Q280.542,841.009 281.167,841.588 Q281.807,842.166 282.917,842.166 Q283.588,842.166 284.057,841.994 Q284.323,841.884 284.62,841.572 Q284.807,841.384 284.917,841.338 Q285.026,841.275 285.151,841.275 Q285.401,841.275 285.573,841.463 Q285.76,841.634 285.76,841.884 Q285.76,842.134 285.51,842.416 Q285.151,842.822 284.588,843.056 Q283.838,843.369 282.932,843.369 Q281.854,843.369 281.01,842.931 Q280.307,842.588 279.823,841.822 Q279.338,841.056 279.338,840.166 L279.338,839.353 Q279.338,838.416 279.776,837.603 Q280.213,836.791 280.979,836.353 Q281.76,835.916 282.62,835.916 Q283.151,835.916 283.604,836.041 Q284.057,836.15 284.448,836.4 Z " fill="#000"/><text x="325.98" y="836.85" fill="#718096" font-size="12" textLength="44.877" font-style="italic" font-family="Segoe UI">«sealed»</text><text x="301.963" y="851.732" fill="#2D3748" font-size="11" textLength="92.909" font-family="'Segoe UI'">PreciseMarkRefiner</text><line x1="193.24" y1="859.493" x2="473.596" y2="859.493" style="stroke:#4A5568;stroke-width:0.5;"/><g data-visibility-modifier="PACKAGE_PRIVATE_FIELD"><polygon points="203.24,868.308,199.24,874.308,207.24,874.308" fill="none" style="stroke:#A0AEC0;stroke-width:1;stroke-linejoin:miter;stroke-miterlimit:10;"/></g><text x="211.24" y="875.363" fill="#2D3748" font-size="11" textLength="139.879" font-family="'Segoe UI'">JingleReachSeconds : double</text><line x1="193.24" y1="882.124" x2="473.596" y2="882.124" style="stroke:#4A5568;stroke-width:1;"/><g data-visibility-modifier="PACKAGE_PRIVATE_METHOD"><polygon points="203.24,890.939,199.24,896.939,207.24,896.939" fill="#FFF" style="stroke:#A0AEC0;stroke-width:1;stroke-linejoin:miter;stroke-miterlimit:10;"/></g><text x="211.24" y="897.994" fill="#2D3748" font-size="11" textLength="257.356" font-family="'Segoe UI'">RefinePreciseMarkAsync() : Task&lt;PreciseMarkResult></text><g data-visibility-modifier="PACKAGE_PRIVATE_METHOD"><polygon points="203.24,905.57,199.24,911.57,207.24,911.57" fill="#FFF" style="stroke:#A0AEC0;stroke-width:1;stroke-linejoin:miter;stroke-miterlimit:10;"/></g><text x="211.24" y="912.625" fill="#2D3748" font-size="11" textLength="225.854" font-family="'Segoe UI'">VerifyMarkBeforeJingleAsync() : Task&lt;double></text><g data-visibility-modifier="PACKAGE_PRIVATE_METHOD"><polygon points="203.24,920.201,199.24,926.201,207.24,926.201" fill="#FFF" style="stroke:#A0AEC0;stroke-width:1;stroke-linejoin:miter;stroke-miterlimit:10;"/></g><text x="211.24" y="927.256" fill="#2D3748" font-size="11" textLength="216.391" font-family="'Segoe UI'">SnapToQuietestPointAsync() : Task&lt;double></text></g><!--class SuspectNumberMender--><g class="entity" data-qualified-name="SuspectNumberMender" id="ent0018" data-source-line="74"><rect x="1266.96" y="590.841" width="210.92" height="129.746" fill="#F7FAFC" style="stroke:#4A5568;stroke-width:0.5;" rx="3" ry="3"/><ellipse cx="1310.598" cy="611.137" rx="10" ry="10" fill="#ADD1B2" style="stroke:#181818;stroke-width:1;"/><path d="M1312.082,608.34 Q1312.191,608.184 1312.316,608.106 Q1312.457,608.028 1312.613,608.028 Q1312.879,608.028 1313.035,608.215 Q1313.207,608.403 1313.207,608.824 L1313.207,609.856 Q1313.207,610.278 1313.035,610.465 Q1312.879,610.653 1312.613,610.653 Q1312.363,610.653 1312.223,610.512 Q1312.082,610.387 1312.004,610.012 Q1311.973,609.762 1311.848,609.637 Q1311.598,609.371 1311.16,609.215 Q1310.738,609.059 1310.301,609.059 Q1309.77,609.059 1309.316,609.293 Q1308.863,609.528 1308.52,610.059 Q1308.176,610.574 1308.176,611.309 L1308.176,612.09 Q1308.176,612.949 1308.801,613.528 Q1309.441,614.106 1310.551,614.106 Q1311.223,614.106 1311.691,613.934 Q1311.957,613.824 1312.254,613.512 Q1312.441,613.324 1312.551,613.278 Q1312.66,613.215 1312.785,613.215 Q1313.035,613.215 1313.207,613.403 Q1313.395,613.574 1313.395,613.824 Q1313.395,614.074 1313.145,614.356 Q1312.785,614.762 1312.223,614.996 Q1311.473,615.309 1310.566,615.309 Q1309.488,615.309 1308.645,614.871 Q1307.941,614.528 1307.457,613.762 Q1306.973,612.996 1306.973,612.106 L1306.973,611.293 Q1306.973,610.356 1307.41,609.543 Q1307.848,608.731 1308.613,608.293 Q1309.395,607.856 1310.254,607.856 Q1310.785,607.856 1311.238,607.981 Q1311.691,608.09 1312.082,608.34 Z " fill="#000"/><text x="1364.982" y="608.79" fill="#718096" font-size="12" textLength="44.877" font-style="italic" font-family="Segoe UI">«sealed»</text><text x="1329.598" y="623.672" fill="#2D3748" font-size="11" textLength="115.645" font-family="'Segoe UI'">SuspectNumberMender</text><line x1="1267.96" y1="631.433" x2="1476.88" y2="631.433" style="stroke:#4A5568;stroke-width:0.5;"/><line x1="1267.96" y1="639.433" x2="1476.88" y2="639.433" style="stroke:#4A5568;stroke-width:0.5;"/><g data-visibility-modifier="PACKAGE_PRIVATE_METHOD"><polygon points="1277.96,648.248,1273.96,654.248,1281.96,654.248" fill="#FFF" style="stroke:#A0AEC0;stroke-width:1;stroke-linejoin:miter;stroke-miterlimit:10;"/></g><text x="1285.96" y="655.303" fill="#2D3748" font-size="11" textLength="71.178" font-family="'Segoe UI'">Admits() : bool</text><g data-visibility-modifier="PACKAGE_PRIVATE_METHOD"><polygon points="1277.96,662.879,1273.96,668.879,1281.96,668.879" fill="#FFF" style="stroke:#A0AEC0;stroke-width:1;stroke-linejoin:miter;stroke-miterlimit:10;"/></g><text x="1285.96" y="669.934" fill="#2D3748" font-size="11" textLength="126.935" font-family="'Segoe UI'">WorthQuestioning() : bool</text><g data-visibility-modifier="PACKAGE_PRIVATE_METHOD"><polygon points="1277.96,677.51,1273.96,683.51,1281.96,683.51" fill="#FFF" style="stroke:#A0AEC0;stroke-width:1;stroke-linejoin:miter;stroke-miterlimit:10;"/></g><text x="1285.96" y="684.565" fill="#2D3748" font-size="11" textLength="125.866" font-family="'Segoe UI'">MendAsync() : Task&lt;int?></text><g data-visibility-modifier="PACKAGE_PRIVATE_METHOD"><polygon points="1277.96,692.141,1273.96,698.141,1281.96,698.141" fill="#FFF" style="stroke:#A0AEC0;stroke-width:1;stroke-linejoin:miter;stroke-miterlimit:10;"/></g><text x="1285.96" y="699.196" fill="#2D3748" font-size="11" textLength="169.861" font-family="'Segoe UI'">ReReadAtMarkAsync() : Task&lt;int?></text><g data-visibility-modifier="PACKAGE_PRIVATE_METHOD"><polygon points="1277.96,706.772,1273.96,712.772,1281.96,712.772" fill="#FFF" style="stroke:#A0AEC0;stroke-width:1;stroke-linejoin:miter;stroke-miterlimit:10;"/></g><text x="1285.96" y="713.826" fill="#2D3748" font-size="11" textLength="185.92" font-family="'Segoe UI'">ReadUnnumberedAsync() : Task&lt;int?></text></g><!--class LanguageResolver--><g class="entity" data-qualified-name="LanguageResolver" id="ent0019" data-source-line="82"><rect x="1247.27" y="377.781" width="214.293" height="100.484" fill="#F7FAFC" style="stroke:#4A5568;stroke-width:0.5;" rx="3" ry="3"/><ellipse cx="1306.175" cy="398.077" rx="10" ry="10" fill="#ADD1B2" style="stroke:#181818;stroke-width:1;"/><path d="M1307.659,395.28 Q1307.769,395.124 1307.894,395.046 Q1308.034,394.968 1308.191,394.968 Q1308.456,394.968 1308.613,395.155 Q1308.784,395.343 1308.784,395.764 L1308.784,396.796 Q1308.784,397.218 1308.613,397.405 Q1308.456,397.593 1308.191,397.593 Q1307.941,397.593 1307.8,397.452 Q1307.659,397.327 1307.581,396.952 Q1307.55,396.702 1307.425,396.577 Q1307.175,396.311 1306.738,396.155 Q1306.316,395.999 1305.878,395.999 Q1305.347,395.999 1304.894,396.233 Q1304.441,396.468 1304.097,396.999 Q1303.753,397.514 1303.753,398.249 L1303.753,399.03 Q1303.753,399.889 1304.378,400.468 Q1305.019,401.046 1306.128,401.046 Q1306.8,401.046 1307.269,400.874 Q1307.534,400.764 1307.831,400.452 Q1308.019,400.264 1308.128,400.218 Q1308.238,400.155 1308.363,400.155 Q1308.613,400.155 1308.784,400.343 Q1308.972,400.514 1308.972,400.764 Q1308.972,401.014 1308.722,401.296 Q1308.363,401.702 1307.8,401.936 Q1307.05,402.249 1306.144,402.249 Q1305.066,402.249 1304.222,401.811 Q1303.519,401.468 1303.034,400.702 Q1302.55,399.936 1302.55,399.046 L1302.55,398.233 Q1302.55,397.296 1302.988,396.483 Q1303.425,395.671 1304.191,395.233 Q1304.972,394.796 1305.831,394.796 Q1306.363,394.796 1306.816,394.921 Q1307.269,395.03 1307.659,395.28 Z " fill="#000"/><text x="1346.978" y="395.73" fill="#718096" font-size="12" textLength="44.877" font-style="italic" font-family="Segoe UI">«sealed»</text><text x="1325.175" y="410.612" fill="#2D3748" font-size="11" textLength="88.483" font-family="'Segoe UI'">LanguageResolver</text><line x1="1248.27" y1="418.373" x2="1460.563" y2="418.373" style="stroke:#4A5568;stroke-width:0.5;"/><line x1="1248.27" y1="426.373" x2="1460.563" y2="426.373" style="stroke:#4A5568;stroke-width:0.5;"/><g data-visibility-modifier="PACKAGE_PRIVATE_METHOD"><polygon points="1258.27,435.188,1254.27,441.188,1262.27,441.188" fill="#FFF" style="stroke:#A0AEC0;stroke-width:1;stroke-linejoin:miter;stroke-miterlimit:10;"/></g><text x="1266.27" y="442.243" fill="#2D3748" font-size="11" textLength="189.293" font-family="'Segoe UI'">ResolveAsync() : Task&lt;LanguageState></text><g data-visibility-modifier="PACKAGE_PRIVATE_METHOD"><polygon points="1258.27,449.819,1254.27,455.819,1262.27,455.819" fill="#FFF" style="stroke:#A0AEC0;stroke-width:1;stroke-linejoin:miter;stroke-miterlimit:10;"/></g><text x="1266.27" y="456.874" fill="#2D3748" font-size="11" textLength="85.427" text-decoration="underline" font-family="'Segoe UI'">SpeechPositions()</text><g data-visibility-modifier="PACKAGE_PRIVATE_METHOD"><polygon points="1258.27,464.45,1254.27,470.45,1262.27,470.45" fill="#FFF" style="stroke:#A0AEC0;stroke-width:1;stroke-linejoin:miter;stroke-miterlimit:10;"/></g><text x="1266.27" y="471.505" fill="#2D3748" font-size="11" textLength="112.111" text-decoration="underline" font-family="'Segoe UI'">ExistingMarkPositions()</text></g><!--class AnnouncementIsolation--><g class="entity" data-qualified-name="AnnouncementIsolation" id="ent0020" data-source-line="88"><rect x="674.12" y="840.851" width="168.596" height="71.223" fill="#F7FAFC" style="stroke:#4A5568;stroke-width:0.5;" rx="3" ry="3"/><ellipse cx="698.371" cy="861.147" rx="10" ry="10" fill="#ADD1B2" style="stroke:#181818;stroke-width:1;"/><path d="M699.855,858.35 Q699.964,858.194 700.089,858.116 Q700.23,858.038 700.386,858.038 Q700.652,858.038 700.808,858.225 Q700.98,858.413 700.98,858.834 L700.98,859.866 Q700.98,860.288 700.808,860.475 Q700.652,860.663 700.386,860.663 Q700.136,860.663 699.996,860.522 Q699.855,860.397 699.777,860.022 Q699.746,859.772 699.621,859.647 Q699.371,859.381 698.933,859.225 Q698.511,859.069 698.074,859.069 Q697.543,859.069 697.089,859.303 Q696.636,859.538 696.293,860.069 Q695.949,860.584 695.949,861.319 L695.949,862.1 Q695.949,862.959 696.574,863.538 Q697.214,864.116 698.324,864.116 Q698.996,864.116 699.464,863.944 Q699.73,863.834 700.027,863.522 Q700.214,863.334 700.324,863.288 Q700.433,863.225 700.558,863.225 Q700.808,863.225 700.98,863.413 Q701.168,863.584 701.168,863.834 Q701.168,864.084 700.918,864.366 Q700.558,864.772 699.996,865.006 Q699.246,865.319 698.339,865.319 Q697.261,865.319 696.418,864.881 Q695.714,864.538 695.23,863.772 Q694.746,863.006 694.746,862.116 L694.746,861.303 Q694.746,860.366 695.183,859.553 Q695.621,858.741 696.386,858.303 Q697.168,857.866 698.027,857.866 Q698.558,857.866 699.011,857.991 Q699.464,858.1 699.855,858.35 Z " fill="#000"/><text x="751.717" y="858.8" fill="#718096" font-size="12" textLength="39.68" font-style="italic" font-family="Segoe UI">«static»</text><text x="713.649" y="873.682" fill="#2D3748" font-size="11" textLength="115.817" font-family="'Segoe UI'">AnnouncementIsolation</text><line x1="675.12" y1="881.443" x2="841.716" y2="881.443" style="stroke:#4A5568;stroke-width:0.5;"/><g data-visibility-modifier="PACKAGE_PRIVATE_FIELD"><polygon points="685.12,890.258,681.12,896.258,689.12,896.258" fill="none" style="stroke:#A0AEC0;stroke-width:1;stroke-linejoin:miter;stroke-miterlimit:10;"/></g><text x="693.12" y="897.313" fill="#2D3748" font-size="11" textLength="143.596" text-decoration="underline" font-family="'Segoe UI'">IsolationRule / IsolationCheck</text><line x1="675.12" y1="904.074" x2="841.716" y2="904.074" style="stroke:#4A5568;stroke-width:0.5;"/></g><g class="entity" data-qualified-name="GMN21" id="ent0022" data-source-line="92"><path d="M877.76,845.201 L877.76,872.461 L842.95,876.461 L877.76,880.461 L877.76,907.725 A3,3 0 0 0 880.76,910.725 L1094.072,910.725 A3,3 0 0 0 1097.072,907.725 L1097.072,852.201 L1087.072,842.201 L880.76,842.201 A3,3 0 0 0 877.76,845.201" style="stroke:#D69E2E;stroke-width:0.5;" fill="#FFFAF0"/><path d="M1087.072,842.201 L1087.072,850.701 A1.5,1.5 0 0 0 1088.572,852.201 L1097.072,852.201 L1087.072,842.201" style="stroke:#D69E2E;stroke-width:0.5;" fill="#FFFAF0"/><text x="883.76" y="859.071" fill="#000" font-size="11" textLength="198.043" font-family="'Segoe UI'">Answers "something is announced here",</text><text x="883.76" y="873.702" fill="#000" font-size="11" textLength="17.66" font-weight="700" font-family="'Segoe UI'">not</text><text x="904.433" y="873.702" fill="#000" font-size="11" textLength="133.327" font-family="'Segoe UI'">"this is the announcement".</text><text x="883.76" y="888.333" fill="#000" font-size="11" textLength="198.312" font-family="'Segoe UI'">Pure Analyze geometry over VAD speech</text><text x="883.76" y="902.964" fill="#000" font-size="11" textLength="120.839" font-family="'Segoe UI'">segments - no decoding.</text></g><!--class NamedMarkLedger--><g class="entity" data-qualified-name="NamedMarkLedger" id="ent0024" data-source-line="98"><rect x="792.98" y="583.531" width="162.881" height="144.377" fill="#F7FAFC" style="stroke:#4A5568;stroke-width:0.5;" rx="3" ry="3"/><ellipse cx="824.586" cy="603.827" rx="10" ry="10" fill="#ADD1B2" style="stroke:#181818;stroke-width:1;"/><path d="M826.07,601.03 Q826.179,600.874 826.304,600.796 Q826.445,600.718 826.601,600.718 Q826.867,600.718 827.023,600.905 Q827.195,601.093 827.195,601.514 L827.195,602.546 Q827.195,602.968 827.023,603.155 Q826.867,603.343 826.601,603.343 Q826.351,603.343 826.211,603.202 Q826.07,603.077 825.992,602.702 Q825.961,602.452 825.836,602.327 Q825.586,602.061 825.148,601.905 Q824.726,601.749 824.289,601.749 Q823.757,601.749 823.304,601.983 Q822.851,602.218 822.507,602.749 Q822.164,603.264 822.164,603.999 L822.164,604.78 Q822.164,605.639 822.789,606.218 Q823.429,606.796 824.539,606.796 Q825.211,606.796 825.679,606.624 Q825.945,606.514 826.242,606.202 Q826.429,606.014 826.539,605.968 Q826.648,605.905 826.773,605.905 Q827.023,605.905 827.195,606.093 Q827.382,606.264 827.382,606.514 Q827.382,606.764 827.132,607.046 Q826.773,607.452 826.211,607.686 Q825.461,607.999 824.554,607.999 Q823.476,607.999 822.632,607.561 Q821.929,607.218 821.445,606.452 Q820.961,605.686 820.961,604.796 L820.961,603.983 Q820.961,603.046 821.398,602.233 Q821.836,601.421 822.601,600.983 Q823.382,600.546 824.242,600.546 Q824.773,600.546 825.226,600.671 Q825.679,600.78 826.07,601.03 Z " fill="#000"/><text x="865.938" y="601.48" fill="#718096" font-size="12" textLength="44.877" font-style="italic" font-family="Segoe UI">«sealed»</text><text x="841.498" y="616.362" fill="#2D3748" font-size="11" textLength="93.758" font-family="'Segoe UI'">NamedMarkLedger</text><line x1="793.98" y1="624.123" x2="954.861" y2="624.123" style="stroke:#4A5568;stroke-width:0.5;"/><g data-visibility-modifier="PACKAGE_PRIVATE_FIELD"><polygon points="803.98,632.938,799.98,638.938,807.98,638.938" fill="none" style="stroke:#A0AEC0;stroke-width:1;stroke-linejoin:miter;stroke-miterlimit:10;"/></g><text x="811.98" y="639.993" fill="#2D3748" font-size="11" textLength="137.881" font-family="'Segoe UI'">Marks : List&lt;DetectedMark></text><g data-visibility-modifier="PACKAGE_PRIVATE_FIELD"><polygon points="803.98,647.569,799.98,653.569,807.98,653.569" fill="none" style="stroke:#A0AEC0;stroke-width:1;stroke-linejoin:miter;stroke-miterlimit:10;"/></g><text x="811.98" y="654.624" fill="#2D3748" font-size="11" textLength="105.692" font-family="'Segoe UI'">CustomLimitHit : bool</text><line x1="793.98" y1="661.385" x2="954.861" y2="661.385" style="stroke:#4A5568;stroke-width:1;"/><g data-visibility-modifier="PACKAGE_PRIVATE_METHOD"><polygon points="803.98,670.2,799.98,676.2,807.98,676.2" fill="#FFF" style="stroke:#A0AEC0;stroke-width:1;stroke-linejoin:miter;stroke-miterlimit:10;"/></g><text x="811.98" y="677.255" fill="#2D3748" font-size="11" textLength="83.408" font-family="'Segoe UI'">IsInScope() : bool</text><g data-visibility-modifier="PACKAGE_PRIVATE_METHOD"><polygon points="803.98,684.831,799.98,690.831,807.98,690.831" fill="#FFF" style="stroke:#A0AEC0;stroke-width:1;stroke-linejoin:miter;stroke-miterlimit:10;"/></g><text x="811.98" y="691.886" fill="#2D3748" font-size="11" textLength="95.401" font-family="'Segoe UI'">ShouldDrop() : bool</text><g data-visibility-modifier="PACKAGE_PRIVATE_METHOD"><polygon points="803.98,699.462,799.98,705.462,807.98,705.462" fill="#FFF" style="stroke:#A0AEC0;stroke-width:1;stroke-linejoin:miter;stroke-miterlimit:10;"/></g><text x="811.98" y="706.516" fill="#2D3748" font-size="11" textLength="116.359" font-family="'Segoe UI'">AlreadyPlacedAt() : bool</text><g data-visibility-modifier="PACKAGE_PRIVATE_METHOD"><polygon points="803.98,714.093,799.98,720.093,807.98,720.093" fill="#FFF" style="stroke:#A0AEC0;stroke-width:1;stroke-linejoin:miter;stroke-miterlimit:10;"/></g><text x="811.98" y="721.147" fill="#2D3748" font-size="11" textLength="26.689" font-family="'Segoe UI'">Add()</text></g><g class="entity" data-qualified-name="GMN25" id="ent0026" data-source-line="108"><path d="M1597.84,830.571 L1597.84,922.356 A3,3 0 0 0 1600.84,925.356 L1855.992,925.356 A3,3 0 0 0 1858.992,922.356 L1858.992,837.571 L1848.992,827.571 L1600.84,827.571 A3,3 0 0 0 1597.84,830.571" style="stroke:#D69E2E;stroke-width:0.5;" fill="#FFFAF0"/><path d="M1848.992,827.571 L1848.992,836.071 A1.5,1.5 0 0 0 1850.492,837.571 L1858.992,837.571 L1848.992,827.571" style="stroke:#D69E2E;stroke-width:1;" fill="#FFFAF0"/><text x="1603.84" y="844.441" fill="#000" font-size="11" textLength="240.152" font-family="'Segoe UI'">The file's non-numbered marks and the four rules</text><text x="1603.84" y="859.072" fill="#000" font-size="11" textLength="163.507" font-family="'Segoe UI'">about them, in one place because</text><text x="1770.36" y="859.072" fill="#000" font-size="11" textLength="24.449" font-weight="700" font-family="'Segoe UI'">both</text><text x="1797.822" y="859.072" fill="#000" font-size="11" textLength="31.818" font-family="'Segoe UI'">passes</text><text x="1603.84" y="873.703" fill="#000" font-size="11" textLength="219.662" font-family="'Segoe UI'">now look for them: Probe over its candidates,</text><text x="1603.84" y="888.334" fill="#000" font-size="11" textLength="206.411" font-family="'Segoe UI'">Scan over the stretches it reads in full. Two</text><text x="1603.84" y="902.965" fill="#000" font-size="11" textLength="204.988" font-family="'Segoe UI'">copies of "is this in scope, is it a duplicate"</text><text x="1603.84" y="917.596" fill="#000" font-size="11" textLength="110.209" font-family="'Segoe UI'">would be two answers.</text></g><!--class RefinedNumberVote--><g class="entity" data-qualified-name="RefinedNumberVote" id="ent0028" data-source-line="116"><rect x="509.61" y="848.161" width="129.623" height="56.592" fill="#F7FAFC" style="stroke:#4A5568;stroke-width:0.5;" rx="3" ry="3"/><ellipse cx="523.61" cy="868.457" rx="10" ry="10" fill="#ADD1B2" style="stroke:#181818;stroke-width:1;"/><path d="M525.094,865.66 Q525.204,865.504 525.329,865.426 Q525.469,865.348 525.626,865.348 Q525.891,865.348 526.048,865.535 Q526.219,865.723 526.219,866.144 L526.219,867.176 Q526.219,867.598 526.048,867.785 Q525.891,867.973 525.626,867.973 Q525.376,867.973 525.235,867.832 Q525.094,867.707 525.016,867.332 Q524.985,867.082 524.86,866.957 Q524.61,866.691 524.173,866.535 Q523.751,866.379 523.313,866.379 Q522.782,866.379 522.329,866.613 Q521.876,866.848 521.532,867.379 Q521.188,867.894 521.188,868.629 L521.188,869.41 Q521.188,870.269 521.813,870.848 Q522.454,871.426 523.563,871.426 Q524.235,871.426 524.704,871.254 Q524.969,871.144 525.266,870.832 Q525.454,870.644 525.563,870.598 Q525.673,870.535 525.798,870.535 Q526.048,870.535 526.219,870.723 Q526.407,870.894 526.407,871.144 Q526.407,871.394 526.157,871.676 Q525.798,872.082 525.235,872.316 Q524.485,872.629 523.579,872.629 Q522.501,872.629 521.657,872.191 Q520.954,871.848 520.469,871.082 Q519.985,870.316 519.985,869.426 L519.985,868.613 Q519.985,867.676 520.423,866.863 Q520.86,866.051 521.626,865.613 Q522.407,865.176 523.266,865.176 Q523.798,865.176 524.251,865.301 Q524.704,865.41 525.094,865.66 Z " fill="#000"/><text x="566.582" y="866.11" fill="#718096" font-size="12" textLength="39.68" font-style="italic" font-family="Segoe UI">«static»</text><text x="536.61" y="880.992" fill="#2D3748" font-size="11" textLength="99.623" font-family="'Segoe UI'">RefinedNumberVote</text><line x1="510.61" y1="888.753" x2="638.233" y2="888.753" style="stroke:#4A5568;stroke-width:0.5;"/><line x1="510.61" y1="896.753" x2="638.233" y2="896.753" style="stroke:#4A5568;stroke-width:0.5;"/></g><!--class RefinedConfidence--><g class="entity" data-qualified-name="RefinedConfidence" id="ent0029" data-source-line="117"><rect x="1441.53" y="840.851" width="121.771" height="71.223" fill="#F7FAFC" style="stroke:#4A5568;stroke-width:0.5;" rx="3" ry="3"/><ellipse cx="1455.53" cy="861.147" rx="10" ry="10" fill="#ADD1B2" style="stroke:#181818;stroke-width:1;"/><path d="M1457.014,858.35 Q1457.124,858.194 1457.249,858.116 Q1457.389,858.038 1457.546,858.038 Q1457.811,858.038 1457.968,858.225 Q1458.139,858.413 1458.139,858.834 L1458.139,859.866 Q1458.139,860.288 1457.968,860.475 Q1457.811,860.663 1457.546,860.663 Q1457.296,860.663 1457.155,860.522 Q1457.014,860.397 1456.936,860.022 Q1456.905,859.772 1456.78,859.647 Q1456.53,859.381 1456.093,859.225 Q1455.671,859.069 1455.233,859.069 Q1454.702,859.069 1454.249,859.303 Q1453.796,859.538 1453.452,860.069 Q1453.108,860.584 1453.108,861.319 L1453.108,862.1 Q1453.108,862.959 1453.733,863.538 Q1454.374,864.116 1455.483,864.116 Q1456.155,864.116 1456.624,863.944 Q1456.889,863.834 1457.186,863.522 Q1457.374,863.334 1457.483,863.288 Q1457.593,863.225 1457.718,863.225 Q1457.968,863.225 1458.139,863.413 Q1458.327,863.584 1458.327,863.834 Q1458.327,864.084 1458.077,864.366 Q1457.718,864.772 1457.155,865.006 Q1456.405,865.319 1455.499,865.319 Q1454.421,865.319 1453.577,864.881 Q1452.874,864.538 1452.389,863.772 Q1451.905,863.006 1451.905,862.116 L1451.905,861.303 Q1451.905,860.366 1452.343,859.553 Q1452.78,858.741 1453.546,858.303 Q1454.327,857.866 1455.186,857.866 Q1455.718,857.866 1456.171,857.991 Q1456.624,858.1 1457.014,858.35 Z " fill="#000"/><text x="1494.575" y="858.8" fill="#718096" font-size="12" textLength="39.68" font-style="italic" font-family="Segoe UI">«static»</text><text x="1468.53" y="873.682" fill="#2D3748" font-size="11" textLength="91.771" font-family="'Segoe UI'">RefinedConfidence</text><line x1="1442.53" y1="881.443" x2="1562.301" y2="881.443" style="stroke:#4A5568;stroke-width:0.5;"/><line x1="1442.53" y1="889.443" x2="1562.301" y2="889.443" style="stroke:#4A5568;stroke-width:0.5;"/><g data-visibility-modifier="PUBLIC_METHOD"><ellipse cx="1452.53" cy="902.258" rx="3" ry="3" fill="#84BE84" style="stroke:#038048;stroke-width:1;"/></g><text x="1460.53" y="905.313" fill="#2D3748" font-size="11" textLength="90.605" text-decoration="underline" font-family="'Segoe UI'">Median() : double?</text></g><g class="entity" data-qualified-name="GMN30" id="ent0031" data-source-line="121"><path d="M1132.5,823.251 L1132.5,929.667 A3,3 0 0 0 1135.5,932.667 L1403.339,932.667 A3,3 0 0 0 1406.339,929.667 L1406.339,880.461 L1441.28,876.461 L1406.339,872.461 L1406.339,830.251 L1396.339,820.251 L1135.5,820.251 A3,3 0 0 0 1132.5,823.251" style="stroke:#D69E2E;stroke-width:0.5;" fill="#FFFAF0"/><path d="M1396.339,820.251 L1396.339,828.751 A1.5,1.5 0 0 0 1397.839,830.251 L1406.339,830.251 L1396.339,820.251" style="stroke:#D69E2E;stroke-width:0.5;" fill="#FFFAF0"/><text x="1138.5" y="837.121" fill="#000" font-size="11" textLength="126.892" font-family="'Segoe UI'">A mark's confidence is the</text><text x="1268.405" y="837.121" fill="#000" font-size="11" textLength="38.538" font-weight="700" font-family="'Segoe UI'">median</text><text x="1309.956" y="837.121" fill="#000" font-size="11" textLength="28.606" font-family="'Segoe UI'">of the</text><text x="1138.5" y="851.752" fill="#000" font-size="11" textLength="252.839" font-family="'Segoe UI'">refinement's readings of the announcement, not the</text><text x="1138.5" y="866.383" fill="#000" font-size="11" textLength="243.439" font-family="'Segoe UI'">finding window's figure - the window is the worst-</text><text x="1138.5" y="881.014" fill="#000" font-size="11" textLength="244.433" font-family="'Segoe UI'">framed look the run takes at an announcement, its</text><text x="1138.5" y="895.645" fill="#000" font-size="11" textLength="234.953" font-family="'Segoe UI'">segment routinely swallowing the jingle. Not the</text><text x="1138.5" y="910.276" fill="#000" font-size="11" textLength="236.994" font-family="'Segoe UI'">best of them: that would make a mark look more</text><text x="1138.5" y="924.906" fill="#000" font-size="11" textLength="211.449" font-family="'Segoe UI'">certain the more probes the search needed.</text></g><!--class GapPlanning--><g class="entity" data-qualified-name="GapPlanning" id="ent0033" data-source-line="130"><rect x="1496.5" y="399.731" width="91.848" height="56.592" fill="#F7FAFC" style="stroke:#4A5568;stroke-width:0.5;" rx="3" ry="3"/><ellipse cx="1510.5" cy="420.027" rx="10" ry="10" fill="#ADD1B2" style="stroke:#181818;stroke-width:1;"/><path d="M1511.984,417.23 Q1512.094,417.074 1512.219,416.996 Q1512.359,416.918 1512.516,416.918 Q1512.781,416.918 1512.938,417.105 Q1513.109,417.293 1513.109,417.714 L1513.109,418.746 Q1513.109,419.168 1512.938,419.355 Q1512.781,419.543 1512.516,419.543 Q1512.266,419.543 1512.125,419.402 Q1511.984,419.277 1511.906,418.902 Q1511.875,418.652 1511.75,418.527 Q1511.5,418.261 1511.063,418.105 Q1510.641,417.949 1510.203,417.949 Q1509.672,417.949 1509.219,418.183 Q1508.766,418.418 1508.422,418.949 Q1508.078,419.464 1508.078,420.199 L1508.078,420.98 Q1508.078,421.839 1508.703,422.418 Q1509.344,422.996 1510.453,422.996 Q1511.125,422.996 1511.594,422.824 Q1511.859,422.714 1512.156,422.402 Q1512.344,422.214 1512.453,422.168 Q1512.563,422.105 1512.688,422.105 Q1512.938,422.105 1513.109,422.293 Q1513.297,422.464 1513.297,422.714 Q1513.297,422.964 1513.047,423.246 Q1512.688,423.652 1512.125,423.886 Q1511.375,424.199 1510.469,424.199 Q1509.391,424.199 1508.547,423.761 Q1507.844,423.418 1507.359,422.652 Q1506.875,421.886 1506.875,420.996 L1506.875,420.183 Q1506.875,419.246 1507.313,418.433 Q1507.75,417.621 1508.516,417.183 Q1509.297,416.746 1510.156,416.746 Q1510.688,416.746 1511.141,416.871 Q1511.594,416.98 1511.984,417.23 Z " fill="#000"/><text x="1534.584" y="417.68" fill="#718096" font-size="12" textLength="39.68" font-style="italic" font-family="Segoe UI">«static»</text><text x="1523.5" y="432.562" fill="#2D3748" font-size="11" textLength="61.848" font-family="'Segoe UI'">GapPlanning</text><line x1="1497.5" y1="440.323" x2="1587.348" y2="440.323" style="stroke:#4A5568;stroke-width:0.5;"/><line x1="1497.5" y1="448.323" x2="1587.348" y2="448.323" style="stroke:#4A5568;stroke-width:0.5;"/></g><!--class JingleFirstScan--><g class="entity" data-qualified-name="JingleFirstScan" id="ent0034" data-source-line="131"><rect x="1623.06" y="399.731" width="100.71" height="56.592" fill="#F7FAFC" style="stroke:#4A5568;stroke-width:0.5;" rx="3" ry="3"/><ellipse cx="1637.06" cy="420.027" rx="10" ry="10" fill="#ADD1B2" style="stroke:#181818;stroke-width:1;"/><path d="M1638.544,417.23 Q1638.654,417.074 1638.779,416.996 Q1638.919,416.918 1639.076,416.918 Q1639.341,416.918 1639.498,417.105 Q1639.669,417.293 1639.669,417.714 L1639.669,418.746 Q1639.669,419.168 1639.498,419.355 Q1639.341,419.543 1639.076,419.543 Q1638.826,419.543 1638.685,419.402 Q1638.544,419.277 1638.466,418.902 Q1638.435,418.652 1638.31,418.527 Q1638.06,418.261 1637.623,418.105 Q1637.201,417.949 1636.763,417.949 Q1636.232,417.949 1635.779,418.183 Q1635.326,418.418 1634.982,418.949 Q1634.638,419.464 1634.638,420.199 L1634.638,420.98 Q1634.638,421.839 1635.263,422.418 Q1635.904,422.996 1637.013,422.996 Q1637.685,422.996 1638.154,422.824 Q1638.419,422.714 1638.716,422.402 Q1638.904,422.214 1639.013,422.168 Q1639.123,422.105 1639.248,422.105 Q1639.498,422.105 1639.669,422.293 Q1639.857,422.464 1639.857,422.714 Q1639.857,422.964 1639.607,423.246 Q1639.248,423.652 1638.685,423.886 Q1637.935,424.199 1637.029,424.199 Q1635.951,424.199 1635.107,423.761 Q1634.404,423.418 1633.919,422.652 Q1633.435,421.886 1633.435,420.996 L1633.435,420.183 Q1633.435,419.246 1633.873,418.433 Q1634.31,417.621 1635.076,417.183 Q1635.857,416.746 1636.716,416.746 Q1637.248,416.746 1637.701,416.871 Q1638.154,416.98 1638.544,417.23 Z " fill="#000"/><text x="1665.575" y="417.68" fill="#718096" font-size="12" textLength="39.68" font-style="italic" font-family="Segoe UI">«static»</text><text x="1650.06" y="432.562" fill="#2D3748" font-size="11" textLength="70.71" font-family="'Segoe UI'">JingleFirstScan</text><line x1="1624.06" y1="440.323" x2="1722.77" y2="440.323" style="stroke:#4A5568;stroke-width:0.5;"/><line x1="1624.06" y1="448.323" x2="1722.77" y2="448.323" style="stroke:#4A5568;stroke-width:0.5;"/></g><!--class DescendingSilenceScan--><g class="entity" data-qualified-name="DescendingSilenceScan" id="ent0035" data-source-line="132"><rect x="1758.54" y="399.731" width="143.765" height="56.592" fill="#F7FAFC" style="stroke:#4A5568;stroke-width:0.5;" rx="3" ry="3"/><ellipse cx="1772.54" cy="420.027" rx="10" ry="10" fill="#ADD1B2" style="stroke:#181818;stroke-width:1;"/><path d="M1774.024,417.23 Q1774.134,417.074 1774.259,416.996 Q1774.399,416.918 1774.556,416.918 Q1774.821,416.918 1774.978,417.105 Q1775.149,417.293 1775.149,417.714 L1775.149,418.746 Q1775.149,419.168 1774.978,419.355 Q1774.821,419.543 1774.556,419.543 Q1774.306,419.543 1774.165,419.402 Q1774.024,419.277 1773.946,418.902 Q1773.915,418.652 1773.79,418.527 Q1773.54,418.261 1773.103,418.105 Q1772.681,417.949 1772.243,417.949 Q1771.712,417.949 1771.259,418.183 Q1770.806,418.418 1770.462,418.949 Q1770.118,419.464 1770.118,420.199 L1770.118,420.98 Q1770.118,421.839 1770.743,422.418 Q1771.384,422.996 1772.493,422.996 Q1773.165,422.996 1773.634,422.824 Q1773.899,422.714 1774.196,422.402 Q1774.384,422.214 1774.493,422.168 Q1774.603,422.105 1774.728,422.105 Q1774.978,422.105 1775.149,422.293 Q1775.337,422.464 1775.337,422.714 Q1775.337,422.964 1775.087,423.246 Q1774.728,423.652 1774.165,423.886 Q1773.415,424.199 1772.509,424.199 Q1771.431,424.199 1770.587,423.761 Q1769.884,423.418 1769.399,422.652 Q1768.915,421.886 1768.915,420.996 L1768.915,420.183 Q1768.915,419.246 1769.353,418.433 Q1769.79,417.621 1770.556,417.183 Q1771.337,416.746 1772.196,416.746 Q1772.728,416.746 1773.181,416.871 Q1773.634,416.98 1774.024,417.23 Z " fill="#000"/><text x="1822.583" y="417.68" fill="#718096" font-size="12" textLength="39.68" font-style="italic" font-family="Segoe UI">«static»</text><text x="1785.54" y="432.562" fill="#2D3748" font-size="11" textLength="113.765" font-family="'Segoe UI'">DescendingSilenceScan</text><line x1="1759.54" y1="440.323" x2="1901.305" y2="440.323" style="stroke:#4A5568;stroke-width:0.5;"/><line x1="1759.54" y1="448.323" x2="1901.305" y2="448.323" style="stroke:#4A5568;stroke-width:0.5;"/></g><!--class ProbeEnvironment--><g class="entity" data-qualified-name="ProbeEnvironment" id="ent0036" data-source-line="135"><rect x="1512.4" y="627.421" width="120.046" height="56.592" fill="#F7FAFC" style="stroke:#4A5568;stroke-width:0.5;" rx="3" ry="3"/><ellipse cx="1526.4" cy="647.717" rx="10" ry="10" fill="#ADD1B2" style="stroke:#181818;stroke-width:1;"/><path d="M1527.884,644.92 Q1527.994,644.764 1528.119,644.686 Q1528.259,644.608 1528.416,644.608 Q1528.681,644.608 1528.838,644.795 Q1529.009,644.983 1529.009,645.404 L1529.009,646.436 Q1529.009,646.858 1528.838,647.045 Q1528.681,647.233 1528.416,647.233 Q1528.166,647.233 1528.025,647.092 Q1527.884,646.967 1527.806,646.592 Q1527.775,646.342 1527.65,646.217 Q1527.4,645.951 1526.963,645.795 Q1526.541,645.639 1526.103,645.639 Q1525.572,645.639 1525.119,645.873 Q1524.666,646.108 1524.322,646.639 Q1523.978,647.154 1523.978,647.889 L1523.978,648.67 Q1523.978,649.529 1524.603,650.108 Q1525.244,650.686 1526.353,650.686 Q1527.025,650.686 1527.494,650.514 Q1527.759,650.404 1528.056,650.092 Q1528.244,649.904 1528.353,649.858 Q1528.463,649.795 1528.588,649.795 Q1528.838,649.795 1529.009,649.983 Q1529.197,650.154 1529.197,650.404 Q1529.197,650.654 1528.947,650.936 Q1528.588,651.342 1528.025,651.576 Q1527.275,651.889 1526.369,651.889 Q1525.291,651.889 1524.447,651.451 Q1523.744,651.108 1523.259,650.342 Q1522.775,649.576 1522.775,648.686 L1522.775,647.873 Q1522.775,646.936 1523.213,646.123 Q1523.65,645.311 1524.416,644.873 Q1525.197,644.436 1526.056,644.436 Q1526.588,644.436 1527.041,644.561 Q1527.494,644.67 1527.884,644.92 Z " fill="#000"/><text x="1561.994" y="645.37" fill="#718096" font-size="12" textLength="44.859" font-style="italic" font-family="Segoe UI">«record»</text><text x="1539.4" y="660.252" fill="#2D3748" font-size="11" textLength="90.046" font-family="'Segoe UI'">ProbeEnvironment</text><line x1="1513.4" y1="668.013" x2="1631.446" y2="668.013" style="stroke:#4A5568;stroke-width:0.5;"/><line x1="1513.4" y1="676.013" x2="1631.446" y2="676.013" style="stroke:#4A5568;stroke-width:0.5;"/></g><!--class ProbeContext--><g class="entity" data-qualified-name="ProbeContext" id="ent0037" data-source-line="136"><rect x="1667" y="627.421" width="102.846" height="56.592" fill="#F7FAFC" style="stroke:#4A5568;stroke-width:0.5;" rx="3" ry="3"/><ellipse cx="1681" cy="647.717" rx="10" ry="10" fill="#ADD1B2" style="stroke:#181818;stroke-width:1;"/><path d="M1682.484,644.92 Q1682.594,644.764 1682.719,644.686 Q1682.859,644.608 1683.016,644.608 Q1683.281,644.608 1683.438,644.795 Q1683.609,644.983 1683.609,645.404 L1683.609,646.436 Q1683.609,646.858 1683.438,647.045 Q1683.281,647.233 1683.016,647.233 Q1682.766,647.233 1682.625,647.092 Q1682.484,646.967 1682.406,646.592 Q1682.375,646.342 1682.25,646.217 Q1682,645.951 1681.563,645.795 Q1681.141,645.639 1680.703,645.639 Q1680.172,645.639 1679.719,645.873 Q1679.266,646.108 1678.922,646.639 Q1678.578,647.154 1678.578,647.889 L1678.578,648.67 Q1678.578,649.529 1679.203,650.108 Q1679.844,650.686 1680.953,650.686 Q1681.625,650.686 1682.094,650.514 Q1682.359,650.404 1682.656,650.092 Q1682.844,649.904 1682.953,649.858 Q1683.063,649.795 1683.188,649.795 Q1683.438,649.795 1683.609,649.983 Q1683.797,650.154 1683.797,650.404 Q1683.797,650.654 1683.547,650.936 Q1683.188,651.342 1682.625,651.576 Q1681.875,651.889 1680.969,651.889 Q1679.891,651.889 1679.047,651.451 Q1678.344,651.108 1677.859,650.342 Q1677.375,649.576 1677.375,648.686 L1677.375,647.873 Q1677.375,646.936 1677.813,646.123 Q1678.25,645.311 1679.016,644.873 Q1679.797,644.436 1680.656,644.436 Q1681.188,644.436 1681.641,644.561 Q1682.094,644.67 1682.484,644.92 Z " fill="#000"/><text x="1692" y="645.37" fill="#718096" font-size="12" textLength="76.846" font-style="italic" font-family="Segoe UI">«record struct»</text><text x="1697.229" y="660.252" fill="#2D3748" font-size="11" textLength="66.387" font-family="'Segoe UI'">ProbeContext</text><line x1="1668" y1="668.013" x2="1768.846" y2="668.013" style="stroke:#4A5568;stroke-width:0.5;"/><line x1="1668" y1="676.013" x2="1768.846" y2="676.013" style="stroke:#4A5568;stroke-width:0.5;"/></g><!--class ScanEnvironment--><g class="entity" data-qualified-name="ScanEnvironment" id="ent0038" data-source-line="139"><rect x="144.35" y="995.021" width="114.144" height="56.592" fill="#F7FAFC" style="stroke:#4A5568;stroke-width:0.5;" rx="3" ry="3"/><ellipse cx="158.35" cy="1015.317" rx="10" ry="10" fill="#ADD1B2" style="stroke:#181818;stroke-width:1;"/><path d="M159.834,1012.52 Q159.944,1012.364 160.069,1012.286 Q160.209,1012.208 160.366,1012.208 Q160.631,1012.208 160.788,1012.395 Q160.959,1012.583 160.959,1013.004 L160.959,1014.036 Q160.959,1014.458 160.788,1014.645 Q160.631,1014.833 160.366,1014.833 Q160.116,1014.833 159.975,1014.692 Q159.834,1014.567 159.756,1014.192 Q159.725,1013.942 159.6,1013.817 Q159.35,1013.551 158.913,1013.395 Q158.491,1013.239 158.053,1013.239 Q157.522,1013.239 157.069,1013.473 Q156.616,1013.708 156.272,1014.239 Q155.928,1014.754 155.928,1015.489 L155.928,1016.27 Q155.928,1017.129 156.553,1017.708 Q157.194,1018.286 158.303,1018.286 Q158.975,1018.286 159.444,1018.114 Q159.709,1018.004 160.006,1017.692 Q160.194,1017.504 160.303,1017.458 Q160.413,1017.395 160.538,1017.395 Q160.788,1017.395 160.959,1017.583 Q161.147,1017.754 161.147,1018.004 Q161.147,1018.254 160.897,1018.536 Q160.538,1018.942 159.975,1019.176 Q159.225,1019.489 158.319,1019.489 Q157.241,1019.489 156.397,1019.051 Q155.694,1018.708 155.209,1017.942 Q154.725,1017.176 154.725,1016.286 L154.725,1015.473 Q154.725,1014.536 155.163,1013.723 Q155.6,1012.911 156.366,1012.473 Q157.147,1012.036 158.006,1012.036 Q158.538,1012.036 158.991,1012.161 Q159.444,1012.27 159.834,1012.52 Z " fill="#000"/><text x="190.992" y="1012.97" fill="#718096" font-size="12" textLength="44.859" font-style="italic" font-family="Segoe UI">«record»</text><text x="171.35" y="1027.852" fill="#2D3748" font-size="11" textLength="84.144" font-family="'Segoe UI'">ScanEnvironment</text><line x1="145.35" y1="1035.613" x2="257.494" y2="1035.613" style="stroke:#4A5568;stroke-width:0.5;"/><line x1="145.35" y1="1043.613" x2="257.494" y2="1043.613" style="stroke:#4A5568;stroke-width:0.5;"/></g><!--class ScanContext--><g class="entity" data-qualified-name="ScanContext" id="ent0039" data-source-line="140"><rect x="7" y="995.021" width="102.846" height="56.592" fill="#F7FAFC" style="stroke:#4A5568;stroke-width:0.5;" rx="3" ry="3"/><ellipse cx="21" cy="1015.317" rx="10" ry="10" fill="#ADD1B2" style="stroke:#181818;stroke-width:1;"/><path d="M22.484,1012.52 Q22.594,1012.364 22.719,1012.286 Q22.859,1012.208 23.016,1012.208 Q23.281,1012.208 23.438,1012.395 Q23.609,1012.583 23.609,1013.004 L23.609,1014.036 Q23.609,1014.458 23.438,1014.645 Q23.281,1014.833 23.016,1014.833 Q22.766,1014.833 22.625,1014.692 Q22.484,1014.567 22.406,1014.192 Q22.375,1013.942 22.25,1013.817 Q22,1013.551 21.563,1013.395 Q21.141,1013.239 20.703,1013.239 Q20.172,1013.239 19.719,1013.473 Q19.266,1013.708 18.922,1014.239 Q18.578,1014.754 18.578,1015.489 L18.578,1016.27 Q18.578,1017.129 19.203,1017.708 Q19.844,1018.286 20.953,1018.286 Q21.625,1018.286 22.094,1018.114 Q22.359,1018.004 22.656,1017.692 Q22.844,1017.504 22.953,1017.458 Q23.063,1017.395 23.188,1017.395 Q23.438,1017.395 23.609,1017.583 Q23.797,1017.754 23.797,1018.004 Q23.797,1018.254 23.547,1018.536 Q23.188,1018.942 22.625,1019.176 Q21.875,1019.489 20.969,1019.489 Q19.891,1019.489 19.047,1019.051 Q18.344,1018.708 17.859,1017.942 Q17.375,1017.176 17.375,1016.286 L17.375,1015.473 Q17.375,1014.536 17.813,1013.723 Q18.25,1012.911 19.016,1012.473 Q19.797,1012.036 20.656,1012.036 Q21.188,1012.036 21.641,1012.161 Q22.094,1012.27 22.484,1012.52 Z " fill="#000"/><text x="32" y="1012.97" fill="#718096" font-size="12" textLength="76.846" font-style="italic" font-family="Segoe UI">«record struct»</text><text x="40.181" y="1027.852" fill="#2D3748" font-size="11" textLength="60.484" font-family="'Segoe UI'">ScanContext</text><line x1="8" y1="1035.613" x2="108.846" y2="1035.613" style="stroke:#4A5568;stroke-width:0.5;"/><line x1="8" y1="1043.613" x2="108.846" y2="1043.613" style="stroke:#4A5568;stroke-width:0.5;"/></g><g class="entity" data-qualified-name="NEnv" id="ent0060" data-source-line="167"><path d="M1893.7,837.881 L1893.7,915.035 A3,3 0 0 0 1896.7,918.035 L2186.141,918.035 A3,3 0 0 0 2189.141,915.035 L2189.141,844.881 L2179.141,834.881 L1896.7,834.881 A3,3 0 0 0 1893.7,837.881" style="stroke:#D69E2E;stroke-width:0.5;" fill="#FFFAF0"/><path d="M2179.141,834.881 L2179.141,843.381 A1.5,1.5 0 0 0 2180.641,844.881 L2189.141,844.881 L2179.141,834.881" style="stroke:#D69E2E;stroke-width:1;" fill="#FFFAF0"/><text x="1899.7" y="851.751" fill="#000" font-size="11" textLength="270.504" font-weight="700" font-family="'Segoe UI'">ScanEnvironment / ScanContext are deliberately not</text><text x="1899.7" y="866.382" fill="#000" font-size="11" textLength="123.358" font-weight="700" font-family="'Segoe UI'">shares of the Probe pair</text><text x="2023.058" y="866.382" fill="#000" font-size="11" textLength="135.008" font-family="'Segoe UI'">, though they carry seven of</text><text x="1899.7" y="881.013" fill="#000" font-size="11" textLength="273.555" font-family="'Segoe UI'">the same members. Merging them would give each pass</text><text x="1899.7" y="895.644" fill="#000" font-size="11" textLength="259.854" font-family="'Segoe UI'">fields the other ignores - which is how a pass ends up</text><text x="1899.7" y="910.275" fill="#000" font-size="11" textLength="274.441" font-family="'Segoe UI'">reading with the wrong model. Do not "tidy" into a base.</text></g><!--link NamedMarkLedger to GMN25--><g class="link" data-entity-1="ent0024" data-entity-2="ent0026" id="lnk27" data-source-line="108" data-link-type="association"><path d="M956.19,719.761 C961.87,722.801 967.63,725.551 973.42,727.901 C1005.01,740.741 1547.44,810.241 1580.42,818.901 C1589.6,821.311 1598.99,824.101 1608.37,827.121" style="stroke:#4A5568;stroke-width:1;stroke-dasharray:7,7;" fill="none" id="NamedMarkLedger-GMN25"/></g><!--reverse link ChapterDetector to MarkPlacer--><g class="link" data-entity-1="ent0001" data-entity-2="ent0013" id="lnk40" data-source-line="143" data-link-type="composition"><path d="M1199.019,188.312 C1100.549,216.672 984.46,263.791 899.42,348.521 C844.85,402.891 876.71,445.951 830.42,507.531 C807.17,538.461 776.15,566.981 746.53,590.521" style="stroke:#4A5568;stroke-width:1;" fill="none" id="ChapterDetector-backto-MarkPlacer" codeLine="143"/><polygon points="1210.55,184.991,1203.677,182.808,1199.019,188.312,1205.891,190.495,1210.55,184.991" fill="#4A5568" style="stroke:#4A5568;stroke-width:1;stroke-linejoin:miter;stroke-miterlimit:10;"/><text x="900.42" y="432.891" fill="#4A5568" font-size="11" textLength="91.002" font-family="'Segoe UI'">chained via SetLog</text><text x="752.177" y="580.08" fill="#4A5568" font-size="11" font-family="'Segoe UI'">1</text></g><!--reverse link MarkPlacer to PreciseMarkRefiner--><g class="link" data-entity-1="ent0013" data-entity-2="ent0017" id="lnk41" data-source-line="144" data-link-type="composition"><path d="M548.964,727.658 C503.834,758.608 460.05,788.631 416.39,818.571" style="stroke:#4A5568;stroke-width:1;" fill="none" id="MarkPlacer-backto-PreciseMarkRefiner" codeLine="144"/><polygon points="558.86,720.871,551.65,720.966,548.964,727.658,556.174,727.563,558.86,720.871" fill="#4A5568" style="stroke:#4A5568;stroke-width:1;stroke-linejoin:miter;stroke-miterlimit:10;"/><text x="421.76" y="808.168" fill="#4A5568" font-size="11" font-family="'Segoe UI'">1</text></g><!--link ChapterDetector to RegionProber--><g class="link" data-entity-1="ent0001" data-entity-2="ent0005" id="lnk42" data-source-line="145" data-link-type="dependency"><path d="M1261.51,257.811 C1234.85,287.871 1209.558,316.391 1184.538,344.591" style="stroke:#4A5568;stroke-width:1;stroke-dasharray:7,7;" fill="none" id="ChapterDetector-to-RegionProber" codeLine="145"/><polygon points="1181.22,348.331,1190.185,344.254,1184.538,344.591,1184.201,338.944,1181.22,348.331" fill="#4A5568" style="stroke:#4A5568;stroke-width:1;stroke-linejoin:miter;stroke-miterlimit:10;"/><text x="1236.377" y="300.391" fill="#4A5568" font-size="11" textLength="45.531" font-family="'Segoe UI'">«creates»</text><text x="1233.92" y="315.022" fill="#4A5568" font-size="11" textLength="50.445" font-family="'Segoe UI'">per region</text></g><!--link ChapterDetector to RegionScanner--><g class="link" data-entity-1="ent0001" data-entity-2="ent0009" id="lnk43" data-source-line="146" data-link-type="dependency"><path d="M1210.8,173.471 C1041.11,200.541 752.32,256.021 518.42,348.521 C489.39,360.001 463.374,374.283 438.784,389.473" style="stroke:#4A5568;stroke-width:1;stroke-dasharray:7,7;" fill="none" id="ChapterDetector-to-RegionScanner" codeLine="146"/><polygon points="434.53,392.101,444.289,390.774,438.784,389.473,440.085,383.968,434.53,392.101" fill="#4A5568" style="stroke:#4A5568;stroke-width:1;stroke-linejoin:miter;stroke-miterlimit:10;"/><text x="696.95" y="300.391" fill="#4A5568" font-size="11" textLength="45.531" font-family="'Segoe UI'">«creates»</text><text x="700.917" y="315.022" fill="#4A5568" font-size="11" textLength="37.598" font-family="'Segoe UI'">per gap</text></g><!--link ChapterDetector to LanguageResolver--><g class="link" data-entity-1="ent0001" data-entity-2="ent0019" id="lnk44" data-source-line="147" data-link-type="dependency"><path d="M1354.42,257.811 C1354.42,298.901 1354.42,339.081 1354.42,372.421" style="stroke:#4A5568;stroke-width:1;" fill="none" id="ChapterDetector-to-LanguageResolver" codeLine="147"/><polygon points="1354.42,377.421,1358.42,368.421,1354.42,372.421,1350.42,368.421,1354.42,377.421" fill="#4A5568" style="stroke:#4A5568;stroke-width:1;stroke-linejoin:miter;stroke-miterlimit:10;"/></g><!--link ChapterDetector to GapPlanning--><g class="link" data-entity-1="ent0001" data-entity-2="ent0033" id="lnk45" data-source-line="148" data-link-type="dependency"><path d="M1426.3,257.811 C1461.34,308.871 1497.891,362.138 1520.611,395.248" style="stroke:#4A5568;stroke-width:1;stroke-dasharray:7,7;" fill="none" id="ChapterDetector-to-GapPlanning" codeLine="148"/><polygon points="1523.44,399.371,1521.646,389.687,1520.611,395.248,1515.05,394.213,1523.44,399.371" fill="#4A5568" style="stroke:#4A5568;stroke-width:1;stroke-linejoin:miter;stroke-miterlimit:10;"/></g><!--link ChapterDetector to JingleFirstScan--><g class="link" data-entity-1="ent0001" data-entity-2="ent0034" id="lnk46" data-source-line="149" data-link-type="dependency"><path d="M1498.15,257.231 C1534.33,285.511 1572.27,317.061 1605.42,348.521 C1622.03,364.281 1635.72,379.864 1648.5,395.454" style="stroke:#4A5568;stroke-width:1;stroke-dasharray:7,7;" fill="none" id="ChapterDetector-to-JingleFirstScan" codeLine="149"/><polygon points="1651.67,399.321,1649.058,389.825,1648.5,395.454,1642.871,394.897,1651.67,399.321" fill="#4A5568" style="stroke:#4A5568;stroke-width:1;stroke-linejoin:miter;stroke-miterlimit:10;"/></g><!--link ChapterDetector to DescendingSilenceScan--><g class="link" data-entity-1="ent0001" data-entity-2="ent0035" id="lnk47" data-source-line="150" data-link-type="dependency"><path d="M1498,248.121 C1503.83,251.381 1509.65,254.521 1515.42,257.521 C1611.51,307.441 1649.27,291.661 1741.42,348.521 C1764.39,362.691 1783.585,379.415 1800.335,395.795" style="stroke:#4A5568;stroke-width:1;stroke-dasharray:7,7;" fill="none" id="ChapterDetector-to-DescendingSilenceScan" codeLine="150"/><polygon points="1803.91,399.291,1800.272,390.139,1800.335,395.795,1794.679,395.858,1803.91,399.291" fill="#4A5568" style="stroke:#4A5568;stroke-width:1;stroke-linejoin:miter;stroke-miterlimit:10;"/></g><!--link RegionProber to ProbeEnvironment--><g class="link" data-entity-1="ent0005" data-entity-2="ent0036" id="lnk48" data-source-line="152" data-link-type="dependency"><path d="M1212.96,499.311 C1218.44,502.241 1223.95,505.001 1229.42,507.531 C1341.04,559.081 1388.25,523.261 1495.42,583.531 C1515.41,594.771 1530.929,608.573 1545.039,623.363" style="stroke:#4A5568;stroke-width:1;stroke-dasharray:7,7;" fill="none" id="RegionProber-to-ProbeEnvironment" codeLine="152"/><polygon points="1548.49,626.981,1545.172,617.708,1545.039,623.363,1539.383,623.23,1548.49,626.981" fill="#4A5568" style="stroke:#4A5568;stroke-width:1;stroke-linejoin:miter;stroke-miterlimit:10;"/><text x="1422.8" y="550.401" fill="#4A5568" font-size="11" textLength="39.623" font-family="'Segoe UI'">borrows</text></g><!--link RegionProber to ProbeContext--><g class="link" data-entity-1="ent0005" data-entity-2="ent0037" id="lnk49" data-source-line="153" data-link-type="dependency"><path d="M1212.86,500.521 C1218.35,503.111 1223.88,505.471 1229.42,507.531 C1407.67,573.691 1486.3,487.531 1650.42,583.531 C1669.16,594.491 1682.872,608.223 1695.122,623.183" style="stroke:#4A5568;stroke-width:1;stroke-dasharray:7,7;" fill="none" id="RegionProber-to-ProbeContext" codeLine="153"/><polygon points="1698.29,627.051,1695.683,617.554,1695.122,623.183,1689.493,622.622,1698.29,627.051" fill="#4A5568" style="stroke:#4A5568;stroke-width:1;stroke-linejoin:miter;stroke-miterlimit:10;"/><text x="1587.01" y="550.401" fill="#4A5568" font-size="11" textLength="39.623" font-family="'Segoe UI'">borrows</text></g><!--link RegionScanner to ScanEnvironment--><g class="link" data-entity-1="ent0009" data-entity-2="ent0038" id="lnk50" data-source-line="154" data-link-type="dependency"><path d="M326.98,463.921 C288.11,491.481 238.46,533.561 211.42,583.531 C136.88,721.291 151.26,779.101 174.42,934.021 C177.52,954.791 182.847,972.709 188.937,989.859" style="stroke:#4A5568;stroke-width:1;stroke-dasharray:7,7;" fill="none" id="RegionScanner-to-ScanEnvironment" codeLine="154"/><polygon points="190.61,994.571,191.368,984.751,188.937,989.859,183.829,987.428,190.61,994.571" fill="#4A5568" style="stroke:#4A5568;stroke-width:1;stroke-linejoin:miter;stroke-miterlimit:10;"/><text x="157.15" y="778.271" fill="#4A5568" font-size="11" textLength="39.623" font-family="'Segoe UI'">borrows</text></g><!--link RegionScanner to ScanContext--><g class="link" data-entity-1="ent0009" data-entity-2="ent0039" id="lnk51" data-source-line="155" data-link-type="dependency"><path d="M301.48,464.041 C250.81,489.981 188.19,530.081 150.42,583.531 C57.43,715.101 54.511,915.794 56.861,989.704" style="stroke:#4A5568;stroke-width:1;stroke-dasharray:7,7;" fill="none" id="RegionScanner-to-ScanContext" codeLine="155"/><polygon points="57.02,994.701,60.732,985.579,56.861,989.704,52.736,985.833,57.02,994.701" fill="#4A5568" style="stroke:#4A5568;stroke-width:1;stroke-linejoin:miter;stroke-miterlimit:10;"/><text x="78.74" y="778.271" fill="#4A5568" font-size="11" textLength="39.623" font-family="'Segoe UI'">borrows</text></g><!--link RegionProber to MarkPlacer--><g class="link" data-entity-1="ent0005" data-entity-2="ent0013" id="lnk52" data-source-line="157" data-link-type="dependency"><path d="M1009.79,500.351 C978.41,519.861 942.99,539.481 908.42,553.531 C852.28,576.341 831.84,561.431 775.42,583.531 C769.68,585.781 768.422,586.171 762.642,588.831" style="stroke:#4A5568;stroke-width:1;" fill="none" id="RegionProber-to-MarkPlacer" codeLine="157"/><polygon points="758.1,590.921,767.948,590.792,762.642,588.831,764.604,583.525,758.1,590.921" fill="#4A5568" style="stroke:#4A5568;stroke-width:1;stroke-linejoin:miter;stroke-miterlimit:10;"/></g><!--link RegionScanner to MarkPlacer--><g class="link" data-entity-1="ent0009" data-entity-2="ent0013" id="lnk53" data-source-line="158" data-link-type="dependency"><path d="M424.31,464.041 C464.6,497.721 522.624,546.225 571.764,587.295" style="stroke:#4A5568;stroke-width:1;" fill="none" id="RegionScanner-to-MarkPlacer" codeLine="158"/><polygon points="575.6,590.501,571.259,581.66,571.764,587.295,566.129,587.799,575.6,590.501" fill="#4A5568" style="stroke:#4A5568;stroke-width:1;stroke-linejoin:miter;stroke-miterlimit:10;"/></g><!--link RegionProber to SuspectNumberMender--><g class="link" data-entity-1="ent0005" data-entity-2="ent0018" id="lnk54" data-source-line="159" data-link-type="dependency"><path d="M1202.71,507.961 C1233.87,534.911 1264.538,561.431 1294.218,587.091" style="stroke:#4A5568;stroke-width:1;" fill="none" id="RegionProber-to-SuspectNumberMender" codeLine="159"/><polygon points="1298,590.361,1293.808,581.449,1294.218,587.091,1288.576,587.501,1298,590.361" fill="#4A5568" style="stroke:#4A5568;stroke-width:1;stroke-linejoin:miter;stroke-miterlimit:10;"/></g><!--link MarkPlacer to AnnouncementIsolation--><g class="link" data-entity-1="ent0013" data-entity-2="ent0020" id="lnk55" data-source-line="160" data-link-type="dependency"><path d="M683.51,720.871 C702.44,759.951 723.73,803.882 739.3,836.012" style="stroke:#4A5568;stroke-width:1;stroke-dasharray:7,7;" fill="none" id="MarkPlacer-to-AnnouncementIsolation" codeLine="160"/><polygon points="741.48,840.511,741.155,830.668,739.3,836.012,733.956,834.156,741.48,840.511" fill="#4A5568" style="stroke:#4A5568;stroke-width:1;stroke-linejoin:miter;stroke-miterlimit:10;"/><text x="719.871" y="770.771" fill="#4A5568" font-size="11" textLength="45.375" font-family="'Segoe UI'">one gate,</text><text x="715.91" y="785.402" fill="#4A5568" font-size="11" textLength="53.297" font-family="'Segoe UI'">every mark</text></g><!--link MarkPlacer to RefinedNumberVote--><g class="link" data-entity-1="ent0013" data-entity-2="ent0028" id="lnk56" data-source-line="161" data-link-type="dependency"><path d="M629.54,720.871 C614.53,762.971 597.33,811.222 586.01,842.962" style="stroke:#4A5568;stroke-width:1;stroke-dasharray:7,7;" fill="none" id="MarkPlacer-to-RefinedNumberVote" codeLine="161"/><polygon points="584.33,847.671,591.121,840.538,586.01,842.962,583.586,837.85,584.33,847.671" fill="#4A5568" style="stroke:#4A5568;stroke-width:1;stroke-linejoin:miter;stroke-miterlimit:10;"/></g><!--link MarkPlacer to RefinedConfidence--><g class="link" data-entity-1="ent0013" data-entity-2="ent0029" id="lnk57" data-source-line="162" data-link-type="dependency"><path d="M757.89,721.091 C763.72,723.591 769.59,725.891 775.42,727.901 C1050.36,822.721 1153.39,710.911 1423.42,818.901 C1436.73,824.231 1445.842,829.344 1457.512,837.684" style="stroke:#4A5568;stroke-width:1;stroke-dasharray:7,7;" fill="none" id="MarkPlacer-to-RefinedConfidence" codeLine="162"/><polygon points="1461.58,840.591,1456.583,832.104,1457.512,837.684,1451.932,838.613,1461.58,840.591" fill="#4A5568" style="stroke:#4A5568;stroke-width:1;stroke-linejoin:miter;stroke-miterlimit:10;"/></g><!--link RegionProber to NamedMarkLedger--><g class="link" data-entity-1="ent0005" data-entity-2="ent0024" id="lnk58" data-source-line="163" data-link-type="dependency"><path d="M1028.53,507.961 C1002.77,532.491 978.151,555.933 952.961,579.923" style="stroke:#4A5568;stroke-width:1;" fill="none" id="RegionProber-to-NamedMarkLedger" codeLine="163"/><polygon points="949.34,583.371,958.616,580.061,952.961,579.923,953.099,574.268,949.34,583.371" fill="#4A5568" style="stroke:#4A5568;stroke-width:1;stroke-linejoin:miter;stroke-miterlimit:10;"/></g><!--link RegionScanner to NamedMarkLedger--><g class="link" data-entity-1="ent0009" data-entity-2="ent0024" id="lnk59" data-source-line="164" data-link-type="dependency"><path d="M436.15,463.961 C460.56,478.801 490.24,495.431 518.42,507.531 C627.87,554.521 668.45,531.131 775.42,583.531 C781.12,586.321 782.535,586.915 788.205,590.235" style="stroke:#4A5568;stroke-width:1;" fill="none" id="RegionScanner-to-NamedMarkLedger" codeLine="164"/><polygon points="792.52,592.761,786.775,584.762,788.205,590.235,782.732,591.665,792.52,592.761" fill="#4A5568" style="stroke:#4A5568;stroke-width:1;stroke-linejoin:miter;stroke-miterlimit:10;"/></g><!--link ProbeEnvironment to NEnv--><g class="link" data-entity-1="ent0036" data-entity-2="ent0060" id="lnk61" data-source-line="173" data-link-type="association"><path d="M1596.35,684.441 C1610.46,699.241 1629.43,716.661 1649.42,727.901 C1691.72,751.691 1708.56,742.011 1754.42,757.901 C1820.31,780.731 1892.98,810.551 1948.71,834.441" style="stroke:#4A5568;stroke-width:1;stroke-dasharray:7,7;" fill="none" id="ProbeEnvironment-NEnv" codeLine="173"/></g><!--link NEnv to ScanEnvironment--><g class="link" data-entity-1="ent0060" data-entity-2="ent0038" id="lnk62" data-source-line="174" data-link-type="association"><path d="M1935.65,918.541 C1916.2,924.701 1895.89,930.241 1876.42,934.021 C1556.41,996.041 515.11,1017.111 258.81,1021.421" style="stroke:#4A5568;stroke-width:1;stroke-dasharray:7,7;" fill="none" id="NEnv-ScanEnvironment" codeLine="174"/></g><?plantuml-src ZLXRRnit5dxNh-3gfQrgATXNmr3XE6utXUEuLZPzAL1GmwCPhYboIdAig4Nos_Sxv8mkCvCB4DWnUUxdEnVElxGjJAD8_1dYtj12DripYJeQ4gyeKX6riu9igIs9kOWLYLg6G458gyIkaf7FzcBjl7UxoQGmk1KtbQmZ-Ip0UN5r5KWQKikb-6SYn8zlQnORnAMuCRhz0-VpELzchkkmjyNtFu3adGnFLmTR7Yaq9YwPaF-xfJSw16tBDz8_XMzWUazUR_Qt7tI8u6eDxJDceYFNfopf5rb_WuhanPLU1lgh8LkGy5HBxSNt8SgeYn-kNkWaSqKHKRvnncZLSu2l7nFNgXNojeb67mrDDdbNtyijAUQyBIf7eUCCpZpJRQsDAnjwCBAWBTc8suyJwo8iqcKLXTlq4mNk6wGY-gQ8fCHiLfCN6sreDhiGu1Jyjs_ifP1YuumY_rqGRcVPuVLo8TT5bgV_fddXx4QNLo_MIx6LUr4nNcAbGv87VgKt6_8m2ynrvMMW2s6aBHjPaW1cjl1Ar9tjO9KsmGy0W-cM5k1xn_Y3o8J3hNm2BAVMiPNpf8KZZf-DVzRF5AP2WYTxrtXfH8q8aezxuIKa-wn3Gb243nmU3ztRDVon9JYZ4uKXwOMEYmd17Ovb1_b7Ae621-z0tiVxfziFDKCw0ZNADMj3wL1wixz6uN2eBr51pl3nIp9kbnb8hQBqyRvX6q2YRVo9IQuLHrczgpo52cbO4OAjma5w8hffGdJRExtLyJyw7XKaU7vwREmvaZCYCzXUkWRYqbNMdGywzAnTX6IEpwdJezZnYM0sMuoa2WnJUYQ_5xKcb0daSU8o2-TcVKWWHu7fD-pmz2I56PKIUW954ToMrauns0Ao1OOkWPoxdTUHFfUuLI6j7SdS84vNT-WSRTcJQkjdkHnKrfdOByRc8i4we995W3WIAPx91quLeDwIufTKxBnCIcBbNLDMGu-u7wIY7t67DjecB3ruAdGWfcqF-VvN8DtG8ycYweFg09qakXUKWqgkrP-M6QH07lhLjRL0JzU1Je1-vnfbAOHxcDuJ1nzXo26eXZOffaV7m7_Bq453iINY2KXMiratcfJZVClSGXotO9tWesWZqQJdMuTvLxkWqt03A9yicjX2l4MezROsoLR9bnVSC5oR4UvWd531IULcoAOa9U7OpSn-c91Xh0U9-PR0PzuJORsedQavZAuyo_Zm9MsSfwofnvervR5aPVtE_TPeG3p41uUcyndYZvr_goPmkygzuWsy7t4mm-4C0B-ZzLM_DT22ICEgiqiMqzEhEsWzSg3KTHo9mGcDLF-rDfb4uv8Ezj-rOwSTd6DbaoxwdQ1bMt6JIah_oIF-erZLH4Nrq4AidSk7ssxxI7W-eJaOT5ephw4wOP6jIW8wgmxo3YIF3ORUY-FVDnKLJuFMD2eT0gzjs67545FkexcoDEzvcLe9Z4YQSaNCPX28SfkcUOv_tC3aYTGf3-U7nXDaIhF_cqH9B1Eztd5ytr-_4Y65YEkBIkP1jqFHe4OBn-lGi8eEkyuTgN8aIMc1GcxE6ZGVBhy-3b-7r-ZLs0RECBYgN6CKxrbdnzU66_4-TIAWyFnEgUEQTHoKFTlJwa9f4y82PPsTTq1jsqbUba3X6bwuJ9gMSksQj6vlBx0AfC6GMz2Q2ja4wlT1iA2l2UFS4mJvn7dPzhAK1XGazpAb5G0SEBEflQMxD9EYfrXKwAY86FiSME-cCGRpVCVp5I7Jk8Q7qmG3dIW2H_A2WQ5vEAkcDhg0YYauTXnIM2pY3Yqw8sviA7EhKxcZlETO7i5_JdB3QwPAUtQlFduyrCSRKbhQbATkGUfDbe4mBeUK2-IdEAfeiJwRRPD8X1hCE4ch1ejW98E5WmKGX_Rwh3ZopfAPmC9qOeVVRlSTBySbbqr-QUNJJkdE-H3dQGjYDEMyyWKMSX7JyelLYZVOCsLvzBL59h0oeFEGsOkmamQR9cjd8VzBOs4XxW-shId4rdx09lBUbfF7sritNPCHMumL1WDsQQdpbiv7UOVBngDKVL49IwH83VEDbnNAoV8K66OwJwoVDTnF-1mGlA9GK0ha2XK5p_jaa-XAIYi-0wCRoZ3krZvhxsmApTKLvgVpw2VdD015f0_7-tRzJ3lVY5pM_HMnJF8bgPF--tasdulflwUdczsbm5kBCIkUjHHuIzwvSd9otx6Cx7bzwOl5ylpvSWch2a0OJM6v_CCUbzKli7OBz0XlAUi1uto-78pTKUado1Yzxu5Zb6OK7vF9cSzCDu34PVjT8to6jajYdwuB1XFsyV0rsg7CS-KSkPD5-5p8wEK9uyYcTWeQjc5yzxXCuwP4MY_-iFdLnlNVPnxqxSyGd3JQWOtzMJdqi4-HUpdUI_S8TFuMqO_wYxFOIZGdHKP39Jn2CuG0_bAHUV4AytHetNbUyhSOfk376h-wybUlGde48Y0Uc9eR_aJGlUJoipCiC7jysVRORTi_I_rCWZVzDAVJ522ZSfzqgPleqZesOOxdiWOT9a25GI0JWo1-7JHrcZco7H-noZC2_fQ2tpSOqQzScZJJgDL-oXyF-4sqbk7q4Jo0_6AHeyW_-8zU82V_1m00?></g></svg>