<svg xmlns="http://www.w3.org/2000/svg" xmlns:xlink="http://www.w3.org/1999/xlink" version="1.1" data-diagram-type="CLASS" style="width:2265px;height:861px;background:#FFFFFF;" width="2265px" height="861px" viewBox="0 0 2265 861" zoomAndPan="magnify" preserveAspectRatio="none" contentStyleType="text/css"><?plantuml 1.2026.7?><defs/><g font-family="sans-serif" lengthAdjust="spacing"><g class="title" data-source-line="2"><text x="929.675" y="25.107" fill="#000" font-size="14" textLength="398.932" font-weight="700" font-family="'Segoe UI'">Media and recognition - three interfaces, one native resolver</text></g><!--cluster Audio--><g class="cluster" data-qualified-name="Audio" id="ent0001" data-source-line="4"><path d="M9,341.371 L42.873,341.371 A4.5,4.5 0 0 1 45.873,344.371 L52.873,363.332 L756,363.332 A3,3 0 0 1 759,366.332 L759,843.121 A3,3 0 0 1 756,846.121 L9,846.121 A3,3 0 0 1 6,843.121 L6,344.371 A3,3 0 0 1 9,341.371" style="stroke:#A0AEC0;stroke-width:1.5;" fill="#FFF"/><line x1="6" y1="363.332" x2="52.873" y2="363.332" style="stroke:#A0AEC0;stroke-width:1.5;"/><text x="10" y="356.32" fill="#2D3748" font-size="12" textLength="33.873" font-weight="700" font-family="'Segoe UI'">Audio</text></g><!--cluster Vad--><g class="cluster" data-qualified-name="Vad" id="ent0011" data-source-line="40"><path d="M1041,52.941 L1062.891,52.941 A4.5,4.5 0 0 1 1065.891,55.941 L1072.891,74.902 L1549,74.902 A3,3 0 0 1 1552,77.902 L1552,505.501 A3,3 0 0 1 1549,508.501 L1041,508.501 A3,3 0 0 1 1038,505.501 L1038,55.941 A3,3 0 0 1 1041,52.941" style="stroke:#A0AEC0;stroke-width:1.5;" fill="#FFF"/><line x1="1038" y1="74.902" x2="1072.891" y2="74.902" style="stroke:#A0AEC0;stroke-width:1.5;"/><text x="1042" y="67.89" fill="#2D3748" font-size="12" textLength="21.891" font-weight="700" font-family="'Segoe UI'">Vad</text></g><!--cluster Transcription--><g class="cluster" data-qualified-name="Transcription" id="ent0017" data-source-line="62"><path d="M1579,45.621 L1653.865,45.621 A4.5,4.5 0 0 1 1656.865,48.621 L1663.865,67.582 L1958,67.582 A3,3 0 0 1 1961,70.582 L1961,490.871 A3,3 0 0 1 1958,493.871 L1579,493.871 A3,3 0 0 1 1576,490.871 L1576,48.621 A3,3 0 0 1 1579,45.621" style="stroke:#A0AEC0;stroke-width:1.5;" fill="#FFF"/><line x1="1576" y1="67.582" x2="1663.865" y2="67.582" style="stroke:#A0AEC0;stroke-width:1.5;"/><text x="1580" y="60.57" fill="#2D3748" font-size="12" textLength="74.865" font-weight="700" font-family="'Segoe UI'">Transcription</text></g><!--class IAudioSource--><g class="entity" data-qualified-name="Audio.IAudioSource" id="ent0002" data-source-line="5"><rect x="21.67" y="375.371" width="240.66" height="119.154" fill="#F7FAFC" style="stroke:#4A5568;stroke-width:0.5;" rx="3" ry="3"/><ellipse cx="106.869" cy="390.371" rx="10" ry="10" fill="#B4A7E5" style="stroke:#181818;stroke-width:1;"/><path d="M108.072,388.465 L108.072,393.168 L109.291,393.168 Q109.713,393.168 109.9,393.34 Q110.088,393.496 110.088,393.777 Q110.088,394.043 109.9,394.215 Q109.713,394.371 109.291,394.371 L105.65,394.371 Q105.229,394.371 105.041,394.215 Q104.854,394.043 104.854,393.762 Q104.854,393.496 105.041,393.34 Q105.229,393.168 105.65,393.168 L106.869,393.168 L106.869,388.465 L105.65,388.465 Q105.229,388.465 105.041,388.309 Q104.854,388.137 104.854,387.871 Q104.854,387.59 105.041,387.434 Q105.229,387.262 105.65,387.262 L109.291,387.262 Q109.713,387.262 109.9,387.434 Q110.088,387.59 110.088,387.871 Q110.088,388.137 109.9,388.309 Q109.713,388.465 109.291,388.465 L108.072,388.465 Z " fill="#000"/><text x="125.869" y="394.926" fill="#2D3748" font-size="11" textLength="62.262" font-style="italic" font-family="'Segoe UI'">IAudioSource</text><line x1="22.67" y1="405.371" x2="261.33" y2="405.371" style="stroke:#4A5568;stroke-width:0.5;"/><line x1="22.67" y1="413.371" x2="261.33" y2="413.371" style="stroke:#4A5568;stroke-width:0.5;"/><g data-visibility-modifier="PUBLIC_METHOD"><ellipse cx="32.67" cy="426.187" rx="3" ry="3" fill="#84BE84" style="stroke:#038048;stroke-width:1;"/></g><text x="40.67" y="429.241" fill="#2D3748" font-size="11" textLength="158.044" font-family="'Segoe UI'">ProbeAsync() : Task&lt;MediaInfo></text><g data-visibility-modifier="PUBLIC_METHOD"><ellipse cx="32.67" cy="440.817" rx="3" ry="3" fill="#84BE84" style="stroke:#038048;stroke-width:1;"/></g><text x="40.67" y="443.872" fill="#2D3748" font-size="11" textLength="166.439" font-family="'Segoe UI'">DecodePcmAsync() : Task&lt;float[]></text><g data-visibility-modifier="PUBLIC_METHOD"><ellipse cx="32.67" cy="455.448" rx="3" ry="3" fill="#84BE84" style="stroke:#038048;stroke-width:1;"/></g><text x="40.67" y="458.503" fill="#2D3748" font-size="11" textLength="215.66" font-family="'Segoe UI'">DetectSilencesAsync() : Task&lt;List&lt;Silence>></text><g data-visibility-modifier="PUBLIC_METHOD"><ellipse cx="32.67" cy="470.079" rx="3" ry="3" fill="#84BE84" style="stroke:#038048;stroke-width:1;"/></g><text x="40.67" y="473.134" fill="#2D3748" font-size="11" textLength="180.168" font-family="'Segoe UI'">DetectSilencesAndStreamPcmAsync()</text><g data-visibility-modifier="PUBLIC_METHOD"><ellipse cx="32.67" cy="484.71" rx="3" ry="3" fill="#84BE84" style="stroke:#038048;stroke-width:1;"/></g><text x="40.67" y="487.765" fill="#2D3748" font-size="11" textLength="171.322" font-family="'Segoe UI'">WriteChaptersAsync() : Task&lt;bool></text></g><!--class FfmpegClient--><g class="entity" data-qualified-name="Audio.FfmpegClient" id="ent0003" data-source-line="12"><rect x="101.96" y="554.521" width="220.073" height="159.008" fill="#F7FAFC" style="stroke:#4A5568;stroke-width:0.5;" rx="3" ry="3"/><ellipse cx="168.978" cy="574.817" rx="10" ry="10" fill="#ADD1B2" style="stroke:#181818;stroke-width:1;"/><path d="M170.462,572.02 Q170.572,571.864 170.697,571.786 Q170.837,571.708 170.993,571.708 Q171.259,571.708 171.415,571.895 Q171.587,572.083 171.587,572.504 L171.587,573.536 Q171.587,573.958 171.415,574.145 Q171.259,574.333 170.993,574.333 Q170.743,574.333 170.603,574.192 Q170.462,574.067 170.384,573.692 Q170.353,573.442 170.228,573.317 Q169.978,573.051 169.54,572.895 Q169.118,572.739 168.681,572.739 Q168.15,572.739 167.697,572.973 Q167.243,573.208 166.9,573.739 Q166.556,574.254 166.556,574.989 L166.556,575.77 Q166.556,576.629 167.181,577.208 Q167.822,577.786 168.931,577.786 Q169.603,577.786 170.072,577.614 Q170.337,577.504 170.634,577.192 Q170.822,577.004 170.931,576.958 Q171.04,576.895 171.165,576.895 Q171.415,576.895 171.587,577.083 Q171.775,577.254 171.775,577.504 Q171.775,577.754 171.525,578.036 Q171.165,578.442 170.603,578.676 Q169.853,578.989 168.947,578.989 Q167.868,578.989 167.025,578.551 Q166.322,578.208 165.837,577.442 Q165.353,576.676 165.353,575.786 L165.353,574.973 Q165.353,574.036 165.79,573.223 Q166.228,572.411 166.993,571.973 Q167.775,571.536 168.634,571.536 Q169.165,571.536 169.618,571.661 Q170.072,571.77 170.462,572.02 Z " fill="#000"/><text x="185.978" y="572.47" fill="#718096" font-size="12" textLength="82.037" font-style="italic" font-family="Segoe UI">«sealed partial»</text><text x="194.582" y="587.352" fill="#2D3748" font-size="11" textLength="64.829" font-family="'Segoe UI'">FfmpegClient</text><line x1="102.96" y1="595.113" x2="321.033" y2="595.113" style="stroke:#4A5568;stroke-width:0.5;"/><g data-visibility-modifier="PUBLIC_FIELD"><ellipse cx="112.96" cy="607.928" rx="3" ry="3" fill="none" style="stroke:#038048;stroke-width:1;"/></g><text x="120.96" y="610.983" fill="#2D3748" font-size="11" textLength="121.682" text-decoration="underline" font-family="'Segoe UI'">SampleRate : int = 16000</text><line x1="102.96" y1="617.744" x2="321.033" y2="617.744" style="stroke:#4A5568;stroke-width:0.5;"/><g data-visibility-modifier="PUBLIC_METHOD"><ellipse cx="112.96" cy="630.559" rx="3" ry="3" fill="#84BE84" style="stroke:#038048;stroke-width:1;"/></g><text x="120.96" y="633.614" fill="#2D3748" font-size="11" textLength="158.044" font-family="'Segoe UI'">ProbeAsync() : Task&lt;MediaInfo></text><g data-visibility-modifier="PUBLIC_METHOD"><ellipse cx="112.96" cy="645.19" rx="3" ry="3" fill="#84BE84" style="stroke:#038048;stroke-width:1;"/></g><text x="120.96" y="648.245" fill="#2D3748" font-size="11" textLength="166.439" font-family="'Segoe UI'">DecodePcmAsync() : Task&lt;float[]></text><g data-visibility-modifier="PUBLIC_METHOD"><ellipse cx="112.96" cy="659.821" rx="3" ry="3" fill="#84BE84" style="stroke:#038048;stroke-width:1;"/></g><text x="120.96" y="662.876" fill="#2D3748" font-size="11" textLength="180.168" font-family="'Segoe UI'">DetectSilencesAndStreamPcmAsync()</text><g data-visibility-modifier="PUBLIC_METHOD"><ellipse cx="112.96" cy="674.452" rx="3" ry="3" fill="#84BE84" style="stroke:#038048;stroke-width:1;"/></g><text x="120.96" y="677.506" fill="#2D3748" font-size="11" textLength="171.322" font-family="'Segoe UI'">WriteChaptersAsync() : Task&lt;bool></text><g data-visibility-modifier="PUBLIC_METHOD"><ellipse cx="112.96" cy="689.083" rx="3" ry="3" fill="#84BE84" style="stroke:#038048;stroke-width:1;"/></g><text x="120.96" y="692.137" fill="#2D3748" font-size="11" textLength="195.073" font-family="'Segoe UI'">SupportsLibFdkAacAsync() : Task&lt;bool></text><g data-visibility-modifier="PACKAGE_PRIVATE_METHOD"><polygon points="112.96,699.713,108.96,705.713,116.96,705.713" fill="#FFF" style="stroke:#A0AEC0;stroke-width:1;stroke-linejoin:miter;stroke-miterlimit:10;"/></g><text x="120.96" y="706.768" fill="#2D3748" font-size="11" textLength="148.274" text-decoration="underline" font-family="'Segoe UI'">SwapInto() / BuildFfMetadata()</text></g><!--class FfmpegLocator--><g class="entity" data-qualified-name="Audio.FfmpegLocator" id="ent0004" data-source-line="21"><rect x="22.36" y="773.531" width="103.283" height="56.592" fill="#F7FAFC" style="stroke:#4A5568;stroke-width:0.5;" rx="3" ry="3"/><ellipse cx="36.36" cy="793.827" rx="10" ry="10" fill="#ADD1B2" style="stroke:#181818;stroke-width:1;"/><path d="M37.844,791.03 Q37.954,790.874 38.079,790.796 Q38.219,790.718 38.376,790.718 Q38.641,790.718 38.798,790.905 Q38.969,791.093 38.969,791.514 L38.969,792.546 Q38.969,792.968 38.798,793.155 Q38.641,793.343 38.376,793.343 Q38.126,793.343 37.985,793.202 Q37.844,793.077 37.766,792.702 Q37.735,792.452 37.61,792.327 Q37.36,792.061 36.923,791.905 Q36.501,791.749 36.063,791.749 Q35.532,791.749 35.079,791.983 Q34.626,792.218 34.282,792.749 Q33.938,793.264 33.938,793.999 L33.938,794.78 Q33.938,795.639 34.563,796.218 Q35.204,796.796 36.313,796.796 Q36.985,796.796 37.454,796.624 Q37.719,796.514 38.016,796.202 Q38.204,796.014 38.313,795.968 Q38.423,795.905 38.548,795.905 Q38.798,795.905 38.969,796.093 Q39.157,796.264 39.157,796.514 Q39.157,796.764 38.907,797.046 Q38.548,797.452 37.985,797.686 Q37.235,797.999 36.329,797.999 Q35.251,797.999 34.407,797.561 Q33.704,797.218 33.219,796.452 Q32.735,795.686 32.735,794.796 L32.735,793.983 Q32.735,793.046 33.173,792.233 Q33.61,791.421 34.376,790.983 Q35.157,790.546 36.016,790.546 Q36.548,790.546 37.001,790.671 Q37.454,790.78 37.844,791.03 Z " fill="#000"/><text x="66.162" y="791.48" fill="#718096" font-size="12" textLength="39.68" font-style="italic" font-family="Segoe UI">«static»</text><text x="49.36" y="806.362" fill="#2D3748" font-size="11" textLength="73.283" font-family="'Segoe UI'">FfmpegLocator</text><line x1="23.36" y1="814.123" x2="124.643" y2="814.123" style="stroke:#4A5568;stroke-width:0.5;"/><line x1="23.36" y1="822.123" x2="124.643" y2="822.123" style="stroke:#4A5568;stroke-width:0.5;"/></g><!--class SpeechDenoiser--><g class="entity" data-qualified-name="Audio.SpeechDenoiser" id="ent0005" data-source-line="22"><rect x="296.92" y="384.701" width="108.166" height="100.484" fill="#F7FAFC" style="stroke:#4A5568;stroke-width:0.5;" rx="3" ry="3"/><ellipse cx="310.92" cy="404.997" rx="10" ry="10" fill="#ADD1B2" style="stroke:#181818;stroke-width:1;"/><path d="M312.404,402.2 Q312.514,402.044 312.639,401.966 Q312.779,401.888 312.936,401.888 Q313.201,401.888 313.358,402.075 Q313.529,402.263 313.529,402.684 L313.529,403.716 Q313.529,404.138 313.358,404.325 Q313.201,404.513 312.936,404.513 Q312.686,404.513 312.545,404.372 Q312.404,404.247 312.326,403.872 Q312.295,403.622 312.17,403.497 Q311.92,403.231 311.483,403.075 Q311.061,402.919 310.623,402.919 Q310.092,402.919 309.639,403.153 Q309.186,403.388 308.842,403.919 Q308.498,404.434 308.498,405.169 L308.498,405.95 Q308.498,406.809 309.123,407.388 Q309.764,407.966 310.873,407.966 Q311.545,407.966 312.014,407.794 Q312.279,407.684 312.576,407.372 Q312.764,407.184 312.873,407.138 Q312.983,407.075 313.108,407.075 Q313.358,407.075 313.529,407.263 Q313.717,407.434 313.717,407.684 Q313.717,407.934 313.467,408.216 Q313.108,408.622 312.545,408.856 Q311.795,409.169 310.889,409.169 Q309.811,409.169 308.967,408.731 Q308.264,408.388 307.779,407.622 Q307.295,406.856 307.295,405.966 L307.295,405.153 Q307.295,404.216 307.733,403.403 Q308.17,402.591 308.936,402.153 Q309.717,401.716 310.576,401.716 Q311.108,401.716 311.561,401.841 Q312.014,401.95 312.404,402.2 Z " fill="#000"/><text x="340.564" y="402.65" fill="#718096" font-size="12" textLength="44.877" font-style="italic" font-family="Segoe UI">«sealed»</text><text x="323.92" y="417.532" fill="#2D3748" font-size="11" textLength="78.166" font-family="'Segoe UI'">SpeechDenoiser</text><line x1="297.92" y1="425.293" x2="404.086" y2="425.293" style="stroke:#4A5568;stroke-width:0.5;"/><g data-visibility-modifier="PUBLIC_FIELD"><ellipse cx="307.92" cy="438.108" rx="3" ry="3" fill="none" style="stroke:#038048;stroke-width:1;"/></g><text x="315.92" y="441.163" fill="#2D3748" font-size="11" textLength="78.482" text-decoration="underline" font-family="'Segoe UI'">SampleRate : int</text><line x1="297.92" y1="447.924" x2="404.086" y2="447.924" style="stroke:#4A5568;stroke-width:0.5;"/><g data-visibility-modifier="PUBLIC_METHOD"><ellipse cx="307.92" cy="460.739" rx="3" ry="3" fill="#84BE84" style="stroke:#038048;stroke-width:1;"/></g><text x="315.92" y="463.794" fill="#2D3748" font-size="11" textLength="82.785" font-family="'Segoe UI'">Denoise() : float[]</text><g data-visibility-modifier="PUBLIC_METHOD"><ellipse cx="307.92" cy="475.37" rx="3" ry="3" fill="#84BE84" style="stroke:#038048;stroke-width:1;"/></g><text x="315.92" y="478.425" fill="#2D3748" font-size="11" textLength="45.015" font-family="'Segoe UI'">Dispose()</text></g><!--class AudioFidelity--><g class="entity" data-qualified-name="Audio.AudioFidelity" id="ent0006" data-source-line="27"><rect x="439.65" y="392.021" width="120.708" height="85.854" fill="#F7FAFC" style="stroke:#4A5568;stroke-width:0.5;" rx="3" ry="3"/><ellipse cx="465.871" cy="412.317" rx="10" ry="10" fill="#ADD1B2" style="stroke:#181818;stroke-width:1;"/><path d="M467.355,409.52 Q467.464,409.364 467.589,409.286 Q467.73,409.208 467.886,409.208 Q468.152,409.208 468.308,409.395 Q468.48,409.583 468.48,410.004 L468.48,411.036 Q468.48,411.458 468.308,411.645 Q468.152,411.833 467.886,411.833 Q467.636,411.833 467.496,411.692 Q467.355,411.567 467.277,411.192 Q467.246,410.942 467.121,410.817 Q466.871,410.551 466.433,410.395 Q466.011,410.239 465.574,410.239 Q465.042,410.239 464.589,410.473 Q464.136,410.708 463.792,411.239 Q463.449,411.754 463.449,412.489 L463.449,413.27 Q463.449,414.129 464.074,414.708 Q464.714,415.286 465.824,415.286 Q466.496,415.286 466.964,415.114 Q467.23,415.004 467.527,414.692 Q467.714,414.504 467.824,414.458 Q467.933,414.395 468.058,414.395 Q468.308,414.395 468.48,414.583 Q468.667,414.754 468.667,415.004 Q468.667,415.254 468.417,415.536 Q468.058,415.942 467.496,416.176 Q466.746,416.489 465.839,416.489 Q464.761,416.489 463.917,416.051 Q463.214,415.708 462.73,414.942 Q462.246,414.176 462.246,413.286 L462.246,412.473 Q462.246,411.536 462.683,410.723 Q463.121,409.911 463.886,409.473 Q464.667,409.036 465.527,409.036 Q466.058,409.036 466.511,409.161 Q466.964,409.27 467.355,409.52 Z " fill="#000"/><text x="493.522" y="409.97" fill="#718096" font-size="12" textLength="39.68" font-style="italic" font-family="Segoe UI">«static»</text><text x="481.586" y="424.852" fill="#2D3748" font-size="11" textLength="63.551" font-family="'Segoe UI'">AudioFidelity</text><line x1="440.65" y1="432.613" x2="559.358" y2="432.613" style="stroke:#4A5568;stroke-width:0.5;"/><g data-visibility-modifier="PUBLIC_FIELD"><ellipse cx="450.65" cy="445.428" rx="3" ry="3" fill="none" style="stroke:#038048;stroke-width:1;"/></g><text x="458.65" y="448.483" fill="#2D3748" font-size="11" textLength="90.487" text-decoration="underline" font-family="'Segoe UI'">Threshold : double</text><line x1="440.65" y1="455.244" x2="559.358" y2="455.244" style="stroke:#4A5568;stroke-width:0.5;"/><g data-visibility-modifier="PUBLIC_METHOD"><ellipse cx="450.65" cy="468.059" rx="3" ry="3" fill="#84BE84" style="stroke:#038048;stroke-width:1;"/></g><text x="458.65" y="471.114" fill="#2D3748" font-size="11" textLength="95.708" text-decoration="underline" font-family="'Segoe UI'">Measure() : double?</text></g><!--class AudioFormats--><g class="entity" data-qualified-name="Audio.AudioFormats" id="ent0007" data-source-line="31"><rect x="595.41" y="392.021" width="147.171" height="85.854" fill="#F7FAFC" style="stroke:#4A5568;stroke-width:0.5;" rx="3" ry="3"/><ellipse cx="631.531" cy="412.317" rx="10" ry="10" fill="#ADD1B2" style="stroke:#181818;stroke-width:1;"/><path d="M633.015,409.52 Q633.124,409.364 633.249,409.286 Q633.39,409.208 633.546,409.208 Q633.812,409.208 633.968,409.395 Q634.14,409.583 634.14,410.004 L634.14,411.036 Q634.14,411.458 633.968,411.645 Q633.812,411.833 633.546,411.833 Q633.296,411.833 633.156,411.692 Q633.015,411.567 632.937,411.192 Q632.906,410.942 632.781,410.817 Q632.531,410.551 632.093,410.395 Q631.671,410.239 631.234,410.239 Q630.702,410.239 630.249,410.473 Q629.796,410.708 629.452,411.239 Q629.109,411.754 629.109,412.489 L629.109,413.27 Q629.109,414.129 629.734,414.708 Q630.374,415.286 631.484,415.286 Q632.156,415.286 632.624,415.114 Q632.89,415.004 633.187,414.692 Q633.374,414.504 633.484,414.458 Q633.593,414.395 633.718,414.395 Q633.968,414.395 634.14,414.583 Q634.327,414.754 634.327,415.004 Q634.327,415.254 634.077,415.536 Q633.718,415.942 633.156,416.176 Q632.406,416.489 631.499,416.489 Q630.421,416.489 629.577,416.051 Q628.874,415.708 628.39,414.942 Q627.906,414.176 627.906,413.286 L627.906,412.473 Q627.906,411.536 628.343,410.723 Q628.781,409.911 629.546,409.473 Q630.327,409.036 631.187,409.036 Q631.718,409.036 632.171,409.161 Q632.624,409.27 633.015,409.52 Z " fill="#000"/><text x="663.613" y="409.97" fill="#718096" font-size="12" textLength="39.68" font-style="italic" font-family="Segoe UI">«static»</text><text x="649.446" y="424.852" fill="#2D3748" font-size="11" textLength="68.014" font-family="'Segoe UI'">AudioFormats</text><line x1="596.41" y1="432.613" x2="741.581" y2="432.613" style="stroke:#4A5568;stroke-width:0.5;"/><g data-visibility-modifier="PUBLIC_FIELD"><ellipse cx="606.41" cy="445.428" rx="3" ry="3" fill="none" style="stroke:#038048;stroke-width:1;"/></g><text x="614.41" y="448.483" fill="#2D3748" font-size="11" textLength="120.393" text-decoration="underline" font-family="'Segoe UI'">ChapterCapable : string[]</text><line x1="596.41" y1="455.244" x2="741.581" y2="455.244" style="stroke:#4A5568;stroke-width:0.5;"/><g data-visibility-modifier="PUBLIC_METHOD"><ellipse cx="606.41" cy="468.059" rx="3" ry="3" fill="#84BE84" style="stroke:#038048;stroke-width:1;"/></g><text x="614.41" y="471.114" fill="#2D3748" font-size="11" textLength="122.171" text-decoration="underline" font-family="'Segoe UI'">CanHoldChapters() : bool</text></g><!--class MediaInfo--><g class="entity" data-qualified-name="Audio.MediaInfo" id="ent0008" data-source-line="35"><rect x="160.58" y="773.531" width="102.846" height="56.592" fill="#F7FAFC" style="stroke:#4A5568;stroke-width:0.5;" rx="3" ry="3"/><ellipse cx="174.58" cy="793.827" rx="10" ry="10" fill="#ADD1B2" style="stroke:#181818;stroke-width:1;"/><path d="M176.064,791.03 Q176.174,790.874 176.299,790.796 Q176.439,790.718 176.596,790.718 Q176.861,790.718 177.018,790.905 Q177.189,791.093 177.189,791.514 L177.189,792.546 Q177.189,792.968 177.018,793.155 Q176.861,793.343 176.596,793.343 Q176.346,793.343 176.205,793.202 Q176.064,793.077 175.986,792.702 Q175.955,792.452 175.83,792.327 Q175.58,792.061 175.143,791.905 Q174.721,791.749 174.283,791.749 Q173.752,791.749 173.299,791.983 Q172.846,792.218 172.502,792.749 Q172.158,793.264 172.158,793.999 L172.158,794.78 Q172.158,795.639 172.783,796.218 Q173.424,796.796 174.533,796.796 Q175.205,796.796 175.674,796.624 Q175.939,796.514 176.236,796.202 Q176.424,796.014 176.533,795.968 Q176.643,795.905 176.768,795.905 Q177.018,795.905 177.189,796.093 Q177.377,796.264 177.377,796.514 Q177.377,796.764 177.127,797.046 Q176.768,797.452 176.205,797.686 Q175.455,797.999 174.549,797.999 Q173.471,797.999 172.627,797.561 Q171.924,797.218 171.439,796.452 Q170.955,795.686 170.955,794.796 L170.955,793.983 Q170.955,793.046 171.393,792.233 Q171.83,791.421 172.596,790.983 Q173.377,790.546 174.236,790.546 Q174.768,790.546 175.221,790.671 Q175.674,790.78 176.064,791.03 Z " fill="#000"/><text x="185.58" y="791.48" fill="#718096" font-size="12" textLength="76.846" font-style="italic" font-family="Segoe UI">«record struct»</text><text x="199.299" y="806.362" fill="#2D3748" font-size="11" textLength="49.409" font-family="'Segoe UI'">MediaInfo</text><line x1="161.58" y1="814.123" x2="262.426" y2="814.123" style="stroke:#4A5568;stroke-width:0.5;"/><line x1="161.58" y1="822.123" x2="262.426" y2="822.123" style="stroke:#4A5568;stroke-width:0.5;"/></g><!--class Silence--><g class="entity" data-qualified-name="Audio.Silence" id="ent0009" data-source-line="36"><rect x="298.58" y="773.531" width="102.846" height="56.592" fill="#F7FAFC" style="stroke:#4A5568;stroke-width:0.5;" rx="3" ry="3"/><ellipse cx="312.58" cy="793.827" rx="10" ry="10" fill="#ADD1B2" style="stroke:#181818;stroke-width:1;"/><path d="M314.064,791.03 Q314.174,790.874 314.299,790.796 Q314.439,790.718 314.596,790.718 Q314.861,790.718 315.018,790.905 Q315.189,791.093 315.189,791.514 L315.189,792.546 Q315.189,792.968 315.018,793.155 Q314.861,793.343 314.596,793.343 Q314.346,793.343 314.205,793.202 Q314.064,793.077 313.986,792.702 Q313.955,792.452 313.83,792.327 Q313.58,792.061 313.143,791.905 Q312.721,791.749 312.283,791.749 Q311.752,791.749 311.299,791.983 Q310.846,792.218 310.502,792.749 Q310.158,793.264 310.158,793.999 L310.158,794.78 Q310.158,795.639 310.783,796.218 Q311.424,796.796 312.533,796.796 Q313.205,796.796 313.674,796.624 Q313.939,796.514 314.236,796.202 Q314.424,796.014 314.533,795.968 Q314.643,795.905 314.768,795.905 Q315.018,795.905 315.189,796.093 Q315.377,796.264 315.377,796.514 Q315.377,796.764 315.127,797.046 Q314.768,797.452 314.205,797.686 Q313.455,797.999 312.549,797.999 Q311.471,797.999 310.627,797.561 Q309.924,797.218 309.439,796.452 Q308.955,795.686 308.955,794.796 L308.955,793.983 Q308.955,793.046 309.393,792.233 Q309.83,791.421 310.596,790.983 Q311.377,790.546 312.236,790.546 Q312.768,790.546 313.221,790.671 Q313.674,790.78 314.064,791.03 Z " fill="#000"/><text x="323.58" y="791.48" fill="#718096" font-size="12" textLength="76.846" font-style="italic" font-family="Segoe UI">«record struct»</text><text x="345.011" y="806.362" fill="#2D3748" font-size="11" textLength="33.983" font-family="'Segoe UI'">Silence</text><line x1="299.58" y1="814.123" x2="400.426" y2="814.123" style="stroke:#4A5568;stroke-width:0.5;"/><line x1="299.58" y1="822.123" x2="400.426" y2="822.123" style="stroke:#4A5568;stroke-width:0.5;"/></g><!--class Chapter--><g class="entity" data-qualified-name="Audio.Chapter" id="ent0010" data-source-line="37"><rect x="436.58" y="773.531" width="102.846" height="56.592" fill="#F7FAFC" style="stroke:#4A5568;stroke-width:0.5;" rx="3" ry="3"/><ellipse cx="450.58" cy="793.827" rx="10" ry="10" fill="#ADD1B2" style="stroke:#181818;stroke-width:1;"/><path d="M452.064,791.03 Q452.174,790.874 452.299,790.796 Q452.439,790.718 452.596,790.718 Q452.861,790.718 453.018,790.905 Q453.189,791.093 453.189,791.514 L453.189,792.546 Q453.189,792.968 453.018,793.155 Q452.861,793.343 452.596,793.343 Q452.346,793.343 452.205,793.202 Q452.064,793.077 451.986,792.702 Q451.955,792.452 451.83,792.327 Q451.58,792.061 451.143,791.905 Q450.721,791.749 450.283,791.749 Q449.752,791.749 449.299,791.983 Q448.846,792.218 448.502,792.749 Q448.158,793.264 448.158,793.999 L448.158,794.78 Q448.158,795.639 448.783,796.218 Q449.424,796.796 450.533,796.796 Q451.205,796.796 451.674,796.624 Q451.939,796.514 452.236,796.202 Q452.424,796.014 452.533,795.968 Q452.643,795.905 452.768,795.905 Q453.018,795.905 453.189,796.093 Q453.377,796.264 453.377,796.514 Q453.377,796.764 453.127,797.046 Q452.768,797.452 452.205,797.686 Q451.455,797.999 450.549,797.999 Q449.471,797.999 448.627,797.561 Q447.924,797.218 447.439,796.452 Q446.955,795.686 446.955,794.796 L446.955,793.983 Q446.955,793.046 447.393,792.233 Q447.83,791.421 448.596,790.983 Q449.377,790.546 450.236,790.546 Q450.768,790.546 451.221,790.671 Q451.674,790.78 452.064,791.03 Z " fill="#000"/><text x="461.58" y="791.48" fill="#718096" font-size="12" textLength="76.846" font-style="italic" font-family="Segoe UI">«record struct»</text><text x="480.801" y="806.362" fill="#2D3748" font-size="11" textLength="38.403" font-family="'Segoe UI'">Chapter</text><line x1="437.58" y1="814.123" x2="538.426" y2="814.123" style="stroke:#4A5568;stroke-width:0.5;"/><line x1="437.58" y1="822.123" x2="538.426" y2="822.123" style="stroke:#4A5568;stroke-width:0.5;"/></g><!--class IVoiceActivityDetector--><g class="entity" data-qualified-name="Vad.IVoiceActivityDetector" id="ent0012" data-source-line="41"><rect x="1158.24" y="86.941" width="281.523" height="60.631" fill="#F7FAFC" style="stroke:#4A5568;stroke-width:0.5;" rx="3" ry="3"/><ellipse cx="1242.983" cy="101.941" rx="10" ry="10" fill="#B4A7E5" style="stroke:#181818;stroke-width:1;"/><path d="M1244.186,100.035 L1244.186,104.738 L1245.405,104.738 Q1245.826,104.738 1246.014,104.91 Q1246.201,105.066 1246.201,105.347 Q1246.201,105.613 1246.014,105.785 Q1245.826,105.941 1245.405,105.941 L1241.764,105.941 Q1241.342,105.941 1241.155,105.785 Q1240.967,105.613 1240.967,105.332 Q1240.967,105.066 1241.155,104.91 Q1241.342,104.738 1241.764,104.738 L1242.983,104.738 L1242.983,100.035 L1241.764,100.035 Q1241.342,100.035 1241.155,99.879 Q1240.967,99.707 1240.967,99.441 Q1240.967,99.16 1241.155,99.004 Q1241.342,98.832 1241.764,98.832 L1245.405,98.832 Q1245.826,98.832 1246.014,99.004 Q1246.201,99.16 1246.201,99.441 Q1246.201,99.707 1246.014,99.879 Q1245.826,100.035 1245.405,100.035 L1244.186,100.035 Z " fill="#000"/><text x="1261.983" y="106.496" fill="#2D3748" font-size="11" textLength="104.038" font-style="italic" font-family="'Segoe UI'">IVoiceActivityDetector</text><line x1="1159.24" y1="116.941" x2="1438.763" y2="116.941" style="stroke:#4A5568;stroke-width:0.5;"/><line x1="1159.24" y1="124.941" x2="1438.763" y2="124.941" style="stroke:#4A5568;stroke-width:0.5;"/><g data-visibility-modifier="PUBLIC_METHOD"><ellipse cx="1169.24" cy="137.757" rx="3" ry="3" fill="#84BE84" style="stroke:#038048;stroke-width:1;"/></g><text x="1177.24" y="140.811" fill="#2D3748" font-size="11" textLength="256.523" font-family="'Segoe UI'">DetectSpeechAsync() : Task&lt;List&lt;SpeechSegment>></text></g><!--class SileroVadDetector--><g class="entity" data-qualified-name="Vad.SileroVadDetector" id="ent0013" data-source-line="44"><rect x="1158.24" y="214.881" width="281.523" height="100.484" fill="#F7FAFC" style="stroke:#4A5568;stroke-width:0.5;" rx="3" ry="3"/><ellipse cx="1250.94" cy="235.177" rx="10" ry="10" fill="#ADD1B2" style="stroke:#181818;stroke-width:1;"/><path d="M1252.424,232.38 Q1252.534,232.224 1252.659,232.146 Q1252.799,232.068 1252.956,232.068 Q1253.221,232.068 1253.377,232.255 Q1253.549,232.443 1253.549,232.864 L1253.549,233.896 Q1253.549,234.318 1253.377,234.505 Q1253.221,234.693 1252.956,234.693 Q1252.706,234.693 1252.565,234.552 Q1252.424,234.427 1252.346,234.052 Q1252.315,233.802 1252.19,233.677 Q1251.94,233.411 1251.502,233.255 Q1251.081,233.099 1250.643,233.099 Q1250.112,233.099 1249.659,233.333 Q1249.206,233.568 1248.862,234.099 Q1248.518,234.614 1248.518,235.349 L1248.518,236.13 Q1248.518,236.989 1249.143,237.568 Q1249.784,238.146 1250.893,238.146 Q1251.565,238.146 1252.034,237.974 Q1252.299,237.864 1252.596,237.552 Q1252.784,237.364 1252.893,237.318 Q1253.002,237.255 1253.127,237.255 Q1253.377,237.255 1253.549,237.443 Q1253.737,237.614 1253.737,237.864 Q1253.737,238.114 1253.487,238.396 Q1253.127,238.802 1252.565,239.036 Q1251.815,239.349 1250.909,239.349 Q1249.831,239.349 1248.987,238.911 Q1248.284,238.568 1247.799,237.802 Q1247.315,237.036 1247.315,236.146 L1247.315,235.333 Q1247.315,234.396 1247.752,233.583 Q1248.19,232.771 1248.956,232.333 Q1249.737,231.896 1250.596,231.896 Q1251.127,231.896 1251.581,232.021 Q1252.034,232.13 1252.424,232.38 Z " fill="#000"/><text x="1291.563" y="232.83" fill="#718096" font-size="12" textLength="44.877" font-style="italic" font-family="Segoe UI">«sealed»</text><text x="1269.94" y="247.712" fill="#2D3748" font-size="11" textLength="88.124" font-family="'Segoe UI'">SileroVadDetector</text><line x1="1159.24" y1="255.473" x2="1438.763" y2="255.473" style="stroke:#4A5568;stroke-width:0.5;"/><g data-visibility-modifier="PUBLIC_FIELD"><ellipse cx="1169.24" cy="268.288" rx="3" ry="3" fill="none" style="stroke:#038048;stroke-width:1;"/></g><text x="1177.24" y="271.343" fill="#2D3748" font-size="11" textLength="61.284" font-family="'Segoe UI'">Workers : int</text><line x1="1159.24" y1="278.104" x2="1438.763" y2="278.104" style="stroke:#4A5568;stroke-width:0.5;"/><g data-visibility-modifier="PUBLIC_METHOD"><ellipse cx="1169.24" cy="290.919" rx="3" ry="3" fill="#84BE84" style="stroke:#038048;stroke-width:1;"/></g><text x="1177.24" y="293.974" fill="#2D3748" font-size="11" textLength="256.523" font-family="'Segoe UI'">DetectSpeechAsync() : Task&lt;List&lt;SpeechSegment>></text><g data-visibility-modifier="PUBLIC_METHOD"><ellipse cx="1169.24" cy="305.55" rx="3" ry="3" fill="#84BE84" style="stroke:#038048;stroke-width:1;"/></g><text x="1177.24" y="308.605" fill="#2D3748" font-size="11" textLength="45.015" font-family="'Segoe UI'">Dispose()</text></g><!--class SileroWorker--><g class="entity" data-qualified-name="Vad.SileroWorker" id="ent0014" data-source-line="49"><rect x="1053.74" y="377.391" width="116.513" height="115.115" fill="#F7FAFC" style="stroke:#4A5568;stroke-width:0.5;" rx="3" ry="3"/><ellipse cx="1078.418" cy="397.687" rx="10" ry="10" fill="#ADD1B2" style="stroke:#181818;stroke-width:1;"/><path d="M1079.903,394.89 Q1080.012,394.734 1080.137,394.656 Q1080.278,394.578 1080.434,394.578 Q1080.7,394.578 1080.856,394.765 Q1081.028,394.953 1081.028,395.374 L1081.028,396.406 Q1081.028,396.828 1080.856,397.015 Q1080.7,397.203 1080.434,397.203 Q1080.184,397.203 1080.043,397.062 Q1079.903,396.937 1079.825,396.562 Q1079.793,396.312 1079.668,396.187 Q1079.418,395.921 1078.981,395.765 Q1078.559,395.609 1078.122,395.609 Q1077.59,395.609 1077.137,395.843 Q1076.684,396.078 1076.34,396.609 Q1075.997,397.124 1075.997,397.859 L1075.997,398.64 Q1075.997,399.499 1076.622,400.078 Q1077.262,400.656 1078.372,400.656 Q1079.043,400.656 1079.512,400.484 Q1079.778,400.374 1080.075,400.062 Q1080.262,399.874 1080.372,399.828 Q1080.481,399.765 1080.606,399.765 Q1080.856,399.765 1081.028,399.953 Q1081.215,400.124 1081.215,400.374 Q1081.215,400.624 1080.965,400.906 Q1080.606,401.312 1080.043,401.546 Q1079.293,401.859 1078.387,401.859 Q1077.309,401.859 1076.465,401.421 Q1075.762,401.078 1075.278,400.312 Q1074.793,399.546 1074.793,398.656 L1074.793,397.843 Q1074.793,396.906 1075.231,396.093 Q1075.668,395.281 1076.434,394.843 Q1077.215,394.406 1078.075,394.406 Q1078.606,394.406 1079.059,394.531 Q1079.512,394.64 1079.903,394.89 Z " fill="#000"/><text x="1102.744" y="395.34" fill="#718096" font-size="12" textLength="44.877" font-style="italic" font-family="Segoe UI">«sealed»</text><text x="1093.791" y="410.222" fill="#2D3748" font-size="11" textLength="62.783" font-family="'Segoe UI'">SileroWorker</text><line x1="1054.74" y1="417.983" x2="1169.253" y2="417.983" style="stroke:#4A5568;stroke-width:0.5;"/><g data-visibility-modifier="PACKAGE_PRIVATE_FIELD"><polygon points="1064.74,426.798,1060.74,432.798,1068.74,432.798" fill="none" style="stroke:#A0AEC0;stroke-width:1;stroke-linejoin:miter;stroke-miterlimit:10;"/></g><text x="1072.74" y="433.853" fill="#2D3748" font-size="11" textLength="87.678" text-decoration="underline" font-family="'Segoe UI'">SampleRate : long</text><g data-visibility-modifier="PACKAGE_PRIVATE_FIELD"><polygon points="1064.74,441.429,1060.74,447.429,1068.74,447.429" fill="none" style="stroke:#A0AEC0;stroke-width:1;stroke-linejoin:miter;stroke-miterlimit:10;"/></g><text x="1072.74" y="448.484" fill="#2D3748" font-size="11" textLength="91.513" text-decoration="underline" font-family="'Segoe UI'">FrameSamples : int</text><line x1="1054.74" y1="455.245" x2="1169.253" y2="455.245" style="stroke:#4A5568;stroke-width:0.5;"/><g data-visibility-modifier="PACKAGE_PRIVATE_METHOD"><polygon points="1064.74,464.06,1060.74,470.06,1068.74,470.06" fill="#FFF" style="stroke:#A0AEC0;stroke-width:1;stroke-linejoin:miter;stroke-miterlimit:10;"/></g><text x="1072.74" y="471.115" fill="#2D3748" font-size="11" textLength="33.118" font-family="'Segoe UI'">Reset()</text><g data-visibility-modifier="PACKAGE_PRIVATE_METHOD"><polygon points="1064.74,478.691,1060.74,484.691,1068.74,484.691" fill="#FFF" style="stroke:#A0AEC0;stroke-width:1;stroke-linejoin:miter;stroke-miterlimit:10;"/></g><text x="1072.74" y="485.746" fill="#2D3748" font-size="11" textLength="85.975" font-family="'Segoe UI'">RunFrame() : float</text></g><!--class VadSegmenter--><g class="entity" data-qualified-name="Vad.VadSegmenter" id="ent0015" data-source-line="55"><rect x="1205.06" y="392.021" width="187.873" height="85.854" fill="#F7FAFC" style="stroke:#4A5568;stroke-width:0.5;" rx="3" ry="3"/><ellipse cx="1259.128" cy="412.317" rx="10" ry="10" fill="#ADD1B2" style="stroke:#181818;stroke-width:1;"/><path d="M1260.613,409.52 Q1260.722,409.364 1260.847,409.286 Q1260.988,409.208 1261.144,409.208 Q1261.41,409.208 1261.566,409.395 Q1261.738,409.583 1261.738,410.004 L1261.738,411.036 Q1261.738,411.458 1261.566,411.645 Q1261.41,411.833 1261.144,411.833 Q1260.894,411.833 1260.753,411.692 Q1260.613,411.567 1260.535,411.192 Q1260.503,410.942 1260.378,410.817 Q1260.128,410.551 1259.691,410.395 Q1259.269,410.239 1258.831,410.239 Q1258.3,410.239 1257.847,410.473 Q1257.394,410.708 1257.05,411.239 Q1256.706,411.754 1256.706,412.489 L1256.706,413.27 Q1256.706,414.129 1257.331,414.708 Q1257.972,415.286 1259.081,415.286 Q1259.753,415.286 1260.222,415.114 Q1260.488,415.004 1260.785,414.692 Q1260.972,414.504 1261.081,414.458 Q1261.191,414.395 1261.316,414.395 Q1261.566,414.395 1261.738,414.583 Q1261.925,414.754 1261.925,415.004 Q1261.925,415.254 1261.675,415.536 Q1261.316,415.942 1260.753,416.176 Q1260.003,416.489 1259.097,416.489 Q1258.019,416.489 1257.175,416.051 Q1256.472,415.708 1255.988,414.942 Q1255.503,414.176 1255.503,413.286 L1255.503,412.473 Q1255.503,411.536 1255.941,410.723 Q1256.378,409.911 1257.144,409.473 Q1257.925,409.036 1258.785,409.036 Q1259.316,409.036 1259.769,409.161 Q1260.222,409.27 1260.613,409.52 Z " fill="#000"/><text x="1294.157" y="409.97" fill="#718096" font-size="12" textLength="39.68" font-style="italic" font-family="Segoe UI">«static»</text><text x="1278.128" y="424.852" fill="#2D3748" font-size="11" textLength="71.736" font-family="'Segoe UI'">VadSegmenter</text><line x1="1206.06" y1="432.613" x2="1391.933" y2="432.613" style="stroke:#4A5568;stroke-width:0.5;"/><g data-visibility-modifier="PACKAGE_PRIVATE_FIELD"><polygon points="1216.06,441.428,1212.06,447.428,1220.06,447.428" fill="none" style="stroke:#A0AEC0;stroke-width:1;stroke-linejoin:miter;stroke-miterlimit:10;"/></g><text x="1224.06" y="448.483" fill="#2D3748" font-size="11" textLength="78.332" text-decoration="underline" font-family="'Segoe UI'">Threshold : float</text><line x1="1206.06" y1="455.244" x2="1391.933" y2="455.244" style="stroke:#4A5568;stroke-width:0.5;"/><g data-visibility-modifier="PACKAGE_PRIVATE_METHOD"><polygon points="1216.06,464.059,1212.06,470.059,1220.06,470.059" fill="#FFF" style="stroke:#A0AEC0;stroke-width:1;stroke-linejoin:miter;stroke-miterlimit:10;"/></g><text x="1224.06" y="471.114" fill="#2D3748" font-size="11" textLength="162.873" text-decoration="underline" font-family="'Segoe UI'">Smooth() : List&lt;SpeechSegment></text></g><!--class SpeechSegment--><g class="entity" data-qualified-name="Vad.SpeechSegment" id="ent0016" data-source-line="59"><rect x="1427.81" y="406.651" width="108.375" height="56.592" fill="#F7FAFC" style="stroke:#4A5568;stroke-width:0.5;" rx="3" ry="3"/><ellipse cx="1441.81" cy="426.947" rx="10" ry="10" fill="#ADD1B2" style="stroke:#181818;stroke-width:1;"/><path d="M1443.294,424.15 Q1443.404,423.994 1443.529,423.916 Q1443.669,423.838 1443.826,423.838 Q1444.091,423.838 1444.248,424.025 Q1444.419,424.213 1444.419,424.634 L1444.419,425.666 Q1444.419,426.088 1444.248,426.275 Q1444.091,426.463 1443.826,426.463 Q1443.576,426.463 1443.435,426.322 Q1443.294,426.197 1443.216,425.822 Q1443.185,425.572 1443.06,425.447 Q1442.81,425.181 1442.373,425.025 Q1441.951,424.869 1441.513,424.869 Q1440.982,424.869 1440.529,425.103 Q1440.076,425.338 1439.732,425.869 Q1439.388,426.384 1439.388,427.119 L1439.388,427.9 Q1439.388,428.759 1440.013,429.338 Q1440.654,429.916 1441.763,429.916 Q1442.435,429.916 1442.904,429.744 Q1443.169,429.634 1443.466,429.322 Q1443.654,429.134 1443.763,429.088 Q1443.873,429.025 1443.998,429.025 Q1444.248,429.025 1444.419,429.213 Q1444.607,429.384 1444.607,429.634 Q1444.607,429.884 1444.357,430.166 Q1443.998,430.572 1443.435,430.806 Q1442.685,431.119 1441.779,431.119 Q1440.701,431.119 1439.857,430.681 Q1439.154,430.338 1438.669,429.572 Q1438.185,428.806 1438.185,427.916 L1438.185,427.103 Q1438.185,426.166 1438.623,425.353 Q1439.06,424.541 1439.826,424.103 Q1440.607,423.666 1441.466,423.666 Q1441.998,423.666 1442.451,423.791 Q1442.904,423.9 1443.294,424.15 Z " fill="#000"/><text x="1455.575" y="424.6" fill="#718096" font-size="12" textLength="76.846" font-style="italic" font-family="Segoe UI">«record struct»</text><text x="1454.81" y="439.482" fill="#2D3748" font-size="11" textLength="78.375" font-family="'Segoe UI'">SpeechSegment</text><line x1="1428.81" y1="447.243" x2="1535.185" y2="447.243" style="stroke:#4A5568;stroke-width:0.5;"/><line x1="1428.81" y1="455.243" x2="1535.185" y2="455.243" style="stroke:#4A5568;stroke-width:0.5;"/></g><!--class ITranscriber--><g class="entity" data-qualified-name="Transcription.ITranscriber" id="ent0018" data-source-line="63"><rect x="1629.38" y="79.621" width="277.232" height="75.262" fill="#F7FAFC" style="stroke:#4A5568;stroke-width:0.5;" rx="3" ry="3"/><ellipse cx="1736.058" cy="94.621" rx="10" ry="10" fill="#B4A7E5" style="stroke:#181818;stroke-width:1;"/><path d="M1737.261,92.715 L1737.261,97.418 L1738.48,97.418 Q1738.902,97.418 1739.089,97.59 Q1739.277,97.746 1739.277,98.027 Q1739.277,98.293 1739.089,98.465 Q1738.902,98.621 1738.48,98.621 L1734.839,98.621 Q1734.418,98.621 1734.23,98.465 Q1734.043,98.293 1734.043,98.012 Q1734.043,97.746 1734.23,97.59 Q1734.418,97.418 1734.839,97.418 L1736.058,97.418 L1736.058,92.715 L1734.839,92.715 Q1734.418,92.715 1734.23,92.559 Q1734.043,92.387 1734.043,92.121 Q1734.043,91.84 1734.23,91.684 Q1734.418,91.512 1734.839,91.512 L1738.48,91.512 Q1738.902,91.512 1739.089,91.684 Q1739.277,91.84 1739.277,92.121 Q1739.277,92.387 1739.089,92.559 Q1738.902,92.715 1738.48,92.715 L1737.261,92.715 Z " fill="#000"/><text x="1755.058" y="99.176" fill="#2D3748" font-size="11" textLength="55.875" font-style="italic" font-family="'Segoe UI'">ITranscriber</text><line x1="1630.38" y1="109.621" x2="1905.612" y2="109.621" style="stroke:#4A5568;stroke-width:0.5;"/><line x1="1630.38" y1="117.621" x2="1905.612" y2="117.621" style="stroke:#4A5568;stroke-width:0.5;"/><g data-visibility-modifier="PUBLIC_METHOD"><ellipse cx="1640.38" cy="130.437" rx="3" ry="3" fill="#84BE84" style="stroke:#038048;stroke-width:1;"/></g><text x="1648.38" y="133.491" fill="#2D3748" font-size="11" textLength="252.232" font-family="'Segoe UI'">TranscribeAsync() : Task&lt;List&lt;TranscriptSegment>></text><g data-visibility-modifier="PUBLIC_METHOD"><ellipse cx="1640.38" cy="145.067" rx="3" ry="3" fill="#84BE84" style="stroke:#038048;stroke-width:1;"/></g><text x="1648.38" y="148.122" fill="#2D3748" font-size="11" textLength="91.255" font-family="'Segoe UI'">ChangeLanguage()</text></g><!--class WhisperTranscriber--><g class="entity" data-qualified-name="Transcription.WhisperTranscriber" id="ent0019" data-source-line="67"><rect x="1653.65" y="214.881" width="130.698" height="100.484" fill="#F7FAFC" style="stroke:#4A5568;stroke-width:0.5;" rx="3" ry="3"/><ellipse cx="1670.86" cy="235.177" rx="10" ry="10" fill="#ADD1B2" style="stroke:#181818;stroke-width:1;"/><path d="M1672.344,232.38 Q1672.454,232.224 1672.579,232.146 Q1672.719,232.068 1672.876,232.068 Q1673.141,232.068 1673.297,232.255 Q1673.469,232.443 1673.469,232.864 L1673.469,233.896 Q1673.469,234.318 1673.297,234.505 Q1673.141,234.693 1672.876,234.693 Q1672.626,234.693 1672.485,234.552 Q1672.344,234.427 1672.266,234.052 Q1672.235,233.802 1672.11,233.677 Q1671.86,233.411 1671.422,233.255 Q1671.001,233.099 1670.563,233.099 Q1670.032,233.099 1669.579,233.333 Q1669.126,233.568 1668.782,234.099 Q1668.438,234.614 1668.438,235.349 L1668.438,236.13 Q1668.438,236.989 1669.063,237.568 Q1669.704,238.146 1670.813,238.146 Q1671.485,238.146 1671.954,237.974 Q1672.219,237.864 1672.516,237.552 Q1672.704,237.364 1672.813,237.318 Q1672.922,237.255 1673.047,237.255 Q1673.297,237.255 1673.469,237.443 Q1673.657,237.614 1673.657,237.864 Q1673.657,238.114 1673.407,238.396 Q1673.047,238.802 1672.485,239.036 Q1671.735,239.349 1670.829,239.349 Q1669.751,239.349 1668.907,238.911 Q1668.204,238.568 1667.719,237.802 Q1667.235,237.036 1667.235,236.146 L1667.235,235.333 Q1667.235,234.396 1667.672,233.583 Q1668.11,232.771 1668.876,232.333 Q1669.657,231.896 1670.516,231.896 Q1671.047,231.896 1671.501,232.021 Q1671.954,232.13 1672.344,232.38 Z " fill="#000"/><text x="1708.917" y="232.83" fill="#718096" font-size="12" textLength="44.877" font-style="italic" font-family="Segoe UI">«sealed»</text><text x="1684.573" y="247.712" fill="#2D3748" font-size="11" textLength="93.564" font-family="'Segoe UI'">WhisperTranscriber</text><line x1="1654.65" y1="255.473" x2="1783.348" y2="255.473" style="stroke:#4A5568;stroke-width:0.5;"/><g data-visibility-modifier="PUBLIC_FIELD"><ellipse cx="1664.65" cy="268.288" rx="3" ry="3" fill="none" style="stroke:#038048;stroke-width:1;"/></g><text x="1672.65" y="271.343" fill="#2D3748" font-size="11" textLength="105.698" font-family="'Segoe UI'">RuntimeName : string</text><line x1="1654.65" y1="278.104" x2="1783.348" y2="278.104" style="stroke:#4A5568;stroke-width:0.5;"/><g data-visibility-modifier="PUBLIC_METHOD"><ellipse cx="1664.65" cy="290.919" rx="3" ry="3" fill="#84BE84" style="stroke:#038048;stroke-width:1;"/></g><text x="1672.65" y="293.974" fill="#2D3748" font-size="11" textLength="84.896" font-family="'Segoe UI'">TranscribeAsync()</text><g data-visibility-modifier="PUBLIC_METHOD"><ellipse cx="1664.65" cy="305.55" rx="3" ry="3" fill="#84BE84" style="stroke:#038048;stroke-width:1;"/></g><text x="1672.65" y="308.605" fill="#2D3748" font-size="11" textLength="91.255" font-family="'Segoe UI'">ChangeLanguage()</text></g><!--class UpgradeTranscriber--><g class="entity" data-qualified-name="Transcription.UpgradeTranscriber" id="ent0020" data-source-line="72"><rect x="1819.08" y="222.201" width="125.842" height="85.854" fill="#F7FAFC" style="stroke:#4A5568;stroke-width:0.5;" rx="3" ry="3"/><ellipse cx="1833.08" cy="242.497" rx="10" ry="10" fill="#ADD1B2" style="stroke:#181818;stroke-width:1;"/><path d="M1834.564,239.7 Q1834.674,239.544 1834.799,239.466 Q1834.939,239.388 1835.096,239.388 Q1835.361,239.388 1835.518,239.575 Q1835.689,239.763 1835.689,240.184 L1835.689,241.216 Q1835.689,241.638 1835.518,241.825 Q1835.361,242.013 1835.096,242.013 Q1834.846,242.013 1834.705,241.872 Q1834.564,241.747 1834.486,241.372 Q1834.455,241.122 1834.33,240.997 Q1834.08,240.731 1833.643,240.575 Q1833.221,240.419 1832.783,240.419 Q1832.252,240.419 1831.799,240.653 Q1831.346,240.888 1831.002,241.419 Q1830.658,241.934 1830.658,242.669 L1830.658,243.45 Q1830.658,244.309 1831.283,244.888 Q1831.924,245.466 1833.033,245.466 Q1833.705,245.466 1834.174,245.294 Q1834.439,245.184 1834.736,244.872 Q1834.924,244.684 1835.033,244.638 Q1835.143,244.575 1835.268,244.575 Q1835.518,244.575 1835.689,244.763 Q1835.877,244.934 1835.877,245.184 Q1835.877,245.434 1835.627,245.716 Q1835.268,246.122 1834.705,246.356 Q1833.955,246.669 1833.049,246.669 Q1831.971,246.669 1831.127,246.231 Q1830.424,245.888 1829.939,245.122 Q1829.455,244.356 1829.455,243.466 L1829.455,242.653 Q1829.455,241.716 1829.893,240.903 Q1830.33,240.091 1831.096,239.653 Q1831.877,239.216 1832.736,239.216 Q1833.268,239.216 1833.721,239.341 Q1834.174,239.45 1834.564,239.7 Z " fill="#000"/><text x="1871.562" y="240.15" fill="#718096" font-size="12" textLength="44.877" font-style="italic" font-family="Segoe UI">«sealed»</text><text x="1846.08" y="255.032" fill="#2D3748" font-size="11" textLength="95.842" font-family="'Segoe UI'">UpgradeTranscriber</text><line x1="1820.08" y1="262.793" x2="1943.922" y2="262.793" style="stroke:#4A5568;stroke-width:0.5;"/><line x1="1820.08" y1="270.793" x2="1943.922" y2="270.793" style="stroke:#4A5568;stroke-width:0.5;"/><g data-visibility-modifier="PUBLIC_METHOD"><ellipse cx="1830.08" cy="283.608" rx="3" ry="3" fill="#84BE84" style="stroke:#038048;stroke-width:1;"/></g><text x="1838.08" y="286.663" fill="#2D3748" font-size="11" textLength="84.896" font-family="'Segoe UI'">TranscribeAsync()</text><g data-visibility-modifier="PUBLIC_METHOD"><ellipse cx="1830.08" cy="298.239" rx="3" ry="3" fill="#84BE84" style="stroke:#038048;stroke-width:1;"/></g><text x="1838.08" y="301.294" fill="#2D3748" font-size="11" textLength="91.255" font-family="'Segoe UI'">ChangeLanguage()</text></g><!--class ModelCatalog--><g class="entity" data-qualified-name="Transcription.ModelCatalog" id="ent0021" data-source-line="76"><rect x="1591.98" y="392.021" width="196.048" height="85.854" fill="#F7FAFC" style="stroke:#4A5568;stroke-width:0.5;" rx="3" ry="3"/><ellipse cx="1651.736" cy="412.317" rx="10" ry="10" fill="#ADD1B2" style="stroke:#181818;stroke-width:1;"/><path d="M1653.221,409.52 Q1653.33,409.364 1653.455,409.286 Q1653.596,409.208 1653.752,409.208 Q1654.018,409.208 1654.174,409.395 Q1654.346,409.583 1654.346,410.004 L1654.346,411.036 Q1654.346,411.458 1654.174,411.645 Q1654.018,411.833 1653.752,411.833 Q1653.502,411.833 1653.361,411.692 Q1653.221,411.567 1653.143,411.192 Q1653.111,410.942 1652.986,410.817 Q1652.736,410.551 1652.299,410.395 Q1651.877,410.239 1651.439,410.239 Q1650.908,410.239 1650.455,410.473 Q1650.002,410.708 1649.658,411.239 Q1649.314,411.754 1649.314,412.489 L1649.314,413.27 Q1649.314,414.129 1649.939,414.708 Q1650.58,415.286 1651.689,415.286 Q1652.361,415.286 1652.83,415.114 Q1653.096,415.004 1653.393,414.692 Q1653.58,414.504 1653.689,414.458 Q1653.799,414.395 1653.924,414.395 Q1654.174,414.395 1654.346,414.583 Q1654.533,414.754 1654.533,415.004 Q1654.533,415.254 1654.283,415.536 Q1653.924,415.942 1653.361,416.176 Q1652.611,416.489 1651.705,416.489 Q1650.627,416.489 1649.783,416.051 Q1649.08,415.708 1648.596,414.942 Q1648.111,414.176 1648.111,413.286 L1648.111,412.473 Q1648.111,411.536 1648.549,410.723 Q1648.986,409.911 1649.752,409.473 Q1650.533,409.036 1651.393,409.036 Q1651.924,409.036 1652.377,409.161 Q1652.83,409.27 1653.221,409.52 Z " fill="#000"/><text x="1685.164" y="409.97" fill="#718096" font-size="12" textLength="39.68" font-style="italic" font-family="Segoe UI">«static»</text><text x="1670.736" y="424.852" fill="#2D3748" font-size="11" textLength="68.535" font-family="'Segoe UI'">ModelCatalog</text><line x1="1592.98" y1="432.613" x2="1787.028" y2="432.613" style="stroke:#4A5568;stroke-width:0.5;"/><g data-visibility-modifier="PUBLIC_FIELD"><ellipse cx="1602.98" cy="445.428" rx="3" ry="3" fill="none" style="stroke:#038048;stroke-width:1;"/></g><text x="1610.98" y="448.483" fill="#2D3748" font-size="11" textLength="107.094" text-decoration="underline" font-family="'Segoe UI'">BuiltInNames : string[]</text><line x1="1592.98" y1="455.244" x2="1787.028" y2="455.244" style="stroke:#4A5568;stroke-width:0.5;"/><g data-visibility-modifier="PUBLIC_METHOD"><ellipse cx="1602.98" cy="468.059" rx="3" ry="3" fill="#84BE84" style="stroke:#038048;stroke-width:1;"/></g><text x="1610.98" y="471.114" fill="#2D3748" font-size="11" textLength="171.048" text-decoration="underline" font-family="'Segoe UI'">EnsureModelAsync() : Task&lt;string></text></g><!--class TranscriptSegment--><g class="entity" data-qualified-name="Transcription.TranscriptSegment" id="ent0022" data-source-line="80"><rect x="1823.45" y="406.651" width="121.094" height="56.592" fill="#F7FAFC" style="stroke:#4A5568;stroke-width:0.5;" rx="3" ry="3"/><ellipse cx="1837.45" cy="426.947" rx="10" ry="10" fill="#ADD1B2" style="stroke:#181818;stroke-width:1;"/><path d="M1838.934,424.15 Q1839.044,423.994 1839.169,423.916 Q1839.309,423.838 1839.466,423.838 Q1839.731,423.838 1839.888,424.025 Q1840.059,424.213 1840.059,424.634 L1840.059,425.666 Q1840.059,426.088 1839.888,426.275 Q1839.731,426.463 1839.466,426.463 Q1839.216,426.463 1839.075,426.322 Q1838.934,426.197 1838.856,425.822 Q1838.825,425.572 1838.7,425.447 Q1838.45,425.181 1838.013,425.025 Q1837.591,424.869 1837.153,424.869 Q1836.622,424.869 1836.169,425.103 Q1835.716,425.338 1835.372,425.869 Q1835.028,426.384 1835.028,427.119 L1835.028,427.9 Q1835.028,428.759 1835.653,429.338 Q1836.294,429.916 1837.403,429.916 Q1838.075,429.916 1838.544,429.744 Q1838.809,429.634 1839.106,429.322 Q1839.294,429.134 1839.403,429.088 Q1839.513,429.025 1839.638,429.025 Q1839.888,429.025 1840.059,429.213 Q1840.247,429.384 1840.247,429.634 Q1840.247,429.884 1839.997,430.166 Q1839.638,430.572 1839.075,430.806 Q1838.325,431.119 1837.419,431.119 Q1836.341,431.119 1835.497,430.681 Q1834.794,430.338 1834.309,429.572 Q1833.825,428.806 1833.825,427.916 L1833.825,427.103 Q1833.825,426.166 1834.263,425.353 Q1834.7,424.541 1835.466,424.103 Q1836.247,423.666 1837.106,423.666 Q1837.638,423.666 1838.091,423.791 Q1838.544,423.9 1838.934,424.15 Z " fill="#000"/><text x="1857.574" y="424.6" fill="#718096" font-size="12" textLength="76.846" font-style="italic" font-family="Segoe UI">«record struct»</text><text x="1850.45" y="439.482" fill="#2D3748" font-size="11" textLength="91.094" font-family="'Segoe UI'">TranscriptSegment</text><line x1="1824.45" y1="447.243" x2="1943.544" y2="447.243" style="stroke:#4A5568;stroke-width:0.5;"/><line x1="1824.45" y1="455.243" x2="1943.544" y2="455.243" style="stroke:#4A5568;stroke-width:0.5;"/></g><!--class OnnxRuntimeNative--><g class="entity" data-qualified-name="OnnxRuntimeNative" id="ent0023" data-source-line="83"><rect x="775.16" y="598.411" width="127.679" height="71.223" fill="#F7FAFC" style="stroke:#4A5568;stroke-width:0.5;" rx="3" ry="3"/><ellipse cx="789.16" cy="618.707" rx="10" ry="10" fill="#ADD1B2" style="stroke:#181818;stroke-width:1;"/><path d="M790.644,615.91 Q790.754,615.754 790.879,615.676 Q791.019,615.598 791.176,615.598 Q791.441,615.598 791.598,615.785 Q791.769,615.973 791.769,616.394 L791.769,617.426 Q791.769,617.848 791.598,618.035 Q791.441,618.223 791.176,618.223 Q790.926,618.223 790.785,618.082 Q790.644,617.957 790.566,617.582 Q790.535,617.332 790.41,617.207 Q790.16,616.941 789.723,616.785 Q789.301,616.629 788.863,616.629 Q788.332,616.629 787.879,616.863 Q787.426,617.098 787.082,617.629 Q786.738,618.144 786.738,618.879 L786.738,619.66 Q786.738,620.519 787.363,621.098 Q788.004,621.676 789.113,621.676 Q789.785,621.676 790.254,621.504 Q790.519,621.394 790.816,621.082 Q791.004,620.894 791.113,620.848 Q791.223,620.785 791.348,620.785 Q791.598,620.785 791.769,620.973 Q791.957,621.144 791.957,621.394 Q791.957,621.644 791.707,621.926 Q791.348,622.332 790.785,622.566 Q790.035,622.879 789.129,622.879 Q788.051,622.879 787.207,622.441 Q786.504,622.098 786.019,621.332 Q785.535,620.566 785.535,619.676 L785.535,618.863 Q785.535,617.926 785.973,617.113 Q786.41,616.301 787.176,615.863 Q787.957,615.426 788.816,615.426 Q789.348,615.426 789.801,615.551 Q790.254,615.66 790.644,615.91 Z " fill="#000"/><text x="831.16" y="616.36" fill="#718096" font-size="12" textLength="39.68" font-style="italic" font-family="Segoe UI">«static»</text><text x="802.16" y="631.242" fill="#2D3748" font-size="11" textLength="97.679" font-family="'Segoe UI'">OnnxRuntimeNative</text><line x1="776.16" y1="639.003" x2="901.839" y2="639.003" style="stroke:#4A5568;stroke-width:0.5;"/><text x="781.16" y="654.873" fill="#2D3748" font-size="11" textLength="102.706" font-style="italic" font-family="'Segoe UI'">native library resolver</text><line x1="776.16" y1="661.634" x2="901.839" y2="661.634" style="stroke:#4A5568;stroke-width:0.5;"/></g><g class="entity" data-qualified-name="GMN39" id="ent0040" data-source-line="106"><path d="M1235.46,602.761 L1235.46,665.285 A3,3 0 0 0 1238.46,668.285 L1495.546,668.285 A3,3 0 0 0 1498.546,665.285 L1498.546,609.761 L1488.546,599.761 L1238.46,599.761 A3,3 0 0 0 1235.46,602.761" style="stroke:#D69E2E;stroke-width:0.5;" fill="#FFFAF0"/><path d="M1488.546,599.761 L1488.546,608.261 A1.5,1.5 0 0 0 1490.046,609.761 L1498.546,609.761 L1488.546,599.761" style="stroke:#D69E2E;stroke-width:1;" fill="#FFFAF0"/><text x="1241.46" y="616.631" fill="#000" font-size="11" textLength="242.086" font-family="'Segoe UI'">One ONNX session plus its carried recurrent state.</text><text x="1241.46" y="631.262" fill="#000" font-size="11" textLength="94.494" font-weight="700" font-family="'Segoe UI'">SileroVadDetector</text><text x="1338.967" y="631.262" fill="#000" font-size="11" textLength="141.485" font-family="'Segoe UI'">is the block scheduler driving</text><text x="1241.46" y="645.893" fill="#000" font-size="11" textLength="234.04" font-family="'Segoe UI'">a pool of them - the one thing in a run that uses</text><text x="1241.46" y="660.524" fill="#000" font-size="11" textLength="194.847" font-family="'Segoe UI'">more than one thread of its own accord.</text></g><g class="entity" data-qualified-name="GMN42" id="ent0043" data-source-line="113"><path d="M1979.72,411.001 L1979.72,458.894 A3,3 0 0 0 1982.72,461.894 L2247.283,461.894 A3,3 0 0 0 2250.283,458.894 L2250.283,418.001 L2240.283,408.001 L2082.43,408.001 L1940.8,308.471 L2074.43,408.001 L1982.72,408.001 A3,3 0 0 0 1979.72,411.001" style="stroke:#D69E2E;stroke-width:0.5;" fill="#FFFAF0"/><path d="M2240.283,408.001 L2240.283,416.501 A1.5,1.5 0 0 0 2241.783,418.001 L2250.283,418.001 L2240.283,408.001" style="stroke:#D69E2E;stroke-width:0.5;" fill="#FFFAF0"/><text x="1985.72" y="424.871" fill="#000" font-size="11" textLength="35.927" font-family="'Segoe UI'">Loaded</text><text x="2024.66" y="424.871" fill="#000" font-size="11" textLength="26.485" font-weight="700" font-family="'Segoe UI'">lazily</text><text x="2051.145" y="424.871" fill="#000" font-size="11" textLength="135.599" font-family="'Segoe UI'">, on first use, and only when</text><text x="1985.72" y="439.502" fill="#000" font-size="11" textLength="249.563" font-family="'Segoe UI'">--upgrade-model differs from --model. A book that</text><text x="1985.72" y="454.133" fill="#000" font-size="11" textLength="243.67" font-family="'Segoe UI'">never opens a gap never pays for a second model.</text></g><g class="entity" data-qualified-name="GMN45" id="ent0046" data-source-line="119"><path d="M937.4,580.821 L937.4,630.021 L903.24,634.021 L937.4,638.021 L937.4,687.237 A3,3 0 0 0 940.4,690.237 L1197.604,690.237 A3,3 0 0 0 1200.604,687.237 L1200.604,587.821 L1190.604,577.821 L940.4,577.821 A3,3 0 0 0 937.4,580.821" style="stroke:#D69E2E;stroke-width:0.5;" fill="#FFFAF0"/><path d="M1190.604,577.821 L1190.604,586.321 A1.5,1.5 0 0 0 1192.104,587.821 L1200.604,587.821 L1190.604,577.821" style="stroke:#D69E2E;stroke-width:0.5;" fill="#FFFAF0"/><text x="943.4" y="594.691" fill="#000" font-size="11" textLength="188.037" font-family="'Segoe UI'">The resolver must be registered from a</text><text x="1134.45" y="594.691" fill="#000" font-size="11" textLength="27.726" font-weight="700" font-family="'Segoe UI'">static</text><text x="943.4" y="609.322" fill="#000" font-size="11" textLength="59.474" font-weight="700" font-family="'Segoe UI'">constructor</text><text x="1005.887" y="609.322" fill="#000" font-size="11" textLength="137.833" font-family="'Segoe UI'">on both model types. A field</text><text x="943.4" y="623.953" fill="#000" font-size="11" textLength="209.188" font-family="'Segoe UI'">initializer runs before the constructor body,</text><text x="943.4" y="638.584" fill="#000" font-size="11" textLength="91.292" font-family="'Segoe UI'">and SileroWorker's</text><text x="1037.706" y="638.584" fill="#000" font-size="11" textLength="97.598" font-style="italic" font-family="'Segoe UI'">_runOptions = new()</text><text x="1138.317" y="638.584" fill="#000" font-size="11" textLength="25.851" font-family="'Segoe UI'">loads</text><text x="943.4" y="653.215" fill="#000" font-size="11" textLength="242.204" font-family="'Segoe UI'">OnnxRuntime - registering from the body crashed</text><text x="943.4" y="667.846" fill="#000" font-size="11" textLength="218.829" font-family="'Segoe UI'">a published build inside ORT's own static init.</text><text x="943.4" y="682.476" fill="#000" font-size="11" textLength="234.491" font-family="'Segoe UI'">Unit tests cannot see this; run the published exe.</text></g><!--reverse link IAudioSource to FfmpegClient--><g class="link" data-entity-1="ent0002" data-entity-2="ent0003" id="lnk24" data-source-line="87" data-link-type="extension"><path d="M168.929,511.775 C175.529,530.375 176.93,534.271 183.95,554.051" style="stroke:#4A5568;stroke-width:1;stroke-dasharray:7,7;" fill="none" id="IAudioSource-backto-FfmpegClient" codeLine="87"/><polygon points="162.91,494.811,163.275,513.781,174.584,509.768,162.91,494.811" fill="none" style="stroke:#4A5568;stroke-width:1;stroke-linejoin:miter;stroke-miterlimit:10;"/></g><!--reverse link IVoiceActivityDetector to SileroVadDetector--><g class="link" data-entity-1="ent0012" data-entity-2="ent0013" id="lnk25" data-source-line="88" data-link-type="extension"><path d="M1299,165.771 C1299,184.921 1299,192.341 1299,214.541" style="stroke:#4A5568;stroke-width:1;stroke-dasharray:7,7;" fill="none" id="IVoiceActivityDetector-backto-SileroVadDetector" codeLine="88"/><polygon points="1299,147.771,1293,165.771,1305,165.771,1299,147.771" fill="none" style="stroke:#4A5568;stroke-width:1;stroke-linejoin:miter;stroke-miterlimit:10;"/></g><!--reverse link ITranscriber to WhisperTranscriber--><g class="link" data-entity-1="ent0018" data-entity-2="ent0019" id="lnk26" data-source-line="89" data-link-type="extension"><path d="M1749.905,172.123 C1743.835,190.183 1742.17,195.141 1735.62,214.651" style="stroke:#4A5568;stroke-width:1;stroke-dasharray:7,7;" fill="none" id="ITranscriber-backto-WhisperTranscriber" codeLine="89"/><polygon points="1755.64,155.061,1744.218,170.212,1755.593,174.035,1755.64,155.061" fill="none" style="stroke:#4A5568;stroke-width:1;stroke-linejoin:miter;stroke-miterlimit:10;"/></g><!--reverse link ITranscriber to UpgradeTranscriber--><g class="link" data-entity-1="ent0018" data-entity-2="ent0020" id="lnk27" data-source-line="90" data-link-type="extension"><path d="M1807.851,169.246 C1823.741,189.586 1832.48,200.761 1849,221.901" style="stroke:#4A5568;stroke-width:1;stroke-dasharray:7,7;" fill="none" id="ITranscriber-backto-UpgradeTranscriber" codeLine="90"/><polygon points="1796.77,155.061,1803.123,172.94,1812.58,165.552,1796.77,155.061" fill="none" style="stroke:#4A5568;stroke-width:1;stroke-linejoin:miter;stroke-miterlimit:10;"/></g><!--link FfmpegClient to MediaInfo--><g class="link" data-entity-1="ent0003" data-entity-2="ent0008" id="lnk28" data-source-line="92" data-link-type="dependency"><path d="M212,713.551 C212,734.981 212,751.801 212,768.261" style="stroke:#4A5568;stroke-width:1;stroke-dasharray:7,7;" fill="none" id="FfmpegClient-to-MediaInfo" codeLine="92"/><polygon points="212,773.261,216,764.261,212,768.261,208,764.261,212,773.261" fill="#4A5568" style="stroke:#4A5568;stroke-width:1;stroke-linejoin:miter;stroke-miterlimit:10;"/></g><!--link FfmpegClient to Silence--><g class="link" data-entity-1="ent0003" data-entity-2="ent0009" id="lnk29" data-source-line="93" data-link-type="dependency"><path d="M277.36,713.551 C295.2,734.981 310.161,752.958 323.861,769.418" style="stroke:#4A5568;stroke-width:1;stroke-dasharray:7,7;" fill="none" id="FfmpegClient-to-Silence" codeLine="93"/><polygon points="327.06,773.261,324.377,763.785,323.861,769.418,318.228,768.903,327.06,773.261" fill="#4A5568" style="stroke:#4A5568;stroke-width:1;stroke-linejoin:miter;stroke-miterlimit:10;"/></g><!--link FfmpegClient to Chapter--><g class="link" data-entity-1="ent0003" data-entity-2="ent0010" id="lnk30" data-source-line="94" data-link-type="dependency"><path d="M322.27,701.271 C364.01,726.341 405.004,750.966 437.664,770.586" style="stroke:#4A5568;stroke-width:1;stroke-dasharray:7,7;" fill="none" id="FfmpegClient-to-Chapter" codeLine="94"/><polygon points="441.95,773.161,436.295,765.098,437.664,770.586,432.175,771.955,441.95,773.161" fill="#4A5568" style="stroke:#4A5568;stroke-width:1;stroke-linejoin:miter;stroke-miterlimit:10;"/></g><!--link FfmpegClient to FfmpegLocator--><g class="link" data-entity-1="ent0003" data-entity-2="ent0004" id="lnk31" data-source-line="95" data-link-type="dependency"><path d="M146.64,713.551 C128.8,734.981 113.839,752.958 100.139,769.418" style="stroke:#4A5568;stroke-width:1;stroke-dasharray:7,7;" fill="none" id="FfmpegClient-to-FfmpegLocator" codeLine="95"/><polygon points="96.94,773.261,105.772,768.903,100.139,769.418,99.623,763.785,96.94,773.261" fill="#4A5568" style="stroke:#4A5568;stroke-width:1;stroke-linejoin:miter;stroke-miterlimit:10;"/></g><!--reverse link SileroVadDetector to SileroWorker--><g class="link" data-entity-1="ent0013" data-entity-2="ent0014" id="lnk32" data-source-line="96" data-link-type="composition"><path d="M1200.128,322.871 C1192.448,328.411 1194.77,327.251 1188,333.371 C1173.86,346.121 1160.56,361.831 1149.15,377.001" style="stroke:#4A5568;stroke-width:1;" fill="none" id="SileroVadDetector-backto-SileroWorker" codeLine="96"/><polygon points="1209.86,315.851,1202.654,316.117,1200.128,322.871,1207.334,322.605,1209.86,315.851" fill="#4A5568" style="stroke:#4A5568;stroke-width:1;stroke-linejoin:miter;stroke-miterlimit:10;"/><text x="1147.54" y="366.59" fill="#4A5568" font-size="11" font-family="'Segoe UI'">n</text></g><!--link SileroVadDetector to VadSegmenter--><g class="link" data-entity-1="ent0013" data-entity-2="ent0015" id="lnk33" data-source-line="97" data-link-type="dependency"><path d="M1299,315.571 C1299,339.741 1299,363.531 1299,386.661" style="stroke:#4A5568;stroke-width:1;stroke-dasharray:7,7;" fill="none" id="SileroVadDetector-to-VadSegmenter" codeLine="97"/><polygon points="1299,391.661,1303,382.661,1299,386.661,1295,382.661,1299,391.661" fill="#4A5568" style="stroke:#4A5568;stroke-width:1;stroke-linejoin:miter;stroke-miterlimit:10;"/></g><!--link SileroVadDetector to SpeechSegment--><g class="link" data-entity-1="ent0013" data-entity-2="ent0016" id="lnk34" data-source-line="98" data-link-type="dependency"><path d="M1388.31,315.671 C1395.95,321.241 1403.31,327.171 1410,333.371 C1433.16,354.821 1450.872,380.523 1463.962,402.163" style="stroke:#4A5568;stroke-width:1;stroke-dasharray:7,7;" fill="none" id="SileroVadDetector-to-SpeechSegment" codeLine="98"/><polygon points="1466.55,406.441,1465.314,396.67,1463.962,402.163,1458.469,400.811,1466.55,406.441" fill="#4A5568" style="stroke:#4A5568;stroke-width:1;stroke-linejoin:miter;stroke-miterlimit:10;"/></g><!--link WhisperTranscriber to TranscriptSegment--><g class="link" data-entity-1="ent0019" data-entity-2="ent0022" id="lnk35" data-source-line="99" data-link-type="dependency"><path d="M1784.67,313.961 C1792.11,320.211 1799.38,326.761 1806,333.371 C1828.67,356.001 1847.818,381.168 1862.638,402.288" style="stroke:#4A5568;stroke-width:1;stroke-dasharray:7,7;" fill="none" id="WhisperTranscriber-to-TranscriptSegment" codeLine="99"/><polygon points="1865.51,406.381,1863.615,396.716,1862.638,402.288,1857.066,401.312,1865.51,406.381" fill="#4A5568" style="stroke:#4A5568;stroke-width:1;stroke-linejoin:miter;stroke-miterlimit:10;"/></g><!--link WhisperTranscriber to ModelCatalog--><g class="link" data-entity-1="ent0019" data-entity-2="ent0021" id="lnk36" data-source-line="100" data-link-type="dependency"><path d="M1710.46,315.571 C1706.28,339.741 1702.15,363.604 1698.16,386.734" style="stroke:#4A5568;stroke-width:1;stroke-dasharray:7,7;" fill="none" id="WhisperTranscriber-to-ModelCatalog" codeLine="100"/><polygon points="1697.31,391.661,1702.782,383.472,1698.16,386.734,1694.898,382.112,1697.31,391.661" fill="#4A5568" style="stroke:#4A5568;stroke-width:1;stroke-linejoin:miter;stroke-miterlimit:10;"/></g><!--link SpeechDenoiser to OnnxRuntimeNative--><g class="link" data-entity-1="ent0005" data-entity-2="ent0023" id="lnk37" data-source-line="102" data-link-type="dependency"><path d="M384.54,485.531 C395.1,497.571 407.78,509.091 422,516.501 C555.67,586.151 622.9,489.751 759,554.521 C779.91,564.471 795.374,578.371 809.454,594.431" style="stroke:#4A5568;stroke-width:1;stroke-dasharray:7,7;" fill="none" id="SpeechDenoiser-to-OnnxRuntimeNative" codeLine="102"/><polygon points="812.75,598.191,809.825,588.787,809.454,594.431,803.809,594.061,812.75,598.191" fill="#4A5568" style="stroke:#4A5568;stroke-width:1;stroke-linejoin:miter;stroke-miterlimit:10;"/></g><!--link SileroWorker to OnnxRuntimeNative--><g class="link" data-entity-1="ent0014" data-entity-2="ent0023" id="lnk38" data-source-line="103" data-link-type="dependency"><path d="M1053.56,467.621 C1014.36,489.911 962.35,521.551 920,554.521 C903.16,567.631 889.496,580.266 875.316,594.526" style="stroke:#4A5568;stroke-width:1;stroke-dasharray:7,7;" fill="none" id="SileroWorker-to-OnnxRuntimeNative" codeLine="103"/><polygon points="871.79,598.071,880.972,594.51,875.316,594.526,875.3,588.869,871.79,598.071" fill="#4A5568" style="stroke:#4A5568;stroke-width:1;stroke-linejoin:miter;stroke-miterlimit:10;"/></g><!--link SileroWorker to GMN39--><g class="link" data-entity-1="ent0014" data-entity-2="ent0040" id="lnk41" data-source-line="106" data-link-type="association"><path d="M1162.28,492.721 C1170.56,501.031 1179.29,509.231 1188,516.501 C1225.43,547.761 1271.63,577.651 1307.73,599.331" style="stroke:#4A5568;stroke-width:1;stroke-dasharray:7,7;" fill="none" id="SileroWorker-GMN39"/></g><?plantuml-src jLTRRzis57xNhpZBIrijThgNFcoUXonTi02v577Q31Y6WXQF9C8KAP1KKpUBV_iEATdMpLctOGz98FBZ-Sxbu-79Dq8bik887wrRIvoAgf2H4quYN24N39ZYO33HcH9EQ0KJSBb11A4ScfGbQ8z1AmJ5dFY41BLQVa8JHILBLYn3E3gjkD17y1Z1_X1SXDM5hWnz-2s0RzyPlSHJkrR9orVmFTmnkve59ovKgkSrvYsvml5TKlHmgTJC_Vx73kKmSGiXKP63FUYbi6xMxCt73oY-S0PPiUUfOVT6E3pBMKbXzCqkjPRUsXFz999P2-TfKM9s9WKg1xEPHIQHGycC4qpEvzkm7wsZt2LFi615AV6MEIIRb2hu4Rvxy_hrw_yvE_ybM88jghBKnjbBiJpdgrEM78Hkzf4-iF92EKse4_Yv4fAVfrVe66UE1Vf-4YzrmfmsFel1HAXR3LYKY4d-5fKM5iqkpr-HtsqsmidWS9EdPaFOKlkDZZz1j-U2enHktV9dm7P7ryJcMdAootMrbDW3N26pbQc9Qy1F8qpQ5CpPvuYQ4fsnaf4DCcQT4IhRXh77CVKhkREjQE3rnUcGxXH5ZFxQ6-xDLObhPxnMpZE8XcC4yTHg31yO7xI53reaU9fGBw7qraAbiZzsX1iAFdgfmyu2iu9ktBnx6RtJHXFbpkXGAVVQh2WpNNNyKyg3ogazg3c6v9jncKgjijx-kM45rg2sgvjRjEYQoxkvhLJ0xMNTyONoqFYCPgYjpQY8jrOwlXPQkpoGZAIZ6tvxws-KSMUOieaHfNzo1XhPxYvnfupzqbYHzkPwXIATgWmlwLT5lBrwtUTKHZHjjg5aACzE57XDgTxTl0CkVGNb-p8pZEFpbF_6y1Kz2_ACkglKsNEznFTYTw5yEFPm9_b5-SOLRFRINH_e5dwG_V7Yr-0RfJxlSXecYfwtCp5lHWqfbeQPzMxac9s8OAWpMip-d4ux3t5qeCK4uA19H1sn1SnG5YEWOI6Zg3CEJAVpVQyTRZKjThZHTDRXHkUTZ8RTBfvCu8ZkKhiBZS2ygNPpE03fNEPevAPuqA3mXu1jTKPHxq7tW84geaup7OT4IbCBNMhdT04wxKOET03XvlhwDx1ehPziIrbP4FJM9imOWM7ihOpn2VOAnAbNtt8-ICZiP3a7OMak9ZQfanNO94TU4Gou8PM5Zi2WfBVM-q6u8epH60PdbnE0sXiXJANeapceo2SwKsZZzvbgW3IbSM_1EwaVw4JYRz4qGfhHVR23a4Ta272fQOb374lsHSXr7Fi17b9XR20-3YE_Ld8D3pagEh2PJAhQqAJmbG8kqjI_awaX6jeDgrCuzUF4AaH0fnJIdGHTeh8KMiRAPgLaQpf9EcAK-KGJLtsy7uKHMUvy4CFA0hrB-tyreAZ8ywLVoAZRew7WWcUCOgnxHnpJcJWcjhhZQ1F7FcZAL5xJWrkNQ7qCgK39muCZ_9mklX035SOIGrhN0w5bY6pmzR4lCBdVbjWBwtlLHpfw4vunI-EymeUNhtoVedUTSHjKk0kEDB6Dm2iYX10qHGIG66P9LBMGQ5OK_WkMVdGcJotDet1pU_UYraKTT8Z0Y_Oz_GM7DaXRKN8fyK5tzeT6SjYoYPznNuk_0000?></g></svg>